<?xml version="1.0" encoding="UTF-8" standalone="no"?>
<!DOCTYPE svg PUBLIC "-//W3C//DTD SVG 1.1//EN"
 "http://www.w3.org/Graphics/SVG/1.1/DTD/svg11.dtd">
<!-- Generated by graphviz version 2.43.0 (0)
 -->
<!-- Title: %3 Pages: 1 -->
<svg width="1248pt" height="300pt"
 viewBox="0.00 0.00 1247.98 300.48" xmlns="http://www.w3.org/2000/svg" xmlns:xlink="http://www.w3.org/1999/xlink">
<g id="graph0" class="graph" transform="scale(1 1) rotate(0) translate(4 296.48)">
<title>%3</title>
<polygon fill="white" stroke="transparent" points="-4,4 -4,-296.48 1243.98,-296.48 1243.98,4 -4,4"/>
<!-- N1 -->
<g id="node1" class="node">
<title>N1</title>
<ellipse fill="#8cd499" stroke="black" stroke-width="0" cx="108.19" cy="-265.61" rx="108.38" ry="26.74"/>
<text text-anchor="middle" x="108.19" y="-269.41" font-family="Times,serif" font-size="14.00">InstalledCode (1)</text>
<text text-anchor="middle" x="108.19" y="-254.41" font-family="Times,serif" font-size="14.00">python3@localhost</text>
</g>
<!-- N1098 -->
<g id="node6" class="node">
<title>N1098</title>
<polygon fill="#de707f" stroke="black" stroke-width="0" points="752.69,-172.74 465.69,-172.74 465.69,-119.74 752.69,-119.74 752.69,-172.74"/>
<text text-anchor="middle" x="609.19" y="-157.54" font-family="Times,serif" font-size="14.00">ShellJob&lt;python3@localhost&gt; (1098)</text>
<text text-anchor="middle" x="609.19" y="-142.54" font-family="Times,serif" font-size="14.00">State: finished</text>
<text text-anchor="middle" x="609.19" y="-127.54" font-family="Times,serif" font-size="14.00">Exit Code: 0</text>
</g>
<!-- N1&#45;&gt;N1098 -->
<g id="edge5" class="edge">
<title>N1&#45;&gt;N1098</title>
<path fill="none" stroke="#000000" d="M170.29,-243.54C219.48,-227.43 290.15,-205.54 353.19,-190.74 386.04,-183.03 421.57,-176.11 455.41,-170.17"/>
<polygon fill="#000000" stroke="#000000" points="456.12,-173.6 465.37,-168.44 454.92,-166.7 456.12,-173.6"/>
<text text-anchor="middle" x="400.19" y="-209.54" font-family="Times,serif" font-size="14.00">INPUT_CALC</text>
<text text-anchor="middle" x="400.19" y="-194.54" font-family="Times,serif" font-size="14.00">code</text>
</g>
<!-- N1094 -->
<g id="node2" class="node">
<title>N1094</title>
<ellipse fill="#8cd499" stroke="black" stroke-width="0" cx="353.19" cy="-265.61" rx="118.59" ry="26.74"/>
<text text-anchor="middle" x="353.19" y="-269.41" font-family="Times,serif" font-size="14.00">SinglefileData (1094)</text>
<text text-anchor="middle" x="353.19" y="-254.41" font-family="Times,serif" font-size="14.00">input.yaml</text>
</g>
<!-- N1094&#45;&gt;N1098 -->
<g id="edge3" class="edge">
<title>N1094&#45;&gt;N1098</title>
<path fill="none" stroke="#000000" d="M402.88,-241.07C433.94,-226.44 474.81,-207.31 511.19,-190.74 521.04,-186.25 531.48,-181.55 541.73,-176.98"/>
<polygon fill="#000000" stroke="#000000" points="543.36,-180.08 551.06,-172.81 540.51,-173.69 543.36,-180.08"/>
<text text-anchor="middle" x="558.19" y="-209.54" font-family="Times,serif" font-size="14.00">INPUT_CALC</text>
<text text-anchor="middle" x="558.19" y="-194.54" font-family="Times,serif" font-size="14.00">nodes__input</text>
</g>
<!-- N1095 -->
<g id="node3" class="node">
<title>N1095</title>
<ellipse fill="#8cd499" stroke="black" stroke-width="0" cx="609.19" cy="-265.61" rx="118.59" ry="26.74"/>
<text text-anchor="middle" x="609.19" y="-269.41" font-family="Times,serif" font-size="14.00">SinglefileData (1095)</text>
<text text-anchor="middle" x="609.19" y="-254.41" font-family="Times,serif" font-size="14.00">reaction&#45;diffusion.py</text>
</g>
<!-- N1095&#45;&gt;N1098 -->
<g id="edge4" class="edge">
<title>N1095&#45;&gt;N1098</title>
<path fill="none" stroke="#000000" d="M609.19,-238.56C609.19,-222.19 609.19,-200.85 609.19,-182.91"/>
<polygon fill="#000000" stroke="#000000" points="612.69,-182.81 609.19,-172.81 605.69,-182.81 612.69,-182.81"/>
<text text-anchor="middle" x="657.69" y="-209.54" font-family="Times,serif" font-size="14.00">INPUT_CALC</text>
<text text-anchor="middle" x="657.69" y="-194.54" font-family="Times,serif" font-size="14.00">nodes__script</text>
</g>
<!-- N1096 -->
<g id="node4" class="node">
<title>N1096</title>
<ellipse fill="#8cd499" stroke="black" stroke-width="0" cx="808.19" cy="-265.61" rx="61.99" ry="18"/>
<text text-anchor="middle" x="808.19" y="-261.91" font-family="Times,serif" font-size="14.00">List (1096)</text>
</g>
<!-- N1096&#45;&gt;N1098 -->
<g id="edge1" class="edge">
<title>N1096&#45;&gt;N1098</title>
<path fill="none" stroke="#000000" d="M789.26,-248.16C770.19,-232.13 739.48,-207.76 710.19,-190.74 701.98,-185.97 693.15,-181.41 684.25,-177.17"/>
<polygon fill="#000000" stroke="#000000" points="685.51,-173.89 674.97,-172.85 682.56,-180.24 685.51,-173.89"/>
<text text-anchor="middle" x="798.19" y="-209.54" font-family="Times,serif" font-size="14.00">INPUT_CALC</text>
<text text-anchor="middle" x="798.19" y="-194.54" font-family="Times,serif" font-size="14.00">arguments</text>
</g>
<!-- N1097 -->
<g id="node5" class="node">
<title>N1097</title>
<ellipse fill="#8cd499" stroke="black" stroke-width="0" cx="949.19" cy="-265.61" rx="61.99" ry="18"/>
<text text-anchor="middle" x="949.19" y="-261.91" font-family="Times,serif" font-size="14.00">List (1097)</text>
</g>
<!-- N1097&#45;&gt;N1098 -->
<g id="edge2" class="edge">
<title>N1097&#45;&gt;N1098</title>
<path fill="none" stroke="#000000" d="M932.32,-248.29C913.58,-231.15 881.68,-204.78 849.19,-190.74 822.21,-179.09 792.22,-170.55 762.83,-164.31"/>
<polygon fill="#000000" stroke="#000000" points="763.39,-160.85 752.89,-162.27 761.99,-167.71 763.39,-160.85"/>
<text text-anchor="middle" x="945.19" y="-209.54" font-family="Times,serif" font-size="14.00">INPUT_CALC</text>
<text text-anchor="middle" x="945.19" y="-194.54" font-family="Times,serif" font-size="14.00">outputs</text>
</g>
<!-- N1099 -->
<g id="node7" class="node">
<title>N1099</title>
<ellipse fill="#8cd499" stroke="black" stroke-width="0" cx="153.19" cy="-26.87" rx="110.12" ry="26.74"/>
<text text-anchor="middle" x="153.19" y="-30.67" font-family="Times,serif" font-size="14.00">RemoteData (1099)</text>
<text text-anchor="middle" x="153.19" y="-15.67" font-family="Times,serif" font-size="14.00">@localhost</text>
</g>
<!-- N1098&#45;&gt;N1099 -->
<g id="edge8" class="edge">
<title>N1098&#45;&gt;N1099</title>
<path fill="none" stroke="#000000" d="M465.62,-124.09C431.48,-117.93 395.35,-110.46 362.19,-101.74 312.91,-88.79 258.71,-69.48 217.85,-53.85"/>
<polygon fill="#000000" stroke="#000000" points="218.88,-50.49 208.29,-50.16 216.36,-57.03 218.88,-50.49"/>
<text text-anchor="middle" x="412.19" y="-90.54" font-family="Times,serif" font-size="14.00">CREATE</text>
<text text-anchor="middle" x="412.19" y="-75.54" font-family="Times,serif" font-size="14.00">remote_folder</text>
</g>
<!-- N1100 -->
<g id="node8" class="node">
<title>N1100</title>
<ellipse fill="#8cd499" stroke="black" stroke-width="0" cx="377.19" cy="-26.87" rx="95.58" ry="18"/>
<text text-anchor="middle" x="377.19" y="-23.17" font-family="Times,serif" font-size="14.00">FolderData (1100)</text>
</g>
<!-- N1098&#45;&gt;N1100 -->
<g id="edge10" class="edge">
<title>N1098&#45;&gt;N1100</title>
<path fill="none" stroke="#000000" d="M558.56,-119.63C516.35,-98.27 456.98,-68.24 417.82,-48.43"/>
<polygon fill="#000000" stroke="#000000" points="419.32,-45.26 408.81,-43.87 416.16,-51.51 419.32,-45.26"/>
<text text-anchor="middle" x="553.69" y="-90.54" font-family="Times,serif" font-size="14.00">CREATE</text>
<text text-anchor="middle" x="553.69" y="-75.54" font-family="Times,serif" font-size="14.00">retrieved</text>
</g>
<!-- N1101 -->
<g id="node9" class="node">
<title>N1101</title>
<ellipse fill="#8cd499" stroke="black" stroke-width="0" cx="609.19" cy="-26.87" rx="118.59" ry="26.74"/>
<text text-anchor="middle" x="609.19" y="-30.67" font-family="Times,serif" font-size="14.00">SinglefileData (1101)</text>
<text text-anchor="middle" x="609.19" y="-15.67" font-family="Times,serif" font-size="14.00">results.npz</text>
</g>
<!-- N1098&#45;&gt;N1101 -->
<g id="edge9" class="edge">
<title>N1098&#45;&gt;N1101</title>
<path fill="none" stroke="#000000" d="M609.19,-119.48C609.19,-103.24 609.19,-82.01 609.19,-64.09"/>
<polygon fill="#000000" stroke="#000000" points="612.69,-63.97 609.19,-53.97 605.69,-63.97 612.69,-63.97"/>
<text text-anchor="middle" x="650.19" y="-90.54" font-family="Times,serif" font-size="14.00">CREATE</text>
<text text-anchor="middle" x="650.19" y="-75.54" font-family="Times,serif" font-size="14.00">results_npz</text>
</g>
<!-- N1102 -->
<g id="node10" class="node">
<title>N1102</title>
<ellipse fill="#8cd499" stroke="black" stroke-width="0" cx="865.19" cy="-26.87" rx="118.59" ry="26.74"/>
<text text-anchor="middle" x="865.19" y="-30.67" font-family="Times,serif" font-size="14.00">SinglefileData (1102)</text>
<text text-anchor="middle" x="865.19" y="-15.67" font-family="Times,serif" font-size="14.00">stderr</text>
</g>
<!-- N1098&#45;&gt;N1102 -->
<g id="edge7" class="edge">
<title>N1098&#45;&gt;N1102</title>
<path fill="none" stroke="#000000" d="M665.05,-119.63C706.36,-100.69 762.54,-74.93 804.87,-55.52"/>
<polygon fill="#000000" stroke="#000000" points="806.59,-58.58 814.22,-51.24 803.67,-52.22 806.59,-58.58"/>
<text text-anchor="middle" x="797.69" y="-90.54" font-family="Times,serif" font-size="14.00">CREATE</text>
<text text-anchor="middle" x="797.69" y="-75.54" font-family="Times,serif" font-size="14.00">stderr</text>
</g>
<!-- N1103 -->
<g id="node11" class="node">
<title>N1103</title>
<ellipse fill="#8cd499" stroke="black" stroke-width="0" cx="1121.19" cy="-26.87" rx="118.59" ry="26.74"/>
<text text-anchor="middle" x="1121.19" y="-30.67" font-family="Times,serif" font-size="14.00">SinglefileData (1103)</text>
<text text-anchor="middle" x="1121.19" y="-15.67" font-family="Times,serif" font-size="14.00">stdout</text>
</g>
<!-- N1098&#45;&gt;N1103 -->
<g id="edge6" class="edge">
<title>N1098&#45;&gt;N1103</title>
<path fill="none" stroke="#000000" d="M746.55,-119.74C774.93,-114.11 804.58,-107.96 832.19,-101.74 901.68,-86.1 979.92,-65.94 1037.45,-50.63"/>
<polygon fill="#000000" stroke="#000000" points="1038.46,-53.99 1047.22,-48.03 1036.66,-47.22 1038.46,-53.99"/>
<text text-anchor="middle" x="981.69" y="-90.54" font-family="Times,serif" font-size="14.00">CREATE</text>
<text text-anchor="middle" x="981.69" y="-75.54" font-family="Times,serif" font-size="14.00">stdout</text>
</g>
</g>
</svg>
