<?xml version="1.0" encoding="UTF-8" standalone="no"?>
<!DOCTYPE svg PUBLIC "-//W3C//DTD SVG 1.1//EN"
 "http://www.w3.org/Graphics/SVG/1.1/DTD/svg11.dtd">
<!-- Generated by graphviz version 2.43.0 (0)
 -->
<!-- Title: %3 Pages: 1 -->
<svg width="1150pt" height="300pt"
 viewBox="0.00 0.00 1150.25 300.48" xmlns="http://www.w3.org/2000/svg" xmlns:xlink="http://www.w3.org/1999/xlink">
<g id="graph0" class="graph" transform="scale(1 1) rotate(0) translate(4 296.48)">
<title>%3</title>
<polygon fill="white" stroke="transparent" points="-4,4 -4,-296.48 1146.25,-296.48 1146.25,4 -4,4"/>
<!-- N1 -->
<g id="node1" class="node">
<title>N1</title>
<ellipse fill="#8cd499" stroke="black" stroke-width="0" cx="108.19" cy="-265.61" rx="108.38" ry="26.74"/>
<text text-anchor="middle" x="108.19" y="-269.41" font-family="Times,serif" font-size="14.00">InstalledCode (1)</text>
<text text-anchor="middle" x="108.19" y="-254.41" font-family="Times,serif" font-size="14.00">python3@localhost</text>
</g>
<!-- N6 -->
<g id="node6" class="node">
<title>N6</title>
<polygon fill="#de707f" stroke="black" stroke-width="0" points="712.19,-172.74 452.19,-172.74 452.19,-119.74 712.19,-119.74 712.19,-172.74"/>
<text text-anchor="middle" x="582.19" y="-157.54" font-family="Times,serif" font-size="14.00">ShellJob&lt;python3@localhost&gt; (6)</text>
<text text-anchor="middle" x="582.19" y="-142.54" font-family="Times,serif" font-size="14.00">State: finished</text>
<text text-anchor="middle" x="582.19" y="-127.54" font-family="Times,serif" font-size="14.00">Exit Code: 0</text>
</g>
<!-- N1&#45;&gt;N6 -->
<g id="edge4" class="edge">
<title>N1&#45;&gt;N6</title>
<path fill="none" stroke="#000000" d="M165.09,-242.68C208.87,-226.48 271.16,-204.88 327.19,-190.74 364.06,-181.44 404.45,-173.53 441.98,-167.11"/>
<polygon fill="#000000" stroke="#000000" points="442.69,-170.54 451.97,-165.42 441.53,-163.64 442.69,-170.54"/>
<text text-anchor="middle" x="374.19" y="-209.54" font-family="Times,serif" font-size="14.00">INPUT_CALC</text>
<text text-anchor="middle" x="374.19" y="-194.54" font-family="Times,serif" font-size="14.00">code</text>
</g>
<!-- N2 -->
<g id="node2" class="node">
<title>N2</title>
<ellipse fill="#8cd499" stroke="black" stroke-width="0" cx="349.19" cy="-265.61" rx="115.02" ry="26.74"/>
<text text-anchor="middle" x="349.19" y="-269.41" font-family="Times,serif" font-size="14.00">SinglefileData (2)</text>
<text text-anchor="middle" x="349.19" y="-254.41" font-family="Times,serif" font-size="14.00">reaction&#45;diffusion.py</text>
</g>
<!-- N2&#45;&gt;N6 -->
<g id="edge3" class="edge">
<title>N2&#45;&gt;N6</title>
<path fill="none" stroke="#000000" d="M389.92,-240.37C415.72,-225.39 449.98,-206.14 481.19,-190.74 490.69,-186.05 500.82,-181.35 510.86,-176.86"/>
<polygon fill="#000000" stroke="#000000" points="512.3,-180.05 520.03,-172.81 509.47,-173.65 512.3,-180.05"/>
<text text-anchor="middle" x="529.69" y="-209.54" font-family="Times,serif" font-size="14.00">INPUT_CALC</text>
<text text-anchor="middle" x="529.69" y="-194.54" font-family="Times,serif" font-size="14.00">nodes__script</text>
</g>
<!-- N3 -->
<g id="node3" class="node">
<title>N3</title>
<ellipse fill="#8cd499" stroke="black" stroke-width="0" cx="582.19" cy="-265.61" rx="99.9" ry="26.74"/>
<text text-anchor="middle" x="582.19" y="-269.41" font-family="Times,serif" font-size="14.00">SinglefileData (3)</text>
<text text-anchor="middle" x="582.19" y="-254.41" font-family="Times,serif" font-size="14.00">input.yaml</text>
</g>
<!-- N3&#45;&gt;N6 -->
<g id="edge5" class="edge">
<title>N3&#45;&gt;N6</title>
<path fill="none" stroke="#000000" d="M582.19,-238.56C582.19,-222.19 582.19,-200.85 582.19,-182.91"/>
<polygon fill="#000000" stroke="#000000" points="585.69,-182.81 582.19,-172.81 578.69,-182.81 585.69,-182.81"/>
<text text-anchor="middle" x="629.19" y="-209.54" font-family="Times,serif" font-size="14.00">INPUT_CALC</text>
<text text-anchor="middle" x="629.19" y="-194.54" font-family="Times,serif" font-size="14.00">nodes__input</text>
</g>
<!-- N4 -->
<g id="node4" class="node">
<title>N4</title>
<ellipse fill="#8cd499" stroke="black" stroke-width="0" cx="744.19" cy="-265.61" rx="44.39" ry="18"/>
<text text-anchor="middle" x="744.19" y="-261.91" font-family="Times,serif" font-size="14.00">List (4)</text>
</g>
<!-- N4&#45;&gt;N6 -->
<g id="edge1" class="edge">
<title>N4&#45;&gt;N6</title>
<path fill="none" stroke="#000000" d="M733.14,-248.05C721.55,-231.71 702.01,-206.9 680.19,-190.74 673.77,-185.99 666.75,-181.61 659.52,-177.61"/>
<polygon fill="#000000" stroke="#000000" points="660.74,-174.3 650.26,-172.75 657.49,-180.5 660.74,-174.3"/>
<text text-anchor="middle" x="757.19" y="-209.54" font-family="Times,serif" font-size="14.00">INPUT_CALC</text>
<text text-anchor="middle" x="757.19" y="-194.54" font-family="Times,serif" font-size="14.00">arguments</text>
</g>
<!-- N5 -->
<g id="node5" class="node">
<title>N5</title>
<ellipse fill="#8cd499" stroke="black" stroke-width="0" cx="855.19" cy="-265.61" rx="44.39" ry="18"/>
<text text-anchor="middle" x="855.19" y="-261.91" font-family="Times,serif" font-size="14.00">List (5)</text>
</g>
<!-- N5&#45;&gt;N6 -->
<g id="edge2" class="edge">
<title>N5&#45;&gt;N6</title>
<path fill="none" stroke="#000000" d="M849.07,-247.65C841.96,-230.49 828.55,-204.59 808.19,-190.74 792.91,-180.35 759.17,-171.79 722.31,-165.09"/>
<polygon fill="#000000" stroke="#000000" points="722.82,-161.63 712.36,-163.34 721.6,-168.52 722.82,-161.63"/>
<text text-anchor="middle" x="881.19" y="-209.54" font-family="Times,serif" font-size="14.00">INPUT_CALC</text>
<text text-anchor="middle" x="881.19" y="-194.54" font-family="Times,serif" font-size="14.00">outputs</text>
</g>
<!-- N7 -->
<g id="node7" class="node">
<title>N7</title>
<ellipse fill="#8cd499" stroke="black" stroke-width="0" cx="199.19" cy="-26.87" rx="91.43" ry="26.74"/>
<text text-anchor="middle" x="199.19" y="-30.67" font-family="Times,serif" font-size="14.00">RemoteData (7)</text>
<text text-anchor="middle" x="199.19" y="-15.67" font-family="Times,serif" font-size="14.00">@localhost</text>
</g>
<!-- N6&#45;&gt;N7 -->
<g id="edge10" class="edge">
<title>N6&#45;&gt;N7</title>
<path fill="none" stroke="#000000" d="M452,-125.93C420.26,-119.65 386.67,-111.67 356.19,-101.74 319.33,-89.73 279.85,-71.13 249.71,-55.6"/>
<polygon fill="#000000" stroke="#000000" points="251.15,-52.4 240.66,-50.89 247.92,-58.61 251.15,-52.4"/>
<text text-anchor="middle" x="406.19" y="-90.54" font-family="Times,serif" font-size="14.00">CREATE</text>
<text text-anchor="middle" x="406.19" y="-75.54" font-family="Times,serif" font-size="14.00">remote_folder</text>
</g>
<!-- N8 -->
<g id="node8" class="node">
<title>N8</title>
<ellipse fill="#8cd499" stroke="black" stroke-width="0" cx="386.19" cy="-26.87" rx="77.99" ry="18"/>
<text text-anchor="middle" x="386.19" y="-23.17" font-family="Times,serif" font-size="14.00">FolderData (8)</text>
</g>
<!-- N6&#45;&gt;N8 -->
<g id="edge6" class="edge">
<title>N6&#45;&gt;N8</title>
<path fill="none" stroke="#000000" d="M539.17,-119.48C503.95,-98.39 454.71,-68.9 421.69,-49.13"/>
<polygon fill="#000000" stroke="#000000" points="423.22,-45.96 412.84,-43.83 419.62,-51.97 423.22,-45.96"/>
<text text-anchor="middle" x="540.69" y="-90.54" font-family="Times,serif" font-size="14.00">CREATE</text>
<text text-anchor="middle" x="540.69" y="-75.54" font-family="Times,serif" font-size="14.00">retrieved</text>
</g>
<!-- N9 -->
<g id="node9" class="node">
<title>N9</title>
<ellipse fill="#8cd499" stroke="black" stroke-width="0" cx="582.19" cy="-26.87" rx="99.9" ry="26.74"/>
<text text-anchor="middle" x="582.19" y="-30.67" font-family="Times,serif" font-size="14.00">SinglefileData (9)</text>
<text text-anchor="middle" x="582.19" y="-15.67" font-family="Times,serif" font-size="14.00">results.npz</text>
</g>
<!-- N6&#45;&gt;N9 -->
<g id="edge7" class="edge">
<title>N6&#45;&gt;N9</title>
<path fill="none" stroke="#000000" d="M582.19,-119.48C582.19,-103.24 582.19,-82.01 582.19,-64.09"/>
<polygon fill="#000000" stroke="#000000" points="585.69,-63.97 582.19,-53.97 578.69,-63.97 585.69,-63.97"/>
<text text-anchor="middle" x="623.19" y="-90.54" font-family="Times,serif" font-size="14.00">CREATE</text>
<text text-anchor="middle" x="623.19" y="-75.54" font-family="Times,serif" font-size="14.00">results_npz</text>
</g>
<!-- N10 -->
<g id="node10" class="node">
<title>N10</title>
<ellipse fill="#8cd499" stroke="black" stroke-width="0" cx="806.19" cy="-26.87" rx="106.13" ry="26.74"/>
<text text-anchor="middle" x="806.19" y="-30.67" font-family="Times,serif" font-size="14.00">SinglefileData (10)</text>
<text text-anchor="middle" x="806.19" y="-15.67" font-family="Times,serif" font-size="14.00">stderr</text>
</g>
<!-- N6&#45;&gt;N10 -->
<g id="edge9" class="edge">
<title>N6&#45;&gt;N10</title>
<path fill="none" stroke="#000000" d="M633.22,-119.67C644.75,-113.83 656.91,-107.61 668.19,-101.74 696.65,-86.93 728.22,-70.06 753.97,-56.19"/>
<polygon fill="#000000" stroke="#000000" points="755.68,-59.25 762.82,-51.42 752.35,-53.08 755.68,-59.25"/>
<text text-anchor="middle" x="751.69" y="-90.54" font-family="Times,serif" font-size="14.00">CREATE</text>
<text text-anchor="middle" x="751.69" y="-75.54" font-family="Times,serif" font-size="14.00">stderr</text>
</g>
<!-- N11 -->
<g id="node11" class="node">
<title>N11</title>
<ellipse fill="#8cd499" stroke="black" stroke-width="0" cx="1036.19" cy="-26.87" rx="106.13" ry="26.74"/>
<text text-anchor="middle" x="1036.19" y="-30.67" font-family="Times,serif" font-size="14.00">SinglefileData (11)</text>
<text text-anchor="middle" x="1036.19" y="-15.67" font-family="Times,serif" font-size="14.00">stdout</text>
</g>
<!-- N6&#45;&gt;N11 -->
<g id="edge8" class="edge">
<title>N6&#45;&gt;N11</title>
<path fill="none" stroke="#000000" d="M709.32,-119.72C734.86,-114.15 761.44,-108.02 786.19,-101.74 845.92,-86.57 912.84,-66.64 962.4,-51.3"/>
<polygon fill="#000000" stroke="#000000" points="963.56,-54.61 972.08,-48.3 961.49,-47.92 963.56,-54.61"/>
<text text-anchor="middle" x="919.69" y="-90.54" font-family="Times,serif" font-size="14.00">CREATE</text>
<text text-anchor="middle" x="919.69" y="-75.54" font-family="Times,serif" font-size="14.00">stdout</text>
</g>
</g>
</svg>
