<?xml version="1.0" encoding="UTF-8" standalone="no"?>
<!DOCTYPE svg PUBLIC "-//W3C//DTD SVG 1.1//EN"
 "http://www.w3.org/Graphics/SVG/1.1/DTD/svg11.dtd">
<!-- Generated by graphviz version 2.40.1 (20161225.0304)
 -->
<!-- Title: %3 Pages: 1 -->
<svg width="648pt" height="232pt"
 viewBox="0.00 0.00 647.55 231.82" xmlns="http://www.w3.org/2000/svg" xmlns:xlink="http://www.w3.org/1999/xlink">
<g id="graph0" class="graph" transform="scale(1 1) rotate(0) translate(4 227.8234)">
<title>%3</title>
<polygon fill="#ffffff" stroke="transparent" points="-4,4 -4,-227.8234 643.5471,-227.8234 643.5471,4 -4,4"/>
<!-- N8589 -->
<g id="node1" class="node">
<title>N8589</title>
<ellipse fill="#8cd499" stroke="#000000" stroke-width="0" cx="51.1201" cy="-198.3675" rx="51.2405" ry="18"/>
<text text-anchor="middle" x="51.1201" y="-194.1675" font-family="Times,serif" font-size="14.00" fill="#000000">Dict (8589)</text>
</g>
<!-- N8592 -->
<g id="node2" class="node">
<title>N8592</title>
<polygon fill="#de707f" stroke="#000000" stroke-width="0" points="334.3723,-136.9117 201.8679,-136.9117 201.8679,-86.9117 334.3723,-86.9117 334.3723,-136.9117"/>
<text text-anchor="middle" x="268.1201" y="-121.7117" font-family="Times,serif" font-size="14.00" fill="#000000">CalcJobNode (8592)</text>
<text text-anchor="middle" x="268.1201" y="-107.7117" font-family="Times,serif" font-size="14.00" fill="#000000">State: finished</text>
<text text-anchor="middle" x="268.1201" y="-93.7117" font-family="Times,serif" font-size="14.00" fill="#000000">Exit Code: 0</text>
</g>
<!-- N8589&#45;&gt;N8592 -->
<g id="edge1" class="edge">
<title>N8589&#45;&gt;N8592</title>
<path fill="none" stroke="#000000" d="M83.7412,-184.3132C92.6013,-180.5546 102.2094,-176.532 111.1201,-172.9117 137.6612,-162.1284 166.8812,-150.6648 192.8428,-140.6209"/>
<polygon fill="#000000" stroke="#000000" points="194.1813,-143.856 202.2491,-136.9887 191.6596,-137.3259 194.1813,-143.856"/>
</g>
<!-- N8593 -->
<g id="node6" class="node">
<title>N8593</title>
<ellipse fill="#8cd499" stroke="#000000" stroke-width="0" cx="268.1201" cy="-25.4558" rx="96.0917" ry="25.4118"/>
<text text-anchor="middle" x="268.1201" y="-28.2558" font-family="Times,serif" font-size="14.00" fill="#000000">RemoteData (8593)</text>
<text text-anchor="middle" x="268.1201" y="-14.2558" font-family="Times,serif" font-size="14.00" fill="#000000">@example_computer</text>
</g>
<!-- N8592&#45;&gt;N8593 -->
<g id="edge5" class="edge">
<title>N8592&#45;&gt;N8593</title>
<path fill="none" stroke="#000000" d="M268.1201,-86.9051C268.1201,-78.8923 268.1201,-69.8571 268.1201,-61.2303"/>
<polygon fill="#000000" stroke="#000000" points="271.6202,-61.0062 268.1201,-51.0062 264.6202,-61.0063 271.6202,-61.0062"/>
</g>
<!-- N8591 -->
<g id="node3" class="node">
<title>N8591</title>
<polygon fill="#e38851" stroke="#000000" stroke-width="0" points="271.9721,-216.3675 120.2681,-216.3675 120.2681,-180.3675 271.9721,-180.3675 271.9721,-216.3675"/>
<text text-anchor="middle" x="196.1201" y="-201.1675" font-family="Times,serif" font-size="14.00" fill="#000000">WorkChainNode (8591)</text>
<text text-anchor="middle" x="196.1201" y="-187.1675" font-family="Times,serif" font-size="14.00" fill="#000000">State: running</text>
</g>
<!-- N8591&#45;&gt;N8592 -->
<g id="edge2" class="edge">
<title>N8591&#45;&gt;N8592</title>
<path fill="none" stroke="#000000" stroke-dasharray="1,5" d="M211.3895,-180.0325C219.8414,-169.8836 230.6059,-156.9579 240.4817,-145.0992"/>
<polygon fill="#000000" stroke="#000000" points="243.4276,-147.0312 247.1375,-137.1071 238.0486,-142.5516 243.4276,-147.0312"/>
</g>
<!-- N8590 -->
<g id="node4" class="node">
<title>N8590</title>
<ellipse fill="#8cd499" stroke="#000000" stroke-width="0" cx="341.1201" cy="-198.3675" rx="51.3557" ry="25.4118"/>
<text text-anchor="middle" x="341.1201" y="-201.1675" font-family="Times,serif" font-size="14.00" fill="#000000">Int (8590)</text>
<text text-anchor="middle" x="341.1201" y="-187.1675" font-family="Times,serif" font-size="14.00" fill="#000000">value: 3</text>
</g>
<!-- N8590&#45;&gt;N8592 -->
<g id="edge3" class="edge">
<title>N8590&#45;&gt;N8592</title>
<path fill="none" stroke="#000000" d="M321.1726,-174.7431C313.378,-165.5118 304.3057,-154.7673 295.891,-144.8015"/>
<polygon fill="#000000" stroke="#000000" points="298.4462,-142.4025 289.3205,-137.0199 293.0978,-146.9186 298.4462,-142.4025"/>
</g>
<!-- N8588 -->
<g id="node5" class="node">
<title>N8588</title>
<ellipse fill="#4ca4b9" fill-opacity="0.666667" stroke="#000000" stroke-width="0" cx="525.1201" cy="-198.3675" rx="114.3541" ry="25.4118"/>
<text text-anchor="middle" x="525.1201" y="-201.1675" font-family="Times,serif" font-size="14.00" fill="#000000">Code (8588)</text>
<text text-anchor="middle" x="525.1201" y="-187.1675" font-family="Times,serif" font-size="14.00" fill="#000000">exec@example_computer</text>
</g>
<!-- N8588&#45;&gt;N8592 -->
<g id="edge4" class="edge">
<title>N8588&#45;&gt;N8592</title>
<path fill="none" stroke="#000000" d="M461.9217,-177.1073C426.4494,-165.1743 381.935,-150.1995 344.5167,-137.6118"/>
<polygon fill="#000000" stroke="#000000" points="345.261,-134.1695 334.667,-134.2983 343.0291,-140.8042 345.261,-134.1695"/>
</g>
</g>
</svg>
