<svg width="552" height="362" viewBox="0 0 552 362" fill="none" xmlns="http://www.w3.org/2000/svg">
<rect width="551" height="358" transform="translate(1 2)" fill="white"/>
<ellipse cx="129" cy="26.5" rx="128" ry="24.5" fill="#487AFD" fill-opacity="0.5"/>
<ellipse cx="130" cy="338.5" rx="128" ry="21.5" fill="#487AFD" fill-opacity="0.5"/>
<path d="M3.00001 36.5453C2.99999 20.6871 3.00001 24.4 3.00002 36.5625C3.07662 74.2646 255 71.2183 255 36.5453V105.902C255 138.755 2.9999 139.972 3.00001 105.902C3.00007 86.1555 3.00005 53.3297 3.00002 36.5625C3.00001 36.5568 3.00001 36.5511 3.00001 36.5453Z" fill="#FDBF48" fill-opacity="0.5" stroke="#FDBF48" stroke-opacity="0.5" stroke-width="3"/>
<path d="M71.9668 93.8232H68.9609V99H67.2646V86.2031H71.501C72.9424 86.2031 74.0498 86.5312 74.8232 87.1875C75.6025 87.8438 75.9922 88.7988 75.9922 90.0527C75.9922 90.8496 75.7754 91.5439 75.3418 92.1357C74.9141 92.7275 74.3164 93.1699 73.5488 93.4629L76.5547 98.8945V99H74.7441L71.9668 93.8232ZM68.9609 92.4434H71.5537C72.3916 92.4434 73.0566 92.2266 73.5488 91.793C74.0469 91.3594 74.2959 90.7793 74.2959 90.0527C74.2959 89.2617 74.0586 88.6553 73.584 88.2334C73.1152 87.8115 72.4355 87.5977 71.5449 87.5918H68.9609V92.4434ZM82.0566 99.1758C80.7676 99.1758 79.7188 98.7539 78.9102 97.9102C78.1016 97.0605 77.6973 95.9268 77.6973 94.5088V94.21C77.6973 93.2666 77.876 92.4258 78.2334 91.6875C78.5967 90.9434 79.1006 90.3633 79.7451 89.9473C80.3955 89.5254 81.0986 89.3145 81.8545 89.3145C83.0908 89.3145 84.0518 89.7217 84.7373 90.5361C85.4229 91.3506 85.7656 92.5166 85.7656 94.0342V94.7109H79.3232C79.3467 95.6484 79.6191 96.4072 80.1406 96.9873C80.668 97.5615 81.3359 97.8486 82.1445 97.8486C82.7188 97.8486 83.2051 97.7314 83.6035 97.4971C84.002 97.2627 84.3506 96.9521 84.6494 96.5654L85.6426 97.3389C84.8457 98.5635 83.6504 99.1758 82.0566 99.1758ZM81.8545 90.6504C81.1982 90.6504 80.6475 90.8906 80.2021 91.3711C79.7568 91.8457 79.4814 92.5137 79.376 93.375H84.1396V93.252C84.0928 92.4258 83.8701 91.7871 83.4717 91.3359C83.0732 90.8789 82.5342 90.6504 81.8545 90.6504ZM95.6885 94.3506C95.6885 95.7979 95.3574 96.9639 94.6953 97.8486C94.0332 98.7334 93.1367 99.1758 92.0059 99.1758C90.8516 99.1758 89.9434 98.8096 89.2812 98.0771V102.656H87.6553V89.4902H89.1406L89.2197 90.5449C89.8818 89.7246 90.8018 89.3145 91.9795 89.3145C93.1221 89.3145 94.0244 89.7451 94.6865 90.6064C95.3545 91.4678 95.6885 92.666 95.6885 94.2012V94.3506ZM94.0625 94.166C94.0625 93.0938 93.834 92.2471 93.377 91.626C92.9199 91.0049 92.293 90.6943 91.4961 90.6943C90.5117 90.6943 89.7734 91.1309 89.2812 92.0039V96.5479C89.7676 97.415 90.5117 97.8486 91.5137 97.8486C92.293 97.8486 92.9111 97.541 93.3682 96.9258C93.8311 96.3047 94.0625 95.3848 94.0625 94.166ZM97.332 94.1572C97.332 93.2256 97.5137 92.3877 97.877 91.6436C98.2461 90.8994 98.7559 90.3252 99.4062 89.9209C100.062 89.5166 100.81 89.3145 101.647 89.3145C102.942 89.3145 103.988 89.7627 104.785 90.6592C105.588 91.5557 105.989 92.748 105.989 94.2363V94.3506C105.989 95.2764 105.811 96.1084 105.453 96.8467C105.102 97.5791 104.595 98.1504 103.933 98.5605C103.276 98.9707 102.521 99.1758 101.665 99.1758C100.376 99.1758 99.3301 98.7275 98.5273 97.8311C97.7305 96.9346 97.332 95.748 97.332 94.2715V94.1572ZM98.9668 94.3506C98.9668 95.4053 99.21 96.252 99.6963 96.8906C100.188 97.5293 100.845 97.8486 101.665 97.8486C102.491 97.8486 103.147 97.5264 103.634 96.8818C104.12 96.2314 104.363 95.3232 104.363 94.1572C104.363 93.1143 104.114 92.2705 103.616 91.626C103.124 90.9756 102.468 90.6504 101.647 90.6504C100.845 90.6504 100.197 90.9697 99.7051 91.6084C99.2129 92.2471 98.9668 93.1611 98.9668 94.3506ZM113.565 96.4775C113.565 96.0381 113.398 95.6982 113.064 95.458C112.736 95.2119 112.159 95.001 111.333 94.8252C110.513 94.6494 109.859 94.4385 109.373 94.1924C108.893 93.9463 108.535 93.6533 108.301 93.3135C108.072 92.9736 107.958 92.5693 107.958 92.1006C107.958 91.3213 108.286 90.6621 108.942 90.123C109.604 89.584 110.448 89.3145 111.474 89.3145C112.552 89.3145 113.425 89.5928 114.093 90.1494C114.767 90.7061 115.104 91.418 115.104 92.2852H113.469C113.469 91.8398 113.278 91.4561 112.897 91.1338C112.522 90.8115 112.048 90.6504 111.474 90.6504C110.882 90.6504 110.419 90.7793 110.085 91.0371C109.751 91.2949 109.584 91.6318 109.584 92.0479C109.584 92.4404 109.739 92.7363 110.05 92.9355C110.36 93.1348 110.92 93.3252 111.729 93.5068C112.543 93.6885 113.202 93.9053 113.706 94.1572C114.21 94.4092 114.582 94.7139 114.822 95.0713C115.068 95.4229 115.191 95.8535 115.191 96.3633C115.191 97.2129 114.852 97.8955 114.172 98.4111C113.492 98.9209 112.61 99.1758 111.526 99.1758C110.765 99.1758 110.091 99.041 109.505 98.7715C108.919 98.502 108.459 98.127 108.125 97.6465C107.797 97.1602 107.633 96.6357 107.633 96.0732H109.259C109.288 96.6182 109.505 97.0518 109.909 97.374C110.319 97.6904 110.858 97.8486 111.526 97.8486C112.142 97.8486 112.634 97.7256 113.003 97.4795C113.378 97.2275 113.565 96.8936 113.565 96.4775ZM119.076 99H117.45V89.4902H119.076V99ZM117.318 86.9678C117.318 86.7041 117.397 86.4814 117.556 86.2998C117.72 86.1182 117.96 86.0273 118.276 86.0273C118.593 86.0273 118.833 86.1182 118.997 86.2998C119.161 86.4814 119.243 86.7041 119.243 86.9678C119.243 87.2314 119.161 87.4512 118.997 87.627C118.833 87.8027 118.593 87.8906 118.276 87.8906C117.96 87.8906 117.72 87.8027 117.556 87.627C117.397 87.4512 117.318 87.2314 117.318 86.9678ZM123.893 87.1875V89.4902H125.668V90.7471H123.893V96.6445C123.893 97.0254 123.972 97.3125 124.13 97.5059C124.288 97.6934 124.558 97.7871 124.938 97.7871C125.126 97.7871 125.384 97.752 125.712 97.6816V99C125.284 99.1172 124.868 99.1758 124.464 99.1758C123.737 99.1758 123.189 98.9561 122.82 98.5166C122.451 98.0771 122.267 97.4531 122.267 96.6445V90.7471H120.535V89.4902H122.267V87.1875H123.893ZM126.969 94.1572C126.969 93.2256 127.15 92.3877 127.514 91.6436C127.883 90.8994 128.393 90.3252 129.043 89.9209C129.699 89.5166 130.446 89.3145 131.284 89.3145C132.579 89.3145 133.625 89.7627 134.422 90.6592C135.225 91.5557 135.626 92.748 135.626 94.2363V94.3506C135.626 95.2764 135.447 96.1084 135.09 96.8467C134.738 97.5791 134.231 98.1504 133.569 98.5605C132.913 98.9707 132.157 99.1758 131.302 99.1758C130.013 99.1758 128.967 98.7275 128.164 97.8311C127.367 96.9346 126.969 95.748 126.969 94.2715V94.1572ZM128.604 94.3506C128.604 95.4053 128.847 96.252 129.333 96.8906C129.825 97.5293 130.481 97.8486 131.302 97.8486C132.128 97.8486 132.784 97.5264 133.271 96.8818C133.757 96.2314 134 95.3232 134 94.1572C134 93.1143 133.751 92.2705 133.253 91.626C132.761 90.9756 132.104 90.6504 131.284 90.6504C130.481 90.6504 129.834 90.9697 129.342 91.6084C128.85 92.2471 128.604 93.1611 128.604 94.3506ZM142.262 90.9492C142.016 90.9082 141.749 90.8877 141.462 90.8877C140.396 90.8877 139.672 91.3418 139.291 92.25V99H137.665V89.4902H139.247L139.273 90.5889C139.807 89.7393 140.562 89.3145 141.541 89.3145C141.857 89.3145 142.098 89.3555 142.262 89.4375V90.9492ZM147.034 96.6182L149.249 89.4902H150.989L147.166 100.468C146.574 102.05 145.634 102.841 144.345 102.841L144.037 102.814L143.431 102.7V101.382L143.87 101.417C144.421 101.417 144.849 101.306 145.153 101.083C145.464 100.86 145.719 100.453 145.918 99.8613L146.278 98.8945L142.886 89.4902H144.661L147.034 96.6182ZM164.226 93.3486H158.855V99H157.168V86.2031H165.096V87.5918H158.855V91.9688H164.226V93.3486ZM168.629 99H167.003V89.4902H168.629V99ZM166.871 86.9678C166.871 86.7041 166.95 86.4814 167.108 86.2998C167.272 86.1182 167.513 86.0273 167.829 86.0273C168.146 86.0273 168.386 86.1182 168.55 86.2998C168.714 86.4814 168.796 86.7041 168.796 86.9678C168.796 87.2314 168.714 87.4512 168.55 87.627C168.386 87.8027 168.146 87.8906 167.829 87.8906C167.513 87.8906 167.272 87.8027 167.108 87.627C166.95 87.4512 166.871 87.2314 166.871 86.9678ZM173.006 99H171.38V85.5H173.006V99ZM179.562 99.1758C178.273 99.1758 177.225 98.7539 176.416 97.9102C175.607 97.0605 175.203 95.9268 175.203 94.5088V94.21C175.203 93.2666 175.382 92.4258 175.739 91.6875C176.103 90.9434 176.606 90.3633 177.251 89.9473C177.901 89.5254 178.604 89.3145 179.36 89.3145C180.597 89.3145 181.558 89.7217 182.243 90.5361C182.929 91.3506 183.271 92.5166 183.271 94.0342V94.7109H176.829C176.853 95.6484 177.125 96.4072 177.646 96.9873C178.174 97.5615 178.842 97.8486 179.65 97.8486C180.225 97.8486 180.711 97.7314 181.109 97.4971C181.508 97.2627 181.856 96.9521 182.155 96.5654L183.148 97.3389C182.352 98.5635 181.156 99.1758 179.562 99.1758ZM179.36 90.6504C178.704 90.6504 178.153 90.8906 177.708 91.3711C177.263 91.8457 176.987 92.5137 176.882 93.375H181.646V93.252C181.599 92.4258 181.376 91.7871 180.978 91.3359C180.579 90.8789 180.04 90.6504 179.36 90.6504ZM190.698 96.4775C190.698 96.0381 190.531 95.6982 190.197 95.458C189.869 95.2119 189.292 95.001 188.466 94.8252C187.646 94.6494 186.992 94.4385 186.506 94.1924C186.025 93.9463 185.668 93.6533 185.434 93.3135C185.205 92.9736 185.091 92.5693 185.091 92.1006C185.091 91.3213 185.419 90.6621 186.075 90.123C186.737 89.584 187.581 89.3145 188.606 89.3145C189.685 89.3145 190.558 89.5928 191.226 90.1494C191.899 90.7061 192.236 91.418 192.236 92.2852H190.602C190.602 91.8398 190.411 91.4561 190.03 91.1338C189.655 90.8115 189.181 90.6504 188.606 90.6504C188.015 90.6504 187.552 90.7793 187.218 91.0371C186.884 91.2949 186.717 91.6318 186.717 92.0479C186.717 92.4404 186.872 92.7363 187.183 92.9355C187.493 93.1348 188.053 93.3252 188.861 93.5068C189.676 93.6885 190.335 93.9053 190.839 94.1572C191.343 94.4092 191.715 94.7139 191.955 95.0713C192.201 95.4229 192.324 95.8535 192.324 96.3633C192.324 97.2129 191.984 97.8955 191.305 98.4111C190.625 98.9209 189.743 99.1758 188.659 99.1758C187.897 99.1758 187.224 99.041 186.638 98.7715C186.052 98.502 185.592 98.127 185.258 97.6465C184.93 97.1602 184.766 96.6357 184.766 96.0732H186.392C186.421 96.6182 186.638 97.0518 187.042 97.374C187.452 97.6904 187.991 97.8486 188.659 97.8486C189.274 97.8486 189.767 97.7256 190.136 97.4795C190.511 97.2275 190.698 96.8936 190.698 96.4775Z" fill="black"/>
<path d="M2.00001 102.545C1.99999 86.6871 2.00001 90.4 2.00002 102.563C2.07662 140.265 254 137.218 254 102.545V171.902C254 204.755 1.9999 205.972 2.00001 171.902C2.00007 152.155 2.00005 119.33 2.00002 102.563C2.00001 102.557 2.00001 102.551 2.00001 102.545Z" fill="#79E247" fill-opacity="0.5" stroke="#79E247" stroke-opacity="0.5" stroke-width="3"/>
<path d="M90.9814 163V150.203H94.5938C95.707 150.203 96.6914 150.449 97.5469 150.941C98.4023 151.434 99.0615 152.134 99.5244 153.042C99.9932 153.95 100.23 154.993 100.236 156.171V156.988C100.236 158.195 100.002 159.253 99.5332 160.161C99.0703 161.069 98.4053 161.767 97.5381 162.253C96.6768 162.739 95.6719 162.988 94.5234 163H90.9814ZM92.6689 151.592V161.62H94.4443C95.7451 161.62 96.7559 161.216 97.4766 160.407C98.2031 159.599 98.5664 158.447 98.5664 156.953V156.206C98.5664 154.753 98.2236 153.625 97.5381 152.822C96.8584 152.014 95.8916 151.604 94.6377 151.592H92.6689ZM108.41 163C108.316 162.812 108.24 162.479 108.182 161.998C107.426 162.783 106.523 163.176 105.475 163.176C104.537 163.176 103.767 162.912 103.163 162.385C102.565 161.852 102.267 161.178 102.267 160.363C102.267 159.373 102.642 158.605 103.392 158.061C104.147 157.51 105.208 157.234 106.573 157.234H108.155V156.487C108.155 155.919 107.985 155.468 107.646 155.134C107.306 154.794 106.805 154.624 106.143 154.624C105.562 154.624 105.076 154.771 104.684 155.063C104.291 155.356 104.095 155.711 104.095 156.127H102.46C102.46 155.652 102.627 155.195 102.961 154.756C103.301 154.311 103.758 153.959 104.332 153.701C104.912 153.443 105.548 153.314 106.239 153.314C107.335 153.314 108.193 153.59 108.814 154.141C109.436 154.686 109.758 155.438 109.781 156.399V160.776C109.781 161.649 109.893 162.344 110.115 162.859V163H108.41ZM105.712 161.761C106.222 161.761 106.705 161.629 107.162 161.365C107.619 161.102 107.95 160.759 108.155 160.337V158.386H106.881C104.889 158.386 103.893 158.969 103.893 160.135C103.893 160.645 104.062 161.043 104.402 161.33C104.742 161.617 105.179 161.761 105.712 161.761ZM114.536 151.188V153.49H116.312V154.747H114.536V160.645C114.536 161.025 114.615 161.312 114.773 161.506C114.932 161.693 115.201 161.787 115.582 161.787C115.77 161.787 116.027 161.752 116.355 161.682V163C115.928 163.117 115.512 163.176 115.107 163.176C114.381 163.176 113.833 162.956 113.464 162.517C113.095 162.077 112.91 161.453 112.91 160.645V154.747H111.179V153.49H112.91V151.188H114.536ZM124.09 163C123.996 162.812 123.92 162.479 123.861 161.998C123.105 162.783 122.203 163.176 121.154 163.176C120.217 163.176 119.446 162.912 118.843 162.385C118.245 161.852 117.946 161.178 117.946 160.363C117.946 159.373 118.321 158.605 119.071 158.061C119.827 157.51 120.888 157.234 122.253 157.234H123.835V156.487C123.835 155.919 123.665 155.468 123.325 155.134C122.985 154.794 122.484 154.624 121.822 154.624C121.242 154.624 120.756 154.771 120.363 155.063C119.971 155.356 119.774 155.711 119.774 156.127H118.14C118.14 155.652 118.307 155.195 118.641 154.756C118.98 154.311 119.438 153.959 120.012 153.701C120.592 153.443 121.228 153.314 121.919 153.314C123.015 153.314 123.873 153.59 124.494 154.141C125.115 154.686 125.438 155.438 125.461 156.399V160.776C125.461 161.649 125.572 162.344 125.795 162.859V163H124.09ZM121.392 161.761C121.901 161.761 122.385 161.629 122.842 161.365C123.299 161.102 123.63 160.759 123.835 160.337V158.386H122.561C120.568 158.386 119.572 158.969 119.572 160.135C119.572 160.645 119.742 161.043 120.082 161.33C120.422 161.617 120.858 161.761 121.392 161.761ZM136.061 158.351C136.061 159.804 135.727 160.973 135.059 161.857C134.391 162.736 133.494 163.176 132.369 163.176C131.168 163.176 130.239 162.751 129.583 161.901L129.504 163H128.01V149.5H129.636V154.536C130.292 153.722 131.197 153.314 132.352 153.314C133.506 153.314 134.411 153.751 135.067 154.624C135.729 155.497 136.061 156.692 136.061 158.21V158.351ZM134.435 158.166C134.435 157.059 134.221 156.203 133.793 155.6C133.365 154.996 132.75 154.694 131.947 154.694C130.875 154.694 130.104 155.192 129.636 156.188V160.302C130.134 161.298 130.91 161.796 131.965 161.796C132.744 161.796 133.351 161.494 133.784 160.891C134.218 160.287 134.435 159.379 134.435 158.166ZM143.988 163C143.895 162.812 143.818 162.479 143.76 161.998C143.004 162.783 142.102 163.176 141.053 163.176C140.115 163.176 139.345 162.912 138.741 162.385C138.144 161.852 137.845 161.178 137.845 160.363C137.845 159.373 138.22 158.605 138.97 158.061C139.726 157.51 140.786 157.234 142.151 157.234H143.733V156.487C143.733 155.919 143.563 155.468 143.224 155.134C142.884 154.794 142.383 154.624 141.721 154.624C141.141 154.624 140.654 154.771 140.262 155.063C139.869 155.356 139.673 155.711 139.673 156.127H138.038C138.038 155.652 138.205 155.195 138.539 154.756C138.879 154.311 139.336 153.959 139.91 153.701C140.49 153.443 141.126 153.314 141.817 153.314C142.913 153.314 143.771 153.59 144.393 154.141C145.014 154.686 145.336 155.438 145.359 156.399V160.776C145.359 161.649 145.471 162.344 145.693 162.859V163H143.988ZM141.29 161.761C141.8 161.761 142.283 161.629 142.74 161.365C143.197 161.102 143.528 160.759 143.733 160.337V158.386H142.459C140.467 158.386 139.471 158.969 139.471 160.135C139.471 160.645 139.641 161.043 139.98 161.33C140.32 161.617 140.757 161.761 141.29 161.761ZM153.445 160.478C153.445 160.038 153.278 159.698 152.944 159.458C152.616 159.212 152.039 159.001 151.213 158.825C150.393 158.649 149.739 158.438 149.253 158.192C148.772 157.946 148.415 157.653 148.181 157.313C147.952 156.974 147.838 156.569 147.838 156.101C147.838 155.321 148.166 154.662 148.822 154.123C149.484 153.584 150.328 153.314 151.354 153.314C152.432 153.314 153.305 153.593 153.973 154.149C154.646 154.706 154.983 155.418 154.983 156.285H153.349C153.349 155.84 153.158 155.456 152.777 155.134C152.402 154.812 151.928 154.65 151.354 154.65C150.762 154.65 150.299 154.779 149.965 155.037C149.631 155.295 149.464 155.632 149.464 156.048C149.464 156.44 149.619 156.736 149.93 156.936C150.24 157.135 150.8 157.325 151.608 157.507C152.423 157.688 153.082 157.905 153.586 158.157C154.09 158.409 154.462 158.714 154.702 159.071C154.948 159.423 155.071 159.854 155.071 160.363C155.071 161.213 154.731 161.896 154.052 162.411C153.372 162.921 152.49 163.176 151.406 163.176C150.645 163.176 149.971 163.041 149.385 162.771C148.799 162.502 148.339 162.127 148.005 161.646C147.677 161.16 147.513 160.636 147.513 160.073H149.139C149.168 160.618 149.385 161.052 149.789 161.374C150.199 161.69 150.738 161.849 151.406 161.849C152.021 161.849 152.514 161.726 152.883 161.479C153.258 161.228 153.445 160.894 153.445 160.478ZM161.136 163.176C159.847 163.176 158.798 162.754 157.989 161.91C157.181 161.061 156.776 159.927 156.776 158.509V158.21C156.776 157.267 156.955 156.426 157.312 155.688C157.676 154.943 158.18 154.363 158.824 153.947C159.475 153.525 160.178 153.314 160.934 153.314C162.17 153.314 163.131 153.722 163.816 154.536C164.502 155.351 164.845 156.517 164.845 158.034V158.711H158.402C158.426 159.648 158.698 160.407 159.22 160.987C159.747 161.562 160.415 161.849 161.224 161.849C161.798 161.849 162.284 161.731 162.683 161.497C163.081 161.263 163.43 160.952 163.729 160.565L164.722 161.339C163.925 162.563 162.729 163.176 161.136 163.176ZM160.934 154.65C160.277 154.65 159.727 154.891 159.281 155.371C158.836 155.846 158.561 156.514 158.455 157.375H163.219V157.252C163.172 156.426 162.949 155.787 162.551 155.336C162.152 154.879 161.613 154.65 160.934 154.65Z" fill="black"/>
<path d="M3.00001 171.545C2.99999 155.687 3.00001 159.4 3.00002 171.563C3.07662 209.265 255 206.218 255 171.545V240.902C255 273.755 2.9999 274.972 3.00001 240.902C3.00007 221.155 3.00005 188.33 3.00002 171.563C3.00001 171.557 3.00001 171.551 3.00001 171.545Z" fill="#E24759" fill-opacity="0.5" stroke="#E24759" stroke-opacity="0.5" stroke-width="3"/>
<path d="M94.8799 219.203L99.0635 229.645L103.247 219.203H105.436V232H103.748V227.017L103.906 221.638L99.7051 232H98.4131L94.2207 221.664L94.3877 227.017V232H92.7002V219.203H94.8799ZM112.106 232.176C110.817 232.176 109.769 231.754 108.96 230.91C108.151 230.061 107.747 228.927 107.747 227.509V227.21C107.747 226.267 107.926 225.426 108.283 224.688C108.646 223.943 109.15 223.363 109.795 222.947C110.445 222.525 111.148 222.314 111.904 222.314C113.141 222.314 114.102 222.722 114.787 223.536C115.473 224.351 115.815 225.517 115.815 227.034V227.711H109.373C109.396 228.648 109.669 229.407 110.19 229.987C110.718 230.562 111.386 230.849 112.194 230.849C112.769 230.849 113.255 230.731 113.653 230.497C114.052 230.263 114.4 229.952 114.699 229.565L115.692 230.339C114.896 231.563 113.7 232.176 112.106 232.176ZM111.904 223.65C111.248 223.65 110.697 223.891 110.252 224.371C109.807 224.846 109.531 225.514 109.426 226.375H114.189V226.252C114.143 225.426 113.92 224.787 113.521 224.336C113.123 223.879 112.584 223.65 111.904 223.65ZM119.911 220.188V222.49H121.687V223.747H119.911V229.645C119.911 230.025 119.99 230.312 120.148 230.506C120.307 230.693 120.576 230.787 120.957 230.787C121.145 230.787 121.402 230.752 121.73 230.682V232C121.303 232.117 120.887 232.176 120.482 232.176C119.756 232.176 119.208 231.956 118.839 231.517C118.47 231.077 118.285 230.453 118.285 229.645V223.747H116.554V222.49H118.285V220.188H119.911ZM129.465 232C129.371 231.812 129.295 231.479 129.236 230.998C128.48 231.783 127.578 232.176 126.529 232.176C125.592 232.176 124.821 231.912 124.218 231.385C123.62 230.852 123.321 230.178 123.321 229.363C123.321 228.373 123.696 227.605 124.446 227.061C125.202 226.51 126.263 226.234 127.628 226.234H129.21V225.487C129.21 224.919 129.04 224.468 128.7 224.134C128.36 223.794 127.859 223.624 127.197 223.624C126.617 223.624 126.131 223.771 125.738 224.063C125.346 224.356 125.149 224.711 125.149 225.127H123.515C123.515 224.652 123.682 224.195 124.016 223.756C124.355 223.311 124.812 222.959 125.387 222.701C125.967 222.443 126.603 222.314 127.294 222.314C128.39 222.314 129.248 222.59 129.869 223.141C130.49 223.686 130.812 224.438 130.836 225.399V229.776C130.836 230.649 130.947 231.344 131.17 231.859V232H129.465ZM126.767 230.761C127.276 230.761 127.76 230.629 128.217 230.365C128.674 230.102 129.005 229.759 129.21 229.337V227.386H127.936C125.943 227.386 124.947 227.969 124.947 229.135C124.947 229.645 125.117 230.043 125.457 230.33C125.797 230.617 126.233 230.761 126.767 230.761ZM132.989 227.166C132.989 225.707 133.335 224.535 134.026 223.65C134.718 222.76 135.623 222.314 136.742 222.314C137.855 222.314 138.737 222.695 139.388 223.457V218.5H141.014V232H139.52L139.44 230.98C138.79 231.777 137.885 232.176 136.725 232.176C135.623 232.176 134.724 231.725 134.026 230.822C133.335 229.92 132.989 228.742 132.989 227.289V227.166ZM134.615 227.351C134.615 228.429 134.838 229.272 135.283 229.882C135.729 230.491 136.344 230.796 137.129 230.796C138.16 230.796 138.913 230.333 139.388 229.407V225.039C138.901 224.143 138.154 223.694 137.146 223.694C136.35 223.694 135.729 224.002 135.283 224.617C134.838 225.232 134.615 226.144 134.615 227.351ZM149.416 232C149.322 231.812 149.246 231.479 149.188 230.998C148.432 231.783 147.529 232.176 146.48 232.176C145.543 232.176 144.772 231.912 144.169 231.385C143.571 230.852 143.272 230.178 143.272 229.363C143.272 228.373 143.647 227.605 144.397 227.061C145.153 226.51 146.214 226.234 147.579 226.234H149.161V225.487C149.161 224.919 148.991 224.468 148.651 224.134C148.312 223.794 147.811 223.624 147.148 223.624C146.568 223.624 146.082 223.771 145.689 224.063C145.297 224.356 145.101 224.711 145.101 225.127H143.466C143.466 224.652 143.633 224.195 143.967 223.756C144.307 223.311 144.764 222.959 145.338 222.701C145.918 222.443 146.554 222.314 147.245 222.314C148.341 222.314 149.199 222.59 149.82 223.141C150.441 223.686 150.764 224.438 150.787 225.399V229.776C150.787 230.649 150.898 231.344 151.121 231.859V232H149.416ZM146.718 230.761C147.228 230.761 147.711 230.629 148.168 230.365C148.625 230.102 148.956 229.759 149.161 229.337V227.386H147.887C145.895 227.386 144.898 227.969 144.898 229.135C144.898 229.645 145.068 230.043 145.408 230.33C145.748 230.617 146.185 230.761 146.718 230.761ZM155.542 220.188V222.49H157.317V223.747H155.542V229.645C155.542 230.025 155.621 230.312 155.779 230.506C155.938 230.693 156.207 230.787 156.588 230.787C156.775 230.787 157.033 230.752 157.361 230.682V232C156.934 232.117 156.518 232.176 156.113 232.176C155.387 232.176 154.839 231.956 154.47 231.517C154.101 231.077 153.916 230.453 153.916 229.645V223.747H152.185V222.49H153.916V220.188H155.542ZM165.096 232C165.002 231.812 164.926 231.479 164.867 230.998C164.111 231.783 163.209 232.176 162.16 232.176C161.223 232.176 160.452 231.912 159.849 231.385C159.251 230.852 158.952 230.178 158.952 229.363C158.952 228.373 159.327 227.605 160.077 227.061C160.833 226.51 161.894 226.234 163.259 226.234H164.841V225.487C164.841 224.919 164.671 224.468 164.331 224.134C163.991 223.794 163.49 223.624 162.828 223.624C162.248 223.624 161.762 223.771 161.369 224.063C160.977 224.356 160.78 224.711 160.78 225.127H159.146C159.146 224.652 159.312 224.195 159.646 223.756C159.986 223.311 160.443 222.959 161.018 222.701C161.598 222.443 162.233 222.314 162.925 222.314C164.021 222.314 164.879 222.59 165.5 223.141C166.121 223.686 166.443 224.438 166.467 225.399V229.776C166.467 230.649 166.578 231.344 166.801 231.859V232H165.096ZM162.397 230.761C162.907 230.761 163.391 230.629 163.848 230.365C164.305 230.102 164.636 229.759 164.841 229.337V227.386H163.566C161.574 227.386 160.578 227.969 160.578 229.135C160.578 229.645 160.748 230.043 161.088 230.33C161.428 230.617 161.864 230.761 162.397 230.761Z" fill="black"/>
<path d="M341.708 294.309C341.708 283.28 341.708 285.863 341.708 294.321C341.762 320.542 520 318.423 520 294.309V342.545C520 365.393 341.707 366.24 341.708 342.545C341.708 328.812 341.708 305.982 341.708 294.321C341.708 294.317 341.708 294.313 341.708 294.309Z" fill="#FDBF48" fill-opacity="0.5" stroke="#FDBF48" stroke-opacity="0.5" stroke-width="3"/>
<path d="M380.067 336.32H377.395V340.922H375.887V329.547H379.653C380.934 329.547 381.918 329.838 382.606 330.422C383.299 331.005 383.645 331.854 383.645 332.969C383.645 333.677 383.452 334.294 383.067 334.82C382.687 335.346 382.155 335.74 381.473 336L384.145 340.828V340.922H382.536L380.067 336.32ZM377.395 335.094H379.7C380.444 335.094 381.036 334.901 381.473 334.516C381.916 334.13 382.137 333.615 382.137 332.969C382.137 332.266 381.926 331.726 381.504 331.351C381.088 330.976 380.484 330.786 379.692 330.781H377.395V335.094ZM389.036 341.078C387.89 341.078 386.958 340.703 386.239 339.953C385.52 339.198 385.161 338.19 385.161 336.93V336.664C385.161 335.825 385.319 335.078 385.637 334.422C385.96 333.76 386.408 333.245 386.981 332.875C387.559 332.5 388.184 332.312 388.856 332.312C389.955 332.312 390.809 332.674 391.418 333.398C392.028 334.122 392.333 335.159 392.333 336.508V337.109H386.606C386.627 337.943 386.869 338.617 387.333 339.133C387.801 339.643 388.395 339.898 389.114 339.898C389.624 339.898 390.056 339.794 390.411 339.586C390.765 339.378 391.075 339.101 391.34 338.758L392.223 339.445C391.515 340.534 390.452 341.078 389.036 341.078ZM388.856 333.5C388.273 333.5 387.783 333.713 387.387 334.141C386.991 334.562 386.747 335.156 386.653 335.922H390.887V335.812C390.846 335.078 390.648 334.51 390.293 334.109C389.939 333.703 389.46 333.5 388.856 333.5ZM401.153 336.789C401.153 338.075 400.859 339.112 400.27 339.898C399.681 340.685 398.885 341.078 397.879 341.078C396.853 341.078 396.046 340.753 395.458 340.101V344.172H394.012V332.469H395.333L395.403 333.406C395.991 332.677 396.809 332.312 397.856 332.312C398.872 332.312 399.674 332.695 400.262 333.461C400.856 334.226 401.153 335.292 401.153 336.656V336.789ZM399.708 336.625C399.708 335.672 399.504 334.919 399.098 334.367C398.692 333.815 398.135 333.539 397.426 333.539C396.551 333.539 395.895 333.927 395.458 334.703V338.742C395.89 339.513 396.551 339.898 397.442 339.898C398.135 339.898 398.684 339.625 399.09 339.078C399.502 338.526 399.708 337.708 399.708 336.625ZM402.614 336.617C402.614 335.789 402.775 335.044 403.098 334.383C403.426 333.721 403.879 333.211 404.458 332.851C405.041 332.492 405.705 332.312 406.45 332.312C407.601 332.312 408.53 332.711 409.239 333.508C409.952 334.305 410.309 335.365 410.309 336.687V336.789C410.309 337.612 410.15 338.351 409.833 339.008C409.52 339.659 409.069 340.167 408.481 340.531C407.898 340.896 407.226 341.078 406.465 341.078C405.319 341.078 404.39 340.68 403.676 339.883C402.968 339.086 402.614 338.031 402.614 336.719V336.617ZM404.067 336.789C404.067 337.726 404.283 338.479 404.715 339.047C405.153 339.615 405.736 339.898 406.465 339.898C407.2 339.898 407.783 339.612 408.215 339.039C408.648 338.461 408.864 337.654 408.864 336.617C408.864 335.69 408.642 334.94 408.2 334.367C407.762 333.789 407.179 333.5 406.45 333.5C405.736 333.5 405.161 333.784 404.723 334.351C404.286 334.919 404.067 335.732 404.067 336.789ZM417.043 338.68C417.043 338.289 416.895 337.987 416.598 337.773C416.306 337.555 415.793 337.367 415.059 337.211C414.33 337.055 413.749 336.867 413.317 336.648C412.89 336.43 412.572 336.169 412.364 335.867C412.161 335.565 412.059 335.206 412.059 334.789C412.059 334.096 412.351 333.51 412.934 333.031C413.523 332.552 414.273 332.312 415.184 332.312C416.142 332.312 416.918 332.56 417.512 333.055C418.111 333.549 418.411 334.182 418.411 334.953H416.958C416.958 334.557 416.788 334.216 416.45 333.93C416.116 333.643 415.694 333.5 415.184 333.5C414.658 333.5 414.247 333.615 413.95 333.844C413.653 334.073 413.504 334.372 413.504 334.742C413.504 335.091 413.642 335.354 413.918 335.531C414.194 335.708 414.692 335.878 415.411 336.039C416.135 336.2 416.721 336.393 417.168 336.617C417.616 336.841 417.947 337.112 418.161 337.43C418.379 337.742 418.489 338.125 418.489 338.578C418.489 339.333 418.187 339.94 417.583 340.398C416.978 340.851 416.194 341.078 415.231 341.078C414.554 341.078 413.955 340.958 413.434 340.719C412.913 340.479 412.504 340.146 412.208 339.719C411.916 339.286 411.77 338.82 411.77 338.32H413.215C413.241 338.805 413.434 339.19 413.793 339.476C414.158 339.758 414.637 339.898 415.231 339.898C415.778 339.898 416.215 339.789 416.543 339.57C416.877 339.346 417.043 339.049 417.043 338.68ZM421.942 340.922H420.497V332.469H421.942V340.922ZM420.379 330.226C420.379 329.992 420.45 329.794 420.59 329.633C420.736 329.471 420.95 329.391 421.231 329.391C421.512 329.391 421.726 329.471 421.872 329.633C422.017 329.794 422.09 329.992 422.09 330.226C422.09 330.461 422.017 330.656 421.872 330.812C421.726 330.969 421.512 331.047 421.231 331.047C420.95 331.047 420.736 330.969 420.59 330.812C420.45 330.656 420.379 330.461 420.379 330.226ZM426.223 330.422V332.469H427.801V333.586H426.223V338.828C426.223 339.167 426.293 339.422 426.434 339.594C426.575 339.76 426.814 339.844 427.153 339.844C427.319 339.844 427.549 339.812 427.84 339.75V340.922C427.46 341.026 427.09 341.078 426.731 341.078C426.085 341.078 425.598 340.883 425.27 340.492C424.942 340.101 424.778 339.547 424.778 338.828V333.586H423.239V332.469H424.778V330.422H426.223ZM428.958 336.617C428.958 335.789 429.119 335.044 429.442 334.383C429.77 333.721 430.223 333.211 430.801 332.851C431.385 332.492 432.049 332.312 432.793 332.312C433.944 332.312 434.874 332.711 435.583 333.508C436.296 334.305 436.653 335.365 436.653 336.687V336.789C436.653 337.612 436.494 338.351 436.176 339.008C435.864 339.659 435.413 340.167 434.825 340.531C434.241 340.896 433.569 341.078 432.809 341.078C431.663 341.078 430.734 340.68 430.02 339.883C429.312 339.086 428.958 338.031 428.958 336.719V336.617ZM430.411 336.789C430.411 337.726 430.627 338.479 431.059 339.047C431.497 339.615 432.08 339.898 432.809 339.898C433.543 339.898 434.127 339.612 434.559 339.039C434.991 338.461 435.208 337.654 435.208 336.617C435.208 335.69 434.986 334.94 434.543 334.367C434.106 333.789 433.523 333.5 432.793 333.5C432.08 333.5 431.504 333.784 431.067 334.351C430.629 334.919 430.411 335.732 430.411 336.789ZM442.551 333.766C442.333 333.729 442.096 333.711 441.84 333.711C440.892 333.711 440.249 334.115 439.911 334.922V340.922H438.465V332.469H439.872L439.895 333.445C440.369 332.69 441.041 332.312 441.911 332.312C442.192 332.312 442.405 332.349 442.551 332.422V333.766ZM446.793 338.805L448.762 332.469H450.309L446.911 342.226C446.385 343.633 445.549 344.336 444.403 344.336L444.129 344.312L443.59 344.211V343.039L443.981 343.07C444.471 343.07 444.851 342.971 445.122 342.773C445.398 342.575 445.624 342.213 445.801 341.687L446.122 340.828L443.106 332.469H444.684L446.793 338.805ZM462.075 335.898H457.301V340.922H455.801V329.547H462.848V330.781H457.301V334.672H462.075V335.898ZM465.989 340.922H464.543V332.469H465.989V340.922ZM464.426 330.226C464.426 329.992 464.497 329.794 464.637 329.633C464.783 329.471 464.997 329.391 465.278 329.391C465.559 329.391 465.773 329.471 465.918 329.633C466.064 329.794 466.137 329.992 466.137 330.226C466.137 330.461 466.064 330.656 465.918 330.812C465.773 330.969 465.559 331.047 465.278 331.047C464.997 331.047 464.783 330.969 464.637 330.812C464.497 330.656 464.426 330.461 464.426 330.226ZM469.879 340.922H468.434V328.922H469.879V340.922ZM475.708 341.078C474.562 341.078 473.629 340.703 472.911 339.953C472.192 339.198 471.833 338.19 471.833 336.93V336.664C471.833 335.825 471.991 335.078 472.309 334.422C472.632 333.76 473.08 333.245 473.653 332.875C474.231 332.5 474.856 332.312 475.528 332.312C476.627 332.312 477.481 332.674 478.09 333.398C478.7 334.122 479.004 335.159 479.004 336.508V337.109H473.278C473.299 337.943 473.541 338.617 474.004 339.133C474.473 339.643 475.067 339.898 475.786 339.898C476.296 339.898 476.728 339.794 477.083 339.586C477.437 339.378 477.747 339.101 478.012 338.758L478.895 339.445C478.187 340.534 477.124 341.078 475.708 341.078ZM475.528 333.5C474.944 333.5 474.455 333.713 474.059 334.141C473.663 334.562 473.418 335.156 473.325 335.922H477.559V335.812C477.517 335.078 477.319 334.51 476.965 334.109C476.611 333.703 476.132 333.5 475.528 333.5ZM485.606 338.68C485.606 338.289 485.458 337.987 485.161 337.773C484.869 337.555 484.356 337.367 483.622 337.211C482.892 337.055 482.312 336.867 481.879 336.648C481.452 336.43 481.135 336.169 480.926 335.867C480.723 335.565 480.622 335.206 480.622 334.789C480.622 334.096 480.913 333.51 481.497 333.031C482.085 332.552 482.835 332.312 483.747 332.312C484.705 332.312 485.481 332.56 486.075 333.055C486.674 333.549 486.973 334.182 486.973 334.953H485.52C485.52 334.557 485.351 334.216 485.012 333.93C484.679 333.643 484.257 333.5 483.747 333.5C483.221 333.5 482.809 333.615 482.512 333.844C482.215 334.073 482.067 334.372 482.067 334.742C482.067 335.091 482.205 335.354 482.481 335.531C482.757 335.708 483.254 335.878 483.973 336.039C484.697 336.2 485.283 336.393 485.731 336.617C486.179 336.841 486.51 337.112 486.723 337.43C486.942 337.742 487.051 338.125 487.051 338.578C487.051 339.333 486.749 339.94 486.145 340.398C485.541 340.851 484.757 341.078 483.793 341.078C483.116 341.078 482.517 340.958 481.997 340.719C481.476 340.479 481.067 340.146 480.77 339.719C480.478 339.286 480.333 338.82 480.333 338.32H481.778C481.804 338.805 481.997 339.19 482.356 339.476C482.721 339.758 483.2 339.898 483.793 339.898C484.34 339.898 484.778 339.789 485.106 339.57C485.439 339.346 485.606 339.049 485.606 338.68Z" fill="black"/>
<path d="M341.708 246.322C341.708 235.293 341.708 237.875 341.708 246.334C341.762 272.554 520 270.436 520 246.322V294.557C520 317.406 341.707 318.252 341.708 294.557C341.708 280.824 341.708 257.995 341.708 246.334C341.708 246.33 341.708 246.326 341.708 246.322Z" fill="#79E247" fill-opacity="0.5" stroke="#79E247" stroke-opacity="0.5" stroke-width="3"/>
<path d="M398.039 291.543V280.168H401.25C402.24 280.168 403.115 280.387 403.875 280.824C404.635 281.262 405.221 281.884 405.633 282.692C406.049 283.499 406.26 284.426 406.266 285.473V286.199C406.266 287.272 406.057 288.212 405.641 289.02C405.229 289.827 404.638 290.447 403.867 290.879C403.102 291.311 402.208 291.533 401.188 291.543H398.039ZM399.539 281.403V290.317H401.117C402.273 290.317 403.172 289.957 403.812 289.239C404.458 288.52 404.781 287.496 404.781 286.168V285.504C404.781 284.212 404.477 283.21 403.867 282.496C403.263 281.778 402.404 281.413 401.289 281.403H399.539ZM413.531 291.543C413.448 291.377 413.38 291.08 413.328 290.653C412.656 291.351 411.854 291.699 410.922 291.699C410.089 291.699 409.404 291.465 408.867 290.996C408.336 290.522 408.07 289.923 408.07 289.199C408.07 288.319 408.404 287.637 409.07 287.153C409.742 286.663 410.685 286.418 411.898 286.418H413.305V285.754C413.305 285.249 413.154 284.848 412.852 284.551C412.549 284.249 412.104 284.098 411.516 284.098C411 284.098 410.568 284.228 410.219 284.489C409.87 284.749 409.695 285.064 409.695 285.434H408.242C408.242 285.012 408.391 284.606 408.688 284.215C408.99 283.819 409.396 283.507 409.906 283.278C410.422 283.048 410.987 282.934 411.602 282.934C412.576 282.934 413.339 283.179 413.891 283.668C414.443 284.153 414.729 284.822 414.75 285.676V289.567C414.75 290.343 414.849 290.96 415.047 291.418V291.543H413.531ZM411.133 290.442C411.586 290.442 412.016 290.324 412.422 290.09C412.828 289.856 413.122 289.551 413.305 289.176V287.442H412.172C410.401 287.442 409.516 287.96 409.516 288.996C409.516 289.449 409.667 289.804 409.969 290.059C410.271 290.314 410.659 290.442 411.133 290.442ZM418.977 281.043V283.09H420.555V284.207H418.977V289.449C418.977 289.788 419.047 290.043 419.188 290.215C419.328 290.382 419.568 290.465 419.906 290.465C420.073 290.465 420.302 290.434 420.594 290.371V291.543C420.214 291.647 419.844 291.699 419.484 291.699C418.839 291.699 418.352 291.504 418.023 291.114C417.695 290.723 417.531 290.168 417.531 289.449V284.207H415.992V283.09H417.531V281.043H418.977ZM427.469 291.543C427.385 291.377 427.318 291.08 427.266 290.653C426.594 291.351 425.792 291.699 424.859 291.699C424.026 291.699 423.341 291.465 422.805 290.996C422.273 290.522 422.008 289.923 422.008 289.199C422.008 288.319 422.341 287.637 423.008 287.153C423.68 286.663 424.622 286.418 425.836 286.418H427.242V285.754C427.242 285.249 427.091 284.848 426.789 284.551C426.487 284.249 426.042 284.098 425.453 284.098C424.938 284.098 424.505 284.228 424.156 284.489C423.807 284.749 423.633 285.064 423.633 285.434H422.18C422.18 285.012 422.328 284.606 422.625 284.215C422.927 283.819 423.333 283.507 423.844 283.278C424.359 283.048 424.924 282.934 425.539 282.934C426.513 282.934 427.276 283.179 427.828 283.668C428.38 284.153 428.667 284.822 428.688 285.676V289.567C428.688 290.343 428.786 290.96 428.984 291.418V291.543H427.469ZM425.07 290.442C425.523 290.442 425.953 290.324 426.359 290.09C426.766 289.856 427.06 289.551 427.242 289.176V287.442H426.109C424.339 287.442 423.453 287.96 423.453 288.996C423.453 289.449 423.604 289.804 423.906 290.059C424.208 290.314 424.596 290.442 425.07 290.442ZM438.109 287.41C438.109 288.702 437.812 289.741 437.219 290.528C436.625 291.309 435.828 291.699 434.828 291.699C433.76 291.699 432.935 291.322 432.352 290.567L432.281 291.543H430.953V279.543H432.398V284.02C432.982 283.296 433.786 282.934 434.812 282.934C435.839 282.934 436.643 283.322 437.227 284.098C437.815 284.874 438.109 285.936 438.109 287.285V287.41ZM436.664 287.246C436.664 286.262 436.474 285.502 436.094 284.965C435.714 284.429 435.167 284.16 434.453 284.16C433.5 284.16 432.815 284.603 432.398 285.489V289.145C432.841 290.03 433.531 290.473 434.469 290.473C435.161 290.473 435.701 290.205 436.086 289.668C436.471 289.132 436.664 288.324 436.664 287.246ZM445.156 291.543C445.073 291.377 445.005 291.08 444.953 290.653C444.281 291.351 443.479 291.699 442.547 291.699C441.714 291.699 441.029 291.465 440.492 290.996C439.961 290.522 439.695 289.923 439.695 289.199C439.695 288.319 440.029 287.637 440.695 287.153C441.367 286.663 442.31 286.418 443.523 286.418H444.93V285.754C444.93 285.249 444.779 284.848 444.477 284.551C444.174 284.249 443.729 284.098 443.141 284.098C442.625 284.098 442.193 284.228 441.844 284.489C441.495 284.749 441.32 285.064 441.32 285.434H439.867C439.867 285.012 440.016 284.606 440.312 284.215C440.615 283.819 441.021 283.507 441.531 283.278C442.047 283.048 442.612 282.934 443.227 282.934C444.201 282.934 444.964 283.179 445.516 283.668C446.068 284.153 446.354 284.822 446.375 285.676V289.567C446.375 290.343 446.474 290.96 446.672 291.418V291.543H445.156ZM442.758 290.442C443.211 290.442 443.641 290.324 444.047 290.09C444.453 289.856 444.747 289.551 444.93 289.176V287.442H443.797C442.026 287.442 441.141 287.96 441.141 288.996C441.141 289.449 441.292 289.804 441.594 290.059C441.896 290.314 442.284 290.442 442.758 290.442ZM453.562 289.301C453.562 288.91 453.414 288.608 453.117 288.395C452.826 288.176 452.312 287.989 451.578 287.832C450.849 287.676 450.268 287.489 449.836 287.27C449.409 287.051 449.091 286.791 448.883 286.489C448.68 286.186 448.578 285.827 448.578 285.41C448.578 284.718 448.87 284.132 449.453 283.653C450.042 283.173 450.792 282.934 451.703 282.934C452.661 282.934 453.438 283.181 454.031 283.676C454.63 284.171 454.93 284.804 454.93 285.574H453.477C453.477 285.179 453.307 284.837 452.969 284.551C452.635 284.265 452.214 284.121 451.703 284.121C451.177 284.121 450.766 284.236 450.469 284.465C450.172 284.694 450.023 284.994 450.023 285.364C450.023 285.712 450.161 285.976 450.438 286.153C450.714 286.33 451.211 286.499 451.93 286.66C452.654 286.822 453.24 287.015 453.688 287.239C454.135 287.462 454.466 287.733 454.68 288.051C454.898 288.364 455.008 288.746 455.008 289.199C455.008 289.955 454.706 290.561 454.102 291.02C453.497 291.473 452.714 291.699 451.75 291.699C451.073 291.699 450.474 291.58 449.953 291.34C449.432 291.101 449.023 290.767 448.727 290.34C448.435 289.908 448.289 289.442 448.289 288.942H449.734C449.76 289.426 449.953 289.811 450.312 290.098C450.677 290.379 451.156 290.52 451.75 290.52C452.297 290.52 452.734 290.41 453.062 290.192C453.396 289.968 453.562 289.671 453.562 289.301ZM460.398 291.699C459.253 291.699 458.32 291.324 457.602 290.574C456.883 289.819 456.523 288.811 456.523 287.551V287.285C456.523 286.447 456.682 285.699 457 285.043C457.323 284.382 457.771 283.866 458.344 283.496C458.922 283.121 459.547 282.934 460.219 282.934C461.318 282.934 462.172 283.296 462.781 284.02C463.391 284.744 463.695 285.78 463.695 287.129V287.731H457.969C457.99 288.564 458.232 289.239 458.695 289.754C459.164 290.265 459.758 290.52 460.477 290.52C460.987 290.52 461.419 290.416 461.773 290.207C462.128 289.999 462.438 289.723 462.703 289.379L463.586 290.067C462.878 291.155 461.815 291.699 460.398 291.699ZM460.219 284.121C459.635 284.121 459.146 284.335 458.75 284.762C458.354 285.184 458.109 285.778 458.016 286.543H462.25V286.434C462.208 285.699 462.01 285.132 461.656 284.731C461.302 284.324 460.823 284.121 460.219 284.121Z" fill="black"/>
<path d="M341 198.334C341 187.305 341 189.887 341 198.346C341.054 224.567 519.292 222.448 519.292 198.334V246.57C519.292 269.418 341 270.264 341 246.57C341 232.837 341 210.007 341 198.346C341 198.342 341 198.338 341 198.334Z" fill="#E24759" fill-opacity="0.5" stroke="#E24759" stroke-opacity="0.5" stroke-width="3"/>
<path d="M399.727 232.181L403.445 241.462L407.164 232.181H409.109V243.556H407.609V239.126L407.75 234.345L404.016 243.556H402.867L399.141 234.368L399.289 239.126V243.556H397.789V232.181H399.727ZM415.039 243.712C413.893 243.712 412.961 243.337 412.242 242.587C411.523 241.832 411.164 240.824 411.164 239.563V239.298C411.164 238.459 411.323 237.712 411.641 237.056C411.964 236.394 412.411 235.878 412.984 235.509C413.562 235.134 414.188 234.946 414.859 234.946C415.958 234.946 416.812 235.308 417.422 236.032C418.031 236.756 418.336 237.793 418.336 239.141V239.743H412.609C412.63 240.576 412.872 241.251 413.336 241.766C413.805 242.277 414.398 242.532 415.117 242.532C415.628 242.532 416.06 242.428 416.414 242.22C416.768 242.011 417.078 241.735 417.344 241.391L418.227 242.079C417.518 243.168 416.456 243.712 415.039 243.712ZM414.859 236.134C414.276 236.134 413.786 236.347 413.391 236.774C412.995 237.196 412.75 237.79 412.656 238.556H416.891V238.446C416.849 237.712 416.651 237.144 416.297 236.743C415.943 236.337 415.464 236.134 414.859 236.134ZM421.977 233.056V235.102H423.555V236.22H421.977V241.462C421.977 241.8 422.047 242.056 422.188 242.227C422.328 242.394 422.568 242.477 422.906 242.477C423.073 242.477 423.302 242.446 423.594 242.384V243.556C423.214 243.66 422.844 243.712 422.484 243.712C421.839 243.712 421.352 243.516 421.023 243.126C420.695 242.735 420.531 242.181 420.531 241.462V236.22H418.992V235.102H420.531V233.056H421.977ZM430.469 243.556C430.385 243.389 430.318 243.092 430.266 242.665C429.594 243.363 428.792 243.712 427.859 243.712C427.026 243.712 426.341 243.477 425.805 243.009C425.273 242.535 425.008 241.936 425.008 241.212C425.008 240.332 425.341 239.649 426.008 239.165C426.68 238.675 427.622 238.431 428.836 238.431H430.242V237.766C430.242 237.261 430.091 236.86 429.789 236.563C429.487 236.261 429.042 236.11 428.453 236.11C427.938 236.11 427.505 236.24 427.156 236.501C426.807 236.761 426.633 237.076 426.633 237.446H425.18C425.18 237.024 425.328 236.618 425.625 236.227C425.927 235.832 426.333 235.519 426.844 235.29C427.359 235.061 427.924 234.946 428.539 234.946C429.513 234.946 430.276 235.191 430.828 235.681C431.38 236.165 431.667 236.834 431.688 237.688V241.579C431.688 242.355 431.786 242.972 431.984 243.431V243.556H430.469ZM428.07 242.454C428.523 242.454 428.953 242.337 429.359 242.102C429.766 241.868 430.06 241.563 430.242 241.188V239.454H429.109C427.339 239.454 426.453 239.972 426.453 241.009C426.453 241.462 426.604 241.816 426.906 242.071C427.208 242.326 427.596 242.454 428.07 242.454ZM433.602 239.259C433.602 237.962 433.909 236.92 434.523 236.134C435.138 235.342 435.943 234.946 436.938 234.946C437.927 234.946 438.711 235.285 439.289 235.962V231.556H440.734V243.556H439.406L439.336 242.649C438.758 243.358 437.953 243.712 436.922 243.712C435.943 243.712 435.143 243.311 434.523 242.509C433.909 241.707 433.602 240.66 433.602 239.368V239.259ZM435.047 239.423C435.047 240.381 435.245 241.131 435.641 241.673C436.036 242.214 436.583 242.485 437.281 242.485C438.198 242.485 438.867 242.074 439.289 241.251V237.368C438.857 236.571 438.193 236.173 437.297 236.173C436.589 236.173 436.036 236.446 435.641 236.993C435.245 237.54 435.047 238.35 435.047 239.423ZM448.203 243.556C448.12 243.389 448.052 243.092 448 242.665C447.328 243.363 446.526 243.712 445.594 243.712C444.76 243.712 444.076 243.477 443.539 243.009C443.008 242.535 442.742 241.936 442.742 241.212C442.742 240.332 443.076 239.649 443.742 239.165C444.414 238.675 445.357 238.431 446.57 238.431H447.977V237.766C447.977 237.261 447.826 236.86 447.523 236.563C447.221 236.261 446.776 236.11 446.188 236.11C445.672 236.11 445.24 236.24 444.891 236.501C444.542 236.761 444.367 237.076 444.367 237.446H442.914C442.914 237.024 443.062 236.618 443.359 236.227C443.661 235.832 444.068 235.519 444.578 235.29C445.094 235.061 445.659 234.946 446.273 234.946C447.247 234.946 448.01 235.191 448.562 235.681C449.115 236.165 449.401 236.834 449.422 237.688V241.579C449.422 242.355 449.521 242.972 449.719 243.431V243.556H448.203ZM445.805 242.454C446.258 242.454 446.688 242.337 447.094 242.102C447.5 241.868 447.794 241.563 447.977 241.188V239.454H446.844C445.073 239.454 444.188 239.972 444.188 241.009C444.188 241.462 444.339 241.816 444.641 242.071C444.943 242.326 445.331 242.454 445.805 242.454ZM453.648 233.056V235.102H455.227V236.22H453.648V241.462C453.648 241.8 453.719 242.056 453.859 242.227C454 242.394 454.24 242.477 454.578 242.477C454.745 242.477 454.974 242.446 455.266 242.384V243.556C454.885 243.66 454.516 243.712 454.156 243.712C453.51 243.712 453.023 243.516 452.695 243.126C452.367 242.735 452.203 242.181 452.203 241.462V236.22H450.664V235.102H452.203V233.056H453.648ZM462.141 243.556C462.057 243.389 461.99 243.092 461.938 242.665C461.266 243.363 460.464 243.712 459.531 243.712C458.698 243.712 458.013 243.477 457.477 243.009C456.945 242.535 456.68 241.936 456.68 241.212C456.68 240.332 457.013 239.649 457.68 239.165C458.352 238.675 459.294 238.431 460.508 238.431H461.914V237.766C461.914 237.261 461.763 236.86 461.461 236.563C461.159 236.261 460.714 236.11 460.125 236.11C459.609 236.11 459.177 236.24 458.828 236.501C458.479 236.761 458.305 237.076 458.305 237.446H456.852C456.852 237.024 457 236.618 457.297 236.227C457.599 235.832 458.005 235.519 458.516 235.29C459.031 235.061 459.596 234.946 460.211 234.946C461.185 234.946 461.948 235.191 462.5 235.681C463.052 236.165 463.339 236.834 463.359 237.688V241.579C463.359 242.355 463.458 242.972 463.656 243.431V243.556H462.141ZM459.742 242.454C460.195 242.454 460.625 242.337 461.031 242.102C461.438 241.868 461.732 241.563 461.914 241.188V239.454H460.781C459.01 239.454 458.125 239.972 458.125 241.009C458.125 241.462 458.276 241.816 458.578 242.071C458.88 242.326 459.268 242.454 459.742 242.454Z" fill="black"/>
<path d="M3.00001 240.545C2.99999 224.687 3.00001 228.4 3.00002 240.563C3.07662 278.265 255 275.218 255 240.545V309.902C255 342.755 2.9999 343.972 3.00001 309.902C3.00007 290.155 3.00005 257.33 3.00002 240.563C3.00001 240.557 3.00001 240.551 3.00001 240.545Z" fill="#4A47E2" fill-opacity="0.5" stroke="#4A47E2" stroke-opacity="0.5" stroke-width="3"/>
<path d="M73.7422 298.939C73.584 300.293 73.083 301.339 72.2393 302.077C71.4014 302.81 70.2852 303.176 68.8906 303.176C67.3789 303.176 66.166 302.634 65.252 301.55C64.3438 300.466 63.8896 299.016 63.8896 297.199V295.969C63.8896 294.779 64.1006 293.733 64.5225 292.831C64.9502 291.929 65.5537 291.237 66.333 290.757C67.1123 290.271 68.0146 290.027 69.04 290.027C70.3994 290.027 71.4893 290.408 72.3096 291.17C73.1299 291.926 73.6074 292.975 73.7422 294.316H72.0459C71.8994 293.297 71.5801 292.559 71.0879 292.102C70.6016 291.645 69.9189 291.416 69.04 291.416C67.9619 291.416 67.1152 291.814 66.5 292.611C65.8906 293.408 65.5859 294.542 65.5859 296.013V297.252C65.5859 298.641 65.876 299.745 66.4561 300.565C67.0361 301.386 67.8477 301.796 68.8906 301.796C69.8281 301.796 70.5459 301.585 71.0439 301.163C71.5479 300.735 71.8818 299.994 72.0459 298.939H73.7422ZM79.7451 303.176C78.4561 303.176 77.4072 302.754 76.5986 301.91C75.79 301.061 75.3857 299.927 75.3857 298.509V298.21C75.3857 297.267 75.5645 296.426 75.9219 295.688C76.2852 294.943 76.7891 294.363 77.4336 293.947C78.084 293.525 78.7871 293.314 79.543 293.314C80.7793 293.314 81.7402 293.722 82.4258 294.536C83.1113 295.351 83.4541 296.517 83.4541 298.034V298.711H77.0117C77.0352 299.648 77.3076 300.407 77.8291 300.987C78.3564 301.562 79.0244 301.849 79.833 301.849C80.4072 301.849 80.8936 301.731 81.292 301.497C81.6904 301.263 82.0391 300.952 82.3379 300.565L83.3311 301.339C82.5342 302.563 81.3389 303.176 79.7451 303.176ZM79.543 294.65C78.8867 294.65 78.3359 294.891 77.8906 295.371C77.4453 295.846 77.1699 296.514 77.0645 297.375H81.8281V297.252C81.7812 296.426 81.5586 295.787 81.1602 295.336C80.7617 294.879 80.2227 294.65 79.543 294.65ZM86.8818 293.49L86.9346 294.686C87.6611 293.771 88.6104 293.314 89.7822 293.314C91.792 293.314 92.8057 294.448 92.8232 296.716V303H91.1973V296.707C91.1914 296.021 91.0332 295.515 90.7227 295.187C90.418 294.858 89.9404 294.694 89.29 294.694C88.7627 294.694 88.2998 294.835 87.9014 295.116C87.5029 295.397 87.1924 295.767 86.9697 296.224V303H85.3438V293.49H86.8818ZM97.4814 291.188V293.49H99.2568V294.747H97.4814V300.645C97.4814 301.025 97.5605 301.312 97.7188 301.506C97.877 301.693 98.1465 301.787 98.5273 301.787C98.7148 301.787 98.9727 301.752 99.3008 301.682V303C98.873 303.117 98.457 303.176 98.0527 303.176C97.3262 303.176 96.7783 302.956 96.4092 302.517C96.04 302.077 95.8555 301.453 95.8555 300.645V294.747H94.124V293.49H95.8555V291.188H97.4814ZM105.761 294.949C105.515 294.908 105.248 294.888 104.961 294.888C103.895 294.888 103.171 295.342 102.79 296.25V303H101.164V293.49H102.746L102.772 294.589C103.306 293.739 104.062 293.314 105.04 293.314C105.356 293.314 105.597 293.355 105.761 293.438V294.949ZM112.783 303C112.689 302.812 112.613 302.479 112.555 301.998C111.799 302.783 110.896 303.176 109.848 303.176C108.91 303.176 108.14 302.912 107.536 302.385C106.938 301.852 106.64 301.178 106.64 300.363C106.64 299.373 107.015 298.605 107.765 298.061C108.521 297.51 109.581 297.234 110.946 297.234H112.528V296.487C112.528 295.919 112.358 295.468 112.019 295.134C111.679 294.794 111.178 294.624 110.516 294.624C109.936 294.624 109.449 294.771 109.057 295.063C108.664 295.356 108.468 295.711 108.468 296.127H106.833C106.833 295.652 107 295.195 107.334 294.756C107.674 294.311 108.131 293.959 108.705 293.701C109.285 293.443 109.921 293.314 110.612 293.314C111.708 293.314 112.566 293.59 113.188 294.141C113.809 294.686 114.131 295.438 114.154 296.399V300.776C114.154 301.649 114.266 302.344 114.488 302.859V303H112.783ZM110.085 301.761C110.595 301.761 111.078 301.629 111.535 301.365C111.992 301.102 112.323 300.759 112.528 300.337V298.386H111.254C109.262 298.386 108.266 298.969 108.266 300.135C108.266 300.645 108.436 301.043 108.775 301.33C109.115 301.617 109.552 301.761 110.085 301.761ZM118.47 303H116.844V289.5H118.47V303ZM125.8 303V290.203H129.412C130.525 290.203 131.51 290.449 132.365 290.941C133.221 291.434 133.88 292.134 134.343 293.042C134.812 293.95 135.049 294.993 135.055 296.171V296.988C135.055 298.195 134.82 299.253 134.352 300.161C133.889 301.069 133.224 301.767 132.356 302.253C131.495 302.739 130.49 302.988 129.342 303H125.8ZM127.487 291.592V301.62H129.263C130.563 301.62 131.574 301.216 132.295 300.407C133.021 299.599 133.385 298.447 133.385 296.953V296.206C133.385 294.753 133.042 293.625 132.356 292.822C131.677 292.014 130.71 291.604 129.456 291.592H127.487ZM139.124 303H137.498V293.49H139.124V303ZM137.366 290.968C137.366 290.704 137.445 290.481 137.604 290.3C137.768 290.118 138.008 290.027 138.324 290.027C138.641 290.027 138.881 290.118 139.045 290.3C139.209 290.481 139.291 290.704 139.291 290.968C139.291 291.231 139.209 291.451 139.045 291.627C138.881 291.803 138.641 291.891 138.324 291.891C138.008 291.891 137.768 291.803 137.604 291.627C137.445 291.451 137.366 291.231 137.366 290.968ZM146.331 294.949C146.085 294.908 145.818 294.888 145.531 294.888C144.465 294.888 143.741 295.342 143.36 296.25V303H141.734V293.49H143.316L143.343 294.589C143.876 293.739 144.632 293.314 145.61 293.314C145.927 293.314 146.167 293.355 146.331 293.438V294.949ZM151.604 303.176C150.315 303.176 149.267 302.754 148.458 301.91C147.649 301.061 147.245 299.927 147.245 298.509V298.21C147.245 297.267 147.424 296.426 147.781 295.688C148.145 294.943 148.648 294.363 149.293 293.947C149.943 293.525 150.646 293.314 151.402 293.314C152.639 293.314 153.6 293.722 154.285 294.536C154.971 295.351 155.313 296.517 155.313 298.034V298.711H148.871C148.895 299.648 149.167 300.407 149.688 300.987C150.216 301.562 150.884 301.849 151.692 301.849C152.267 301.849 152.753 301.731 153.151 301.497C153.55 301.263 153.898 300.952 154.197 300.565L155.19 301.339C154.394 302.563 153.198 303.176 151.604 303.176ZM151.402 294.65C150.746 294.65 150.195 294.891 149.75 295.371C149.305 295.846 149.029 296.514 148.924 297.375H153.688V297.252C153.641 296.426 153.418 295.787 153.02 295.336C152.621 294.879 152.082 294.65 151.402 294.65ZM161.018 301.849C161.598 301.849 162.104 301.673 162.538 301.321C162.972 300.97 163.212 300.53 163.259 300.003H164.797C164.768 300.548 164.58 301.066 164.234 301.559C163.889 302.051 163.426 302.443 162.846 302.736C162.271 303.029 161.662 303.176 161.018 303.176C159.723 303.176 158.691 302.745 157.924 301.884C157.162 301.017 156.781 299.833 156.781 298.333V298.061C156.781 297.135 156.951 296.312 157.291 295.591C157.631 294.87 158.117 294.311 158.75 293.912C159.389 293.514 160.142 293.314 161.009 293.314C162.075 293.314 162.96 293.634 163.663 294.272C164.372 294.911 164.75 295.74 164.797 296.76H163.259C163.212 296.145 162.978 295.641 162.556 295.248C162.14 294.85 161.624 294.65 161.009 294.65C160.183 294.65 159.541 294.949 159.084 295.547C158.633 296.139 158.407 296.997 158.407 298.122V298.43C158.407 299.525 158.633 300.369 159.084 300.961C159.535 301.553 160.18 301.849 161.018 301.849ZM168.831 291.188V293.49H170.606V294.747H168.831V300.645C168.831 301.025 168.91 301.312 169.068 301.506C169.227 301.693 169.496 301.787 169.877 301.787C170.064 301.787 170.322 301.752 170.65 301.682V303C170.223 303.117 169.807 303.176 169.402 303.176C168.676 303.176 168.128 302.956 167.759 302.517C167.39 302.077 167.205 301.453 167.205 300.645V294.747H165.474V293.49H167.205V291.188H168.831ZM171.907 298.157C171.907 297.226 172.089 296.388 172.452 295.644C172.821 294.899 173.331 294.325 173.981 293.921C174.638 293.517 175.385 293.314 176.223 293.314C177.518 293.314 178.563 293.763 179.36 294.659C180.163 295.556 180.564 296.748 180.564 298.236V298.351C180.564 299.276 180.386 300.108 180.028 300.847C179.677 301.579 179.17 302.15 178.508 302.561C177.852 302.971 177.096 303.176 176.24 303.176C174.951 303.176 173.905 302.728 173.103 301.831C172.306 300.935 171.907 299.748 171.907 298.271V298.157ZM173.542 298.351C173.542 299.405 173.785 300.252 174.271 300.891C174.764 301.529 175.42 301.849 176.24 301.849C177.066 301.849 177.723 301.526 178.209 300.882C178.695 300.231 178.938 299.323 178.938 298.157C178.938 297.114 178.689 296.271 178.191 295.626C177.699 294.976 177.043 294.65 176.223 294.65C175.42 294.65 174.772 294.97 174.28 295.608C173.788 296.247 173.542 297.161 173.542 298.351ZM187.2 294.949C186.954 294.908 186.688 294.888 186.4 294.888C185.334 294.888 184.61 295.342 184.229 296.25V303H182.604V293.49H184.186L184.212 294.589C184.745 293.739 185.501 293.314 186.479 293.314C186.796 293.314 187.036 293.355 187.2 293.438V294.949ZM191.973 300.618L194.188 293.49H195.928L192.104 304.468C191.513 306.05 190.572 306.841 189.283 306.841L188.976 306.814L188.369 306.7V305.382L188.809 305.417C189.359 305.417 189.787 305.306 190.092 305.083C190.402 304.86 190.657 304.453 190.856 303.861L191.217 302.895L187.824 293.49H189.6L191.973 300.618Z" fill="black"/>
<path d="M339 197L256 247.301V315.013L339 345V197Z" fill="#4A47E2" fill-opacity="0.2" stroke="#487AFD" stroke-opacity="0.5" stroke-width="3"/>
<path d="M535.946 348.068C536.536 348.65 537.486 348.643 538.068 348.054L547.55 338.444C548.132 337.855 548.125 336.905 547.536 336.323C546.946 335.741 545.996 335.747 545.414 336.337L536.986 344.879L528.444 336.45C527.855 335.868 526.905 335.875 526.323 336.464C525.741 337.054 525.747 338.004 526.337 338.586L535.946 348.068ZM534.5 197.01L535.5 347.01L538.5 346.99L537.5 196.99L534.5 197.01Z" fill="black"/>
<path d="M438.852 186.398H436.18V191H434.672V179.625H438.438C439.719 179.625 440.703 179.917 441.391 180.5C442.083 181.083 442.43 181.932 442.43 183.047C442.43 183.755 442.237 184.372 441.852 184.898C441.471 185.424 440.94 185.818 440.258 186.078L442.93 190.906V191H441.32L438.852 186.398ZM436.18 185.172H438.484C439.229 185.172 439.82 184.979 440.258 184.594C440.701 184.208 440.922 183.693 440.922 183.047C440.922 182.344 440.711 181.805 440.289 181.43C439.872 181.055 439.268 180.865 438.477 180.859H436.18V185.172ZM447.82 191.156C446.674 191.156 445.742 190.781 445.023 190.031C444.305 189.276 443.945 188.268 443.945 187.008V186.742C443.945 185.904 444.104 185.156 444.422 184.5C444.745 183.839 445.193 183.323 445.766 182.953C446.344 182.578 446.969 182.391 447.641 182.391C448.74 182.391 449.594 182.753 450.203 183.477C450.812 184.201 451.117 185.237 451.117 186.586V187.188H445.391C445.411 188.021 445.654 188.695 446.117 189.211C446.586 189.721 447.18 189.977 447.898 189.977C448.409 189.977 448.841 189.872 449.195 189.664C449.549 189.456 449.859 189.18 450.125 188.836L451.008 189.523C450.299 190.612 449.237 191.156 447.82 191.156ZM447.641 183.578C447.057 183.578 446.568 183.792 446.172 184.219C445.776 184.641 445.531 185.234 445.438 186H449.672V185.891C449.63 185.156 449.432 184.589 449.078 184.188C448.724 183.781 448.245 183.578 447.641 183.578ZM458.016 191C457.932 190.833 457.865 190.536 457.812 190.109C457.141 190.807 456.339 191.156 455.406 191.156C454.573 191.156 453.888 190.922 453.352 190.453C452.82 189.979 452.555 189.38 452.555 188.656C452.555 187.776 452.888 187.094 453.555 186.609C454.227 186.12 455.169 185.875 456.383 185.875H457.789V185.211C457.789 184.706 457.638 184.305 457.336 184.008C457.034 183.706 456.589 183.555 456 183.555C455.484 183.555 455.052 183.685 454.703 183.945C454.354 184.206 454.18 184.521 454.18 184.891H452.727C452.727 184.469 452.875 184.062 453.172 183.672C453.474 183.276 453.88 182.964 454.391 182.734C454.906 182.505 455.471 182.391 456.086 182.391C457.06 182.391 457.823 182.635 458.375 183.125C458.927 183.609 459.214 184.279 459.234 185.133V189.023C459.234 189.799 459.333 190.417 459.531 190.875V191H458.016ZM455.617 189.898C456.07 189.898 456.5 189.781 456.906 189.547C457.312 189.312 457.607 189.008 457.789 188.633V186.898H456.656C454.885 186.898 454 187.417 454 188.453C454 188.906 454.151 189.26 454.453 189.516C454.755 189.771 455.143 189.898 455.617 189.898ZM461.148 186.703C461.148 185.406 461.456 184.365 462.07 183.578C462.685 182.786 463.49 182.391 464.484 182.391C465.474 182.391 466.258 182.729 466.836 183.406V179H468.281V191H466.953L466.883 190.094C466.305 190.802 465.5 191.156 464.469 191.156C463.49 191.156 462.69 190.755 462.07 189.953C461.456 189.151 461.148 188.104 461.148 186.812V186.703ZM462.594 186.867C462.594 187.826 462.792 188.576 463.188 189.117C463.583 189.659 464.13 189.93 464.828 189.93C465.745 189.93 466.414 189.518 466.836 188.695V184.812C466.404 184.016 465.74 183.617 464.844 183.617C464.135 183.617 463.583 183.891 463.188 184.438C462.792 184.984 462.594 185.794 462.594 186.867ZM474.727 191V179.625H477.938C478.927 179.625 479.802 179.844 480.562 180.281C481.323 180.719 481.909 181.341 482.32 182.148C482.737 182.956 482.948 183.883 482.953 184.93V185.656C482.953 186.729 482.745 187.669 482.328 188.477C481.917 189.284 481.326 189.904 480.555 190.336C479.789 190.768 478.896 190.99 477.875 191H474.727ZM476.227 180.859V189.773H477.805C478.961 189.773 479.859 189.414 480.5 188.695C481.146 187.977 481.469 186.953 481.469 185.625V184.961C481.469 183.669 481.164 182.667 480.555 181.953C479.951 181.234 479.091 180.87 477.977 180.859H476.227ZM486.57 191H485.125V182.547H486.57V191ZM485.008 180.305C485.008 180.07 485.078 179.872 485.219 179.711C485.365 179.549 485.578 179.469 485.859 179.469C486.141 179.469 486.354 179.549 486.5 179.711C486.646 179.872 486.719 180.07 486.719 180.305C486.719 180.539 486.646 180.734 486.5 180.891C486.354 181.047 486.141 181.125 485.859 181.125C485.578 181.125 485.365 181.047 485.219 180.891C485.078 180.734 485.008 180.539 485.008 180.305ZM492.977 183.844C492.758 183.807 492.521 183.789 492.266 183.789C491.318 183.789 490.674 184.193 490.336 185V191H488.891V182.547H490.297L490.32 183.523C490.794 182.768 491.466 182.391 492.336 182.391C492.617 182.391 492.831 182.427 492.977 182.5V183.844ZM497.664 191.156C496.518 191.156 495.586 190.781 494.867 190.031C494.148 189.276 493.789 188.268 493.789 187.008V186.742C493.789 185.904 493.948 185.156 494.266 184.5C494.589 183.839 495.036 183.323 495.609 182.953C496.188 182.578 496.812 182.391 497.484 182.391C498.583 182.391 499.438 182.753 500.047 183.477C500.656 184.201 500.961 185.237 500.961 186.586V187.188H495.234C495.255 188.021 495.497 188.695 495.961 189.211C496.43 189.721 497.023 189.977 497.742 189.977C498.253 189.977 498.685 189.872 499.039 189.664C499.393 189.456 499.703 189.18 499.969 188.836L500.852 189.523C500.143 190.612 499.081 191.156 497.664 191.156ZM497.484 183.578C496.901 183.578 496.411 183.792 496.016 184.219C495.62 184.641 495.375 185.234 495.281 186H499.516V185.891C499.474 185.156 499.276 184.589 498.922 184.188C498.568 183.781 498.089 183.578 497.484 183.578ZM506.031 189.977C506.547 189.977 506.997 189.82 507.383 189.508C507.768 189.195 507.982 188.805 508.023 188.336H509.391C509.365 188.82 509.198 189.281 508.891 189.719C508.583 190.156 508.172 190.505 507.656 190.766C507.146 191.026 506.604 191.156 506.031 191.156C504.88 191.156 503.964 190.773 503.281 190.008C502.604 189.237 502.266 188.185 502.266 186.852V186.609C502.266 185.786 502.417 185.055 502.719 184.414C503.021 183.773 503.453 183.276 504.016 182.922C504.583 182.568 505.253 182.391 506.023 182.391C506.971 182.391 507.758 182.674 508.383 183.242C509.013 183.81 509.349 184.547 509.391 185.453H508.023C507.982 184.906 507.773 184.458 507.398 184.109C507.029 183.755 506.57 183.578 506.023 183.578C505.289 183.578 504.719 183.844 504.312 184.375C503.911 184.901 503.711 185.664 503.711 186.664V186.938C503.711 187.911 503.911 188.661 504.312 189.188C504.714 189.714 505.286 189.977 506.031 189.977ZM512.977 180.5V182.547H514.555V183.664H512.977V188.906C512.977 189.245 513.047 189.5 513.188 189.672C513.328 189.839 513.568 189.922 513.906 189.922C514.073 189.922 514.302 189.891 514.594 189.828V191C514.214 191.104 513.844 191.156 513.484 191.156C512.839 191.156 512.352 190.961 512.023 190.57C511.695 190.18 511.531 189.625 511.531 188.906V183.664H509.992V182.547H511.531V180.5H512.977ZM517.82 191H516.375V182.547H517.82V191ZM516.258 180.305C516.258 180.07 516.328 179.872 516.469 179.711C516.615 179.549 516.828 179.469 517.109 179.469C517.391 179.469 517.604 179.549 517.75 179.711C517.896 179.872 517.969 180.07 517.969 180.305C517.969 180.539 517.896 180.734 517.75 180.891C517.604 181.047 517.391 181.125 517.109 181.125C516.828 181.125 516.615 181.047 516.469 180.891C516.328 180.734 516.258 180.539 516.258 180.305ZM519.758 186.695C519.758 185.867 519.919 185.122 520.242 184.461C520.57 183.799 521.023 183.289 521.602 182.93C522.185 182.57 522.849 182.391 523.594 182.391C524.745 182.391 525.674 182.789 526.383 183.586C527.096 184.383 527.453 185.443 527.453 186.766V186.867C527.453 187.69 527.294 188.43 526.977 189.086C526.664 189.737 526.214 190.245 525.625 190.609C525.042 190.974 524.37 191.156 523.609 191.156C522.464 191.156 521.534 190.758 520.82 189.961C520.112 189.164 519.758 188.109 519.758 186.797V186.695ZM521.211 186.867C521.211 187.805 521.427 188.557 521.859 189.125C522.297 189.693 522.88 189.977 523.609 189.977C524.344 189.977 524.927 189.69 525.359 189.117C525.792 188.539 526.008 187.732 526.008 186.695C526.008 185.768 525.786 185.018 525.344 184.445C524.906 183.867 524.323 183.578 523.594 183.578C522.88 183.578 522.305 183.862 521.867 184.43C521.43 184.997 521.211 185.81 521.211 186.867ZM530.633 182.547L530.68 183.609C531.326 182.797 532.169 182.391 533.211 182.391C534.997 182.391 535.898 183.398 535.914 185.414V191H534.469V185.406C534.464 184.797 534.323 184.346 534.047 184.055C533.776 183.763 533.352 183.617 532.773 183.617C532.305 183.617 531.893 183.742 531.539 183.992C531.185 184.242 530.909 184.57 530.711 184.977V191H529.266V182.547H530.633Z" fill="black"/>
<path d="M291.492 111.398H288.82V116H287.312V104.625H291.078C292.359 104.625 293.344 104.917 294.031 105.5C294.724 106.083 295.07 106.932 295.07 108.047C295.07 108.755 294.878 109.372 294.492 109.898C294.112 110.424 293.581 110.818 292.898 111.078L295.57 115.906V116H293.961L291.492 111.398ZM288.82 110.172H291.125C291.87 110.172 292.461 109.979 292.898 109.594C293.341 109.208 293.562 108.693 293.562 108.047C293.562 107.344 293.352 106.805 292.93 106.43C292.513 106.055 291.909 105.865 291.117 105.859H288.82V110.172ZM302.172 116C302.089 115.833 302.021 115.536 301.969 115.109C301.297 115.807 300.495 116.156 299.562 116.156C298.729 116.156 298.044 115.922 297.508 115.453C296.977 114.979 296.711 114.38 296.711 113.656C296.711 112.776 297.044 112.094 297.711 111.609C298.383 111.12 299.326 110.875 300.539 110.875H301.945V110.211C301.945 109.706 301.794 109.305 301.492 109.008C301.19 108.706 300.745 108.555 300.156 108.555C299.641 108.555 299.208 108.685 298.859 108.945C298.51 109.206 298.336 109.521 298.336 109.891H296.883C296.883 109.469 297.031 109.062 297.328 108.672C297.63 108.276 298.036 107.964 298.547 107.734C299.062 107.505 299.628 107.391 300.242 107.391C301.216 107.391 301.979 107.635 302.531 108.125C303.083 108.609 303.37 109.279 303.391 110.133V114.023C303.391 114.799 303.49 115.417 303.688 115.875V116H302.172ZM299.773 114.898C300.227 114.898 300.656 114.781 301.062 114.547C301.469 114.312 301.763 114.008 301.945 113.633V111.898H300.812C299.042 111.898 298.156 112.417 298.156 113.453C298.156 113.906 298.307 114.26 298.609 114.516C298.911 114.771 299.299 114.898 299.773 114.898ZM307.023 107.547L307.07 108.609C307.716 107.797 308.56 107.391 309.602 107.391C311.388 107.391 312.289 108.398 312.305 110.414V116H310.859V110.406C310.854 109.797 310.714 109.346 310.438 109.055C310.167 108.763 309.742 108.617 309.164 108.617C308.695 108.617 308.284 108.742 307.93 108.992C307.576 109.242 307.299 109.57 307.102 109.977V116H305.656V107.547H307.023ZM314.133 111.703C314.133 110.406 314.44 109.365 315.055 108.578C315.669 107.786 316.474 107.391 317.469 107.391C318.458 107.391 319.242 107.729 319.82 108.406V104H321.266V116H319.938L319.867 115.094C319.289 115.802 318.484 116.156 317.453 116.156C316.474 116.156 315.674 115.755 315.055 114.953C314.44 114.151 314.133 113.104 314.133 111.812V111.703ZM315.578 111.867C315.578 112.826 315.776 113.576 316.172 114.117C316.568 114.659 317.115 114.93 317.812 114.93C318.729 114.93 319.398 114.518 319.82 113.695V109.812C319.388 109.016 318.724 108.617 317.828 108.617C317.12 108.617 316.568 108.891 316.172 109.438C315.776 109.984 315.578 110.794 315.578 111.867ZM323.133 111.695C323.133 110.867 323.294 110.122 323.617 109.461C323.945 108.799 324.398 108.289 324.977 107.93C325.56 107.57 326.224 107.391 326.969 107.391C328.12 107.391 329.049 107.789 329.758 108.586C330.471 109.383 330.828 110.443 330.828 111.766V111.867C330.828 112.69 330.669 113.43 330.352 114.086C330.039 114.737 329.589 115.245 329 115.609C328.417 115.974 327.745 116.156 326.984 116.156C325.839 116.156 324.909 115.758 324.195 114.961C323.487 114.164 323.133 113.109 323.133 111.797V111.695ZM324.586 111.867C324.586 112.805 324.802 113.557 325.234 114.125C325.672 114.693 326.255 114.977 326.984 114.977C327.719 114.977 328.302 114.69 328.734 114.117C329.167 113.539 329.383 112.732 329.383 111.695C329.383 110.768 329.161 110.018 328.719 109.445C328.281 108.867 327.698 108.578 326.969 108.578C326.255 108.578 325.68 108.862 325.242 109.43C324.805 109.997 324.586 110.81 324.586 111.867ZM334 107.547L334.039 108.484C334.659 107.755 335.495 107.391 336.547 107.391C337.729 107.391 338.534 107.844 338.961 108.75C339.242 108.344 339.607 108.016 340.055 107.766C340.508 107.516 341.042 107.391 341.656 107.391C343.51 107.391 344.453 108.372 344.484 110.336V116H343.039V110.422C343.039 109.818 342.901 109.367 342.625 109.07C342.349 108.768 341.885 108.617 341.234 108.617C340.698 108.617 340.253 108.779 339.898 109.102C339.544 109.419 339.339 109.849 339.281 110.391V116H337.828V110.461C337.828 109.232 337.227 108.617 336.023 108.617C335.076 108.617 334.427 109.021 334.078 109.828V116H332.633V107.547H334ZM293.602 132.031H288.836L287.766 135H286.219L290.562 123.625H291.875L296.227 135H294.688L293.602 132.031ZM289.289 130.797H293.156L291.219 125.477L289.289 130.797ZM300.922 133.977C301.438 133.977 301.888 133.82 302.273 133.508C302.659 133.195 302.872 132.805 302.914 132.336H304.281C304.255 132.82 304.089 133.281 303.781 133.719C303.474 134.156 303.062 134.505 302.547 134.766C302.036 135.026 301.495 135.156 300.922 135.156C299.771 135.156 298.854 134.773 298.172 134.008C297.495 133.237 297.156 132.185 297.156 130.852V130.609C297.156 129.786 297.307 129.055 297.609 128.414C297.911 127.773 298.344 127.276 298.906 126.922C299.474 126.568 300.143 126.391 300.914 126.391C301.862 126.391 302.648 126.674 303.273 127.242C303.904 127.81 304.24 128.547 304.281 129.453H302.914C302.872 128.906 302.664 128.458 302.289 128.109C301.919 127.755 301.461 127.578 300.914 127.578C300.18 127.578 299.609 127.844 299.203 128.375C298.802 128.901 298.602 129.664 298.602 130.664V130.938C298.602 131.911 298.802 132.661 299.203 133.188C299.604 133.714 300.177 133.977 300.922 133.977ZM309.297 133.977C309.812 133.977 310.263 133.82 310.648 133.508C311.034 133.195 311.247 132.805 311.289 132.336H312.656C312.63 132.82 312.464 133.281 312.156 133.719C311.849 134.156 311.438 134.505 310.922 134.766C310.411 135.026 309.87 135.156 309.297 135.156C308.146 135.156 307.229 134.773 306.547 134.008C305.87 133.237 305.531 132.185 305.531 130.852V130.609C305.531 129.786 305.682 129.055 305.984 128.414C306.286 127.773 306.719 127.276 307.281 126.922C307.849 126.568 308.518 126.391 309.289 126.391C310.237 126.391 311.023 126.674 311.648 127.242C312.279 127.81 312.615 128.547 312.656 129.453H311.289C311.247 128.906 311.039 128.458 310.664 128.109C310.294 127.755 309.836 127.578 309.289 127.578C308.555 127.578 307.984 127.844 307.578 128.375C307.177 128.901 306.977 129.664 306.977 130.664V130.938C306.977 131.911 307.177 132.661 307.578 133.188C307.979 133.714 308.552 133.977 309.297 133.977ZM317.789 135.156C316.643 135.156 315.711 134.781 314.992 134.031C314.273 133.276 313.914 132.268 313.914 131.008V130.742C313.914 129.904 314.073 129.156 314.391 128.5C314.714 127.839 315.161 127.323 315.734 126.953C316.312 126.578 316.938 126.391 317.609 126.391C318.708 126.391 319.562 126.753 320.172 127.477C320.781 128.201 321.086 129.237 321.086 130.586V131.188H315.359C315.38 132.021 315.622 132.695 316.086 133.211C316.555 133.721 317.148 133.977 317.867 133.977C318.378 133.977 318.81 133.872 319.164 133.664C319.518 133.456 319.828 133.18 320.094 132.836L320.977 133.523C320.268 134.612 319.206 135.156 317.789 135.156ZM317.609 127.578C317.026 127.578 316.536 127.792 316.141 128.219C315.745 128.641 315.5 129.234 315.406 130H319.641V129.891C319.599 129.156 319.401 128.589 319.047 128.188C318.693 127.781 318.214 127.578 317.609 127.578ZM327.688 132.758C327.688 132.367 327.539 132.065 327.242 131.852C326.951 131.633 326.438 131.445 325.703 131.289C324.974 131.133 324.393 130.945 323.961 130.727C323.534 130.508 323.216 130.247 323.008 129.945C322.805 129.643 322.703 129.284 322.703 128.867C322.703 128.174 322.995 127.589 323.578 127.109C324.167 126.63 324.917 126.391 325.828 126.391C326.786 126.391 327.562 126.638 328.156 127.133C328.755 127.628 329.055 128.26 329.055 129.031H327.602C327.602 128.635 327.432 128.294 327.094 128.008C326.76 127.721 326.339 127.578 325.828 127.578C325.302 127.578 324.891 127.693 324.594 127.922C324.297 128.151 324.148 128.451 324.148 128.82C324.148 129.169 324.286 129.432 324.562 129.609C324.839 129.786 325.336 129.956 326.055 130.117C326.779 130.279 327.365 130.471 327.812 130.695C328.26 130.919 328.591 131.19 328.805 131.508C329.023 131.82 329.133 132.203 329.133 132.656C329.133 133.411 328.831 134.018 328.227 134.477C327.622 134.93 326.839 135.156 325.875 135.156C325.198 135.156 324.599 135.036 324.078 134.797C323.557 134.557 323.148 134.224 322.852 133.797C322.56 133.365 322.414 132.898 322.414 132.398H323.859C323.885 132.883 324.078 133.268 324.438 133.555C324.802 133.836 325.281 133.977 325.875 133.977C326.422 133.977 326.859 133.867 327.188 133.648C327.521 133.424 327.688 133.128 327.688 132.758ZM335.938 132.758C335.938 132.367 335.789 132.065 335.492 131.852C335.201 131.633 334.688 131.445 333.953 131.289C333.224 131.133 332.643 130.945 332.211 130.727C331.784 130.508 331.466 130.247 331.258 129.945C331.055 129.643 330.953 129.284 330.953 128.867C330.953 128.174 331.245 127.589 331.828 127.109C332.417 126.63 333.167 126.391 334.078 126.391C335.036 126.391 335.812 126.638 336.406 127.133C337.005 127.628 337.305 128.26 337.305 129.031H335.852C335.852 128.635 335.682 128.294 335.344 128.008C335.01 127.721 334.589 127.578 334.078 127.578C333.552 127.578 333.141 127.693 332.844 127.922C332.547 128.151 332.398 128.451 332.398 128.82C332.398 129.169 332.536 129.432 332.812 129.609C333.089 129.786 333.586 129.956 334.305 130.117C335.029 130.279 335.615 130.471 336.062 130.695C336.51 130.919 336.841 131.19 337.055 131.508C337.273 131.82 337.383 132.203 337.383 132.656C337.383 133.411 337.081 134.018 336.477 134.477C335.872 134.93 335.089 135.156 334.125 135.156C333.448 135.156 332.849 135.036 332.328 134.797C331.807 134.557 331.398 134.224 331.102 133.797C330.81 133.365 330.664 132.898 330.664 132.398H332.109C332.135 132.883 332.328 133.268 332.688 133.555C333.052 133.836 333.531 133.977 334.125 133.977C334.672 133.977 335.109 133.867 335.438 133.648C335.771 133.424 335.938 133.128 335.938 132.758ZM287.32 154V142.625H291.039C292.273 142.625 293.201 142.88 293.82 143.391C294.445 143.901 294.758 144.656 294.758 145.656C294.758 146.188 294.607 146.659 294.305 147.07C294.003 147.477 293.591 147.792 293.07 148.016C293.685 148.188 294.169 148.516 294.523 149C294.883 149.479 295.062 150.052 295.062 150.719C295.062 151.74 294.732 152.542 294.07 153.125C293.409 153.708 292.474 154 291.266 154H287.32ZM288.82 148.68V152.773H291.297C291.995 152.773 292.544 152.594 292.945 152.234C293.352 151.87 293.555 151.37 293.555 150.734C293.555 149.365 292.81 148.68 291.32 148.68H288.82ZM288.82 147.477H291.086C291.742 147.477 292.266 147.312 292.656 146.984C293.052 146.656 293.25 146.211 293.25 145.648C293.25 145.023 293.068 144.57 292.703 144.289C292.339 144.003 291.784 143.859 291.039 143.859H288.82V147.477ZM299.828 151.883L301.797 145.547H303.344L299.945 155.305C299.419 156.711 298.583 157.414 297.438 157.414L297.164 157.391L296.625 157.289V156.117L297.016 156.148C297.505 156.148 297.885 156.049 298.156 155.852C298.432 155.654 298.659 155.292 298.836 154.766L299.156 153.906L296.141 145.547H297.719L299.828 151.883ZM306.602 143.5V145.547H308.18V146.664H306.602V151.906C306.602 152.245 306.672 152.5 306.812 152.672C306.953 152.839 307.193 152.922 307.531 152.922C307.698 152.922 307.927 152.891 308.219 152.828V154C307.839 154.104 307.469 154.156 307.109 154.156C306.464 154.156 305.977 153.961 305.648 153.57C305.32 153.18 305.156 152.625 305.156 151.906V146.664H303.617V145.547H305.156V143.5H306.602ZM313.383 154.156C312.237 154.156 311.305 153.781 310.586 153.031C309.867 152.276 309.508 151.268 309.508 150.008V149.742C309.508 148.904 309.667 148.156 309.984 147.5C310.307 146.839 310.755 146.323 311.328 145.953C311.906 145.578 312.531 145.391 313.203 145.391C314.302 145.391 315.156 145.753 315.766 146.477C316.375 147.201 316.68 148.237 316.68 149.586V150.188H310.953C310.974 151.021 311.216 151.695 311.68 152.211C312.148 152.721 312.742 152.977 313.461 152.977C313.971 152.977 314.404 152.872 314.758 152.664C315.112 152.456 315.422 152.18 315.688 151.836L316.57 152.523C315.862 153.612 314.799 154.156 313.383 154.156ZM313.203 146.578C312.62 146.578 312.13 146.792 311.734 147.219C311.339 147.641 311.094 148.234 311 149H315.234V148.891C315.193 148.156 314.995 147.589 314.641 147.188C314.286 146.781 313.807 146.578 313.203 146.578ZM323.281 151.758C323.281 151.367 323.133 151.065 322.836 150.852C322.544 150.633 322.031 150.445 321.297 150.289C320.568 150.133 319.987 149.945 319.555 149.727C319.128 149.508 318.81 149.247 318.602 148.945C318.398 148.643 318.297 148.284 318.297 147.867C318.297 147.174 318.589 146.589 319.172 146.109C319.76 145.63 320.51 145.391 321.422 145.391C322.38 145.391 323.156 145.638 323.75 146.133C324.349 146.628 324.648 147.26 324.648 148.031H323.195C323.195 147.635 323.026 147.294 322.688 147.008C322.354 146.721 321.932 146.578 321.422 146.578C320.896 146.578 320.484 146.693 320.188 146.922C319.891 147.151 319.742 147.451 319.742 147.82C319.742 148.169 319.88 148.432 320.156 148.609C320.432 148.786 320.93 148.956 321.648 149.117C322.372 149.279 322.958 149.471 323.406 149.695C323.854 149.919 324.185 150.19 324.398 150.508C324.617 150.82 324.727 151.203 324.727 151.656C324.727 152.411 324.424 153.018 323.82 153.477C323.216 153.93 322.432 154.156 321.469 154.156C320.792 154.156 320.193 154.036 319.672 153.797C319.151 153.557 318.742 153.224 318.445 152.797C318.154 152.365 318.008 151.898 318.008 151.398H319.453C319.479 151.883 319.672 152.268 320.031 152.555C320.396 152.836 320.875 152.977 321.469 152.977C322.016 152.977 322.453 152.867 322.781 152.648C323.115 152.424 323.281 152.128 323.281 151.758Z" fill="black"/>
<path d="M409.33 44.2891H403.373L402.035 48H400.102L405.531 33.7812H407.172L412.611 48H410.688L409.33 44.2891ZM403.939 42.7461H408.773L406.352 36.0957L403.939 42.7461ZM415.951 37.4336L416.01 38.7617C416.817 37.7461 417.872 37.2383 419.174 37.2383C421.407 37.2383 422.533 38.498 422.553 41.0176V48H420.746V41.0078C420.74 40.2461 420.564 39.6829 420.219 39.3184C419.88 38.9538 419.35 38.7715 418.627 38.7715C418.041 38.7715 417.527 38.9277 417.084 39.2402C416.641 39.5527 416.296 39.9629 416.049 40.4707V48H414.242V37.4336H415.951ZM431.801 48C431.697 47.7917 431.612 47.4206 431.547 46.8867C430.707 47.7591 429.704 48.1953 428.539 48.1953C427.497 48.1953 426.641 47.9023 425.971 47.3164C425.307 46.724 424.975 45.9753 424.975 45.0703C424.975 43.9701 425.391 43.1172 426.225 42.5117C427.064 41.8997 428.243 41.5938 429.76 41.5938H431.518V40.7637C431.518 40.1322 431.329 39.6309 430.951 39.2598C430.574 38.8822 430.017 38.6934 429.281 38.6934C428.637 38.6934 428.096 38.8561 427.66 39.1816C427.224 39.5072 427.006 39.901 427.006 40.3633H425.189C425.189 39.8359 425.375 39.3281 425.746 38.8398C426.124 38.3451 426.632 37.9544 427.27 37.668C427.914 37.3815 428.62 37.2383 429.389 37.2383C430.606 37.2383 431.56 37.5443 432.25 38.1562C432.94 38.7617 433.298 39.5983 433.324 40.666V45.5293C433.324 46.4993 433.448 47.2708 433.695 47.8438V48H431.801ZM428.803 46.623C429.369 46.623 429.906 46.4766 430.414 46.1836C430.922 45.8906 431.29 45.5098 431.518 45.041V42.873H430.102C427.888 42.873 426.781 43.5208 426.781 44.8164C426.781 45.3828 426.97 45.8255 427.348 46.1445C427.725 46.4635 428.21 46.623 428.803 46.623ZM438.607 34.875V37.4336H440.58V38.8301H438.607V45.3828C438.607 45.806 438.695 46.125 438.871 46.3398C439.047 46.5482 439.346 46.6523 439.77 46.6523C439.978 46.6523 440.264 46.6133 440.629 46.5352V48C440.154 48.1302 439.691 48.1953 439.242 48.1953C438.435 48.1953 437.826 47.9512 437.416 47.4629C437.006 46.9746 436.801 46.2812 436.801 45.3828V38.8301H434.877V37.4336H436.801V34.875H438.607ZM442.025 42.6191C442.025 41.584 442.227 40.653 442.631 39.8262C443.041 38.9993 443.607 38.3613 444.33 37.9121C445.059 37.4629 445.889 37.2383 446.82 37.2383C448.259 37.2383 449.421 37.7363 450.307 38.7324C451.199 39.7285 451.645 41.0534 451.645 42.707V42.834C451.645 43.8626 451.446 44.7871 451.049 45.6074C450.658 46.4212 450.095 47.056 449.359 47.5117C448.63 47.9674 447.79 48.1953 446.84 48.1953C445.408 48.1953 444.245 47.6973 443.354 46.7012C442.468 45.7051 442.025 44.3867 442.025 42.7461V42.6191ZM443.842 42.834C443.842 44.0059 444.112 44.9466 444.652 45.6562C445.199 46.3659 445.928 46.7207 446.84 46.7207C447.758 46.7207 448.487 46.3626 449.027 45.6465C449.568 44.9238 449.838 43.9147 449.838 42.6191C449.838 41.4603 449.561 40.5228 449.008 39.8066C448.461 39.084 447.732 38.7227 446.82 38.7227C445.928 38.7227 445.209 39.0775 444.662 39.7871C444.115 40.4967 443.842 41.5124 443.842 42.834ZM455.609 37.4336L455.658 38.6055C456.433 37.694 457.478 37.2383 458.793 37.2383C460.271 37.2383 461.277 37.8047 461.811 38.9375C462.162 38.4297 462.618 38.0195 463.178 37.707C463.744 37.3945 464.411 37.2383 465.18 37.2383C467.497 37.2383 468.676 38.4655 468.715 40.9199V48H466.908V41.0273C466.908 40.2721 466.736 39.709 466.391 39.3379C466.046 38.9603 465.466 38.7715 464.652 38.7715C463.982 38.7715 463.425 38.9733 462.982 39.377C462.54 39.7741 462.283 40.3112 462.211 40.9883V48H460.395V41.0762C460.395 39.5397 459.643 38.7715 458.139 38.7715C456.954 38.7715 456.143 39.276 455.707 40.2852V48H453.9V37.4336H455.609ZM474.906 45.3535L477.367 37.4336H479.301L475.053 49.6309C474.395 51.3887 473.35 52.2676 471.918 52.2676L471.576 52.2383L470.902 52.1113V50.6465L471.391 50.6855C472.003 50.6855 472.478 50.5618 472.816 50.3145C473.161 50.0671 473.445 49.6146 473.666 48.957L474.066 47.8828L470.297 37.4336H472.27L474.906 45.3535ZM485.404 42.6191C485.404 41.584 485.606 40.653 486.01 39.8262C486.42 38.9993 486.986 38.3613 487.709 37.9121C488.438 37.4629 489.268 37.2383 490.199 37.2383C491.638 37.2383 492.8 37.7363 493.686 38.7324C494.577 39.7285 495.023 41.0534 495.023 42.707V42.834C495.023 43.8626 494.825 44.7871 494.428 45.6074C494.037 46.4212 493.474 47.056 492.738 47.5117C492.009 47.9674 491.169 48.1953 490.219 48.1953C488.786 48.1953 487.624 47.6973 486.732 46.7012C485.847 45.7051 485.404 44.3867 485.404 42.7461V42.6191ZM487.221 42.834C487.221 44.0059 487.491 44.9466 488.031 45.6562C488.578 46.3659 489.307 46.7207 490.219 46.7207C491.137 46.7207 491.866 46.3626 492.406 45.6465C492.947 44.9238 493.217 43.9147 493.217 42.6191C493.217 41.4603 492.94 40.5228 492.387 39.8066C491.84 39.084 491.111 38.7227 490.199 38.7227C489.307 38.7227 488.588 39.0775 488.041 39.7871C487.494 40.4967 487.221 41.5124 487.221 42.834ZM498.178 48V38.8301H496.508V37.4336H498.178V36.3496C498.178 35.2168 498.48 34.3411 499.086 33.7227C499.691 33.1042 500.548 32.7949 501.654 32.7949C502.071 32.7949 502.484 32.8503 502.895 32.9609L502.797 34.4258C502.491 34.3672 502.165 34.3379 501.82 34.3379C501.234 34.3379 500.782 34.5104 500.463 34.8555C500.144 35.194 499.984 35.6823 499.984 36.3203V37.4336H502.24V38.8301H499.984V48H498.178ZM511.654 34.875V37.4336H513.627V38.8301H511.654V45.3828C511.654 45.806 511.742 46.125 511.918 46.3398C512.094 46.5482 512.393 46.6523 512.816 46.6523C513.025 46.6523 513.311 46.6133 513.676 46.5352V48C513.201 48.1302 512.738 48.1953 512.289 48.1953C511.482 48.1953 510.873 47.9512 510.463 47.4629C510.053 46.9746 509.848 46.2812 509.848 45.3828V38.8301H507.924V37.4336H509.848V34.875H511.654ZM517.553 38.7129C518.354 37.7298 519.395 37.2383 520.678 37.2383C522.911 37.2383 524.037 38.498 524.057 41.0176V48H522.25V41.0078C522.243 40.2461 522.068 39.6829 521.723 39.3184C521.384 38.9538 520.854 38.7715 520.131 38.7715C519.545 38.7715 519.031 38.9277 518.588 39.2402C518.145 39.5527 517.8 39.9629 517.553 40.4707V48H515.746V33H517.553V38.7129ZM531.146 48.1953C529.714 48.1953 528.549 47.7266 527.65 46.7891C526.752 45.8451 526.303 44.5853 526.303 43.0098V42.6777C526.303 41.6296 526.501 40.6953 526.898 39.875C527.302 39.0482 527.862 38.4036 528.578 37.9414C529.301 37.4727 530.082 37.2383 530.922 37.2383C532.296 37.2383 533.363 37.6908 534.125 38.5957C534.887 39.5007 535.268 40.7962 535.268 42.4824V43.2344H528.109C528.135 44.276 528.438 45.1191 529.018 45.7637C529.604 46.4017 530.346 46.7207 531.244 46.7207C531.882 46.7207 532.423 46.5905 532.865 46.3301C533.308 46.0697 533.695 45.7246 534.027 45.2949L535.131 46.1543C534.245 47.515 532.917 48.1953 531.146 48.1953ZM530.922 38.7227C530.193 38.7227 529.581 38.9896 529.086 39.5234C528.591 40.0508 528.285 40.793 528.168 41.75H533.461V41.6133C533.409 40.6953 533.161 39.9857 532.719 39.4844C532.276 38.9766 531.677 38.7227 530.922 38.7227ZM409.994 74.2891H404.037L402.699 78H400.766L406.195 63.7812H407.836L413.275 78H411.352L409.994 74.2891ZM404.604 72.7461H409.438L407.016 66.0957L404.604 72.7461ZM420.014 69.0547C419.74 69.0091 419.444 68.9863 419.125 68.9863C417.94 68.9863 417.136 69.4909 416.713 70.5V78H414.906V67.4336H416.664L416.693 68.6543C417.286 67.7103 418.126 67.2383 419.213 67.2383C419.564 67.2383 419.831 67.2839 420.014 67.375V69.0547ZM425.727 76.7207C426.371 76.7207 426.934 76.5254 427.416 76.1348C427.898 75.7441 428.165 75.2559 428.217 74.6699H429.926C429.893 75.2754 429.685 75.8516 429.301 76.3984C428.917 76.9453 428.402 77.3815 427.758 77.707C427.12 78.0326 426.443 78.1953 425.727 78.1953C424.288 78.1953 423.142 77.7168 422.289 76.7598C421.443 75.7962 421.02 74.4811 421.02 72.8145V72.5117C421.02 71.4831 421.208 70.5684 421.586 69.7676C421.964 68.9668 422.504 68.3451 423.207 67.9023C423.917 67.4596 424.753 67.2383 425.717 67.2383C426.902 67.2383 427.885 67.5931 428.666 68.3027C429.454 69.0124 429.874 69.9336 429.926 71.0664H428.217C428.165 70.3828 427.904 69.8229 427.436 69.3867C426.973 68.944 426.4 68.7227 425.717 68.7227C424.799 68.7227 424.086 69.0547 423.578 69.7188C423.077 70.3763 422.826 71.3301 422.826 72.5801V72.9219C422.826 74.1393 423.077 75.0768 423.578 75.7344C424.079 76.3919 424.796 76.7207 425.727 76.7207ZM433.764 68.7129C434.564 67.7298 435.606 67.2383 436.889 67.2383C439.122 67.2383 440.248 68.498 440.268 71.0176V78H438.461V71.0078C438.454 70.2461 438.279 69.6829 437.934 69.3184C437.595 68.9538 437.064 68.7715 436.342 68.7715C435.756 68.7715 435.242 68.9277 434.799 69.2402C434.356 69.5527 434.011 69.9629 433.764 70.4707V78H431.957V63H433.764V68.7129ZM444.936 78H443.129V67.4336H444.936V78ZM442.982 64.6309C442.982 64.3379 443.07 64.0905 443.246 63.8887C443.428 63.6868 443.695 63.5859 444.047 63.5859C444.398 63.5859 444.665 63.6868 444.848 63.8887C445.03 64.0905 445.121 64.3379 445.121 64.6309C445.121 64.9238 445.03 65.168 444.848 65.3633C444.665 65.5586 444.398 65.6562 444.047 65.6562C443.695 65.6562 443.428 65.5586 443.246 65.3633C443.07 65.168 442.982 64.9238 442.982 64.6309ZM451.322 75.5488L453.939 67.4336H455.785L451.996 78H450.619L446.791 67.4336H448.637L451.322 75.5488ZM461.771 78.1953C460.339 78.1953 459.174 77.7266 458.275 76.7891C457.377 75.8451 456.928 74.5853 456.928 73.0098V72.6777C456.928 71.6296 457.126 70.6953 457.523 69.875C457.927 69.0482 458.487 68.4036 459.203 67.9414C459.926 67.4727 460.707 67.2383 461.547 67.2383C462.921 67.2383 463.988 67.6908 464.75 68.5957C465.512 69.5007 465.893 70.7962 465.893 72.4824V73.2344H458.734C458.76 74.276 459.063 75.1191 459.643 75.7637C460.229 76.4017 460.971 76.7207 461.869 76.7207C462.507 76.7207 463.048 76.5905 463.49 76.3301C463.933 76.0697 464.32 75.7246 464.652 75.2949L465.756 76.1543C464.87 77.515 463.542 78.1953 461.771 78.1953ZM461.547 68.7227C460.818 68.7227 460.206 68.9896 459.711 69.5234C459.216 70.0508 458.91 70.793 458.793 71.75H464.086V71.6133C464.034 70.6953 463.786 69.9857 463.344 69.4844C462.901 68.9766 462.302 68.7227 461.547 68.7227ZM474.643 76.4668H482.777V78H472.426V76.5938L480.219 65.3242H472.553V63.7812H482.465V65.1582L474.643 76.4668ZM486.889 78H485.082V67.4336H486.889V78ZM484.936 64.6309C484.936 64.3379 485.023 64.0905 485.199 63.8887C485.382 63.6868 485.648 63.5859 486 63.5859C486.352 63.5859 486.618 63.6868 486.801 63.8887C486.983 64.0905 487.074 64.3379 487.074 64.6309C487.074 64.9238 486.983 65.168 486.801 65.3633C486.618 65.5586 486.352 65.6562 486 65.6562C485.648 65.6562 485.382 65.5586 485.199 65.3633C485.023 65.168 484.936 64.9238 484.936 64.6309ZM498.715 72.834C498.715 74.4421 498.347 75.7376 497.611 76.7207C496.876 77.7038 495.88 78.1953 494.623 78.1953C493.34 78.1953 492.331 77.7884 491.596 76.9746V82.0625H489.789V67.4336H491.439L491.527 68.6055C492.263 67.694 493.285 67.2383 494.594 67.2383C495.863 67.2383 496.866 67.7168 497.602 68.6738C498.344 69.6309 498.715 70.9622 498.715 72.668V72.834ZM496.908 72.6289C496.908 71.4375 496.654 70.4967 496.146 69.8066C495.639 69.1165 494.942 68.7715 494.057 68.7715C492.963 68.7715 492.143 69.2565 491.596 70.2266V75.2754C492.136 76.2389 492.963 76.7207 494.076 76.7207C494.942 76.7207 495.629 76.3789 496.137 75.6953C496.651 75.0052 496.908 73.9831 496.908 72.6289ZM514.105 71.7207H508.139V78H506.264V63.7812H515.072V65.3242H508.139V70.1875H514.105V71.7207ZM518.998 78H517.191V67.4336H518.998V78ZM517.045 64.6309C517.045 64.3379 517.133 64.0905 517.309 63.8887C517.491 63.6868 517.758 63.5859 518.109 63.5859C518.461 63.5859 518.728 63.6868 518.91 63.8887C519.092 64.0905 519.184 64.3379 519.184 64.6309C519.184 64.9238 519.092 65.168 518.91 65.3633C518.728 65.5586 518.461 65.6562 518.109 65.6562C517.758 65.6562 517.491 65.5586 517.309 65.3633C517.133 65.168 517.045 64.9238 517.045 64.6309ZM523.861 78H522.055V63H523.861V78ZM531.146 78.1953C529.714 78.1953 528.549 77.7266 527.65 76.7891C526.752 75.8451 526.303 74.5853 526.303 73.0098V72.6777C526.303 71.6296 526.501 70.6953 526.898 69.875C527.302 69.0482 527.862 68.4036 528.578 67.9414C529.301 67.4727 530.082 67.2383 530.922 67.2383C532.296 67.2383 533.363 67.6908 534.125 68.5957C534.887 69.5007 535.268 70.7962 535.268 72.4824V73.2344H528.109C528.135 74.276 528.438 75.1191 529.018 75.7637C529.604 76.4017 530.346 76.7207 531.244 76.7207C531.882 76.7207 532.423 76.5905 532.865 76.3301C533.308 76.0697 533.695 75.7246 534.027 75.2949L535.131 76.1543C534.245 77.515 532.917 78.1953 531.146 78.1953ZM530.922 68.7227C530.193 68.7227 529.581 68.9896 529.086 69.5234C528.591 70.0508 528.285 70.793 528.168 71.75H533.461V71.6133C533.409 70.6953 533.161 69.9857 532.719 69.4844C532.276 68.9766 531.677 68.7227 530.922 68.7227Z" fill="black"/>
<path d="M399.828 49.9531H535.99V50.9297H399.828V49.9531ZM400.492 79.9531H535.99V80.9297H400.492V79.9531Z" fill="black"/>
<path d="M276.066 34.9449C275.483 34.356 274.534 34.3511 273.945 34.9338L264.349 44.4299C263.761 45.0127 263.756 45.9624 264.338 46.5512C264.921 47.14 265.871 47.145 266.46 46.5623L274.989 38.1213L283.43 46.6507C284.013 47.2395 284.962 47.2444 285.551 46.6617C286.14 46.079 286.145 45.1292 285.562 44.5404L276.066 34.9449ZM272.934 229.055C273.517 229.644 274.466 229.649 275.055 229.066L284.651 219.57C285.239 218.987 285.244 218.038 284.662 217.449C284.079 216.86 283.129 216.855 282.54 217.438L274.011 225.879L265.57 217.349C264.987 216.761 264.038 216.756 263.449 217.338C262.86 217.921 262.855 218.871 263.438 219.46L272.934 229.055ZM273.5 35.9922L272.5 227.992L275.5 228.008L276.5 36.0078L273.5 35.9922Z" fill="black"/>
<path d="M2 339.71V25.4324C2 -6.27536 256 -5.34278 256 25.4324V339.71C256 367.688 2 365.823 2 339.71Z" fill="#487AFD" fill-opacity="0.1" stroke="#487AFD" stroke-opacity="0.5" stroke-width="3"/>
</svg>
