<?xml version="1.0" encoding="UTF-8" standalone="no"?>
<!DOCTYPE svg PUBLIC "-//W3C//DTD SVG 1.1//EN"
 "http://www.w3.org/Graphics/SVG/1.1/DTD/svg11.dtd">
<!-- Generated by graphviz version 2.40.1 (20161225.0304)
 -->
<!-- Title: %3 Pages: 1 -->
<svg width="576pt" height="81pt"
 viewBox="0.00 0.00 576.00 80.61" xmlns="http://www.w3.org/2000/svg" xmlns:xlink="http://www.w3.org/1999/xlink">
<g id="graph0" class="graph" transform="scale(.4443 .4443) rotate(0) translate(4 177.4558)">
<title>%3</title>
<polygon fill="#ffffff" stroke="transparent" points="-4,4 -4,-177.4558 1292.5311,-177.4558 1292.5311,4 -4,4"/>
<!-- N8589 -->
<g id="node1" class="node">
<title>N8589</title>
<ellipse fill="#8cd499" stroke="#000000" stroke-width="0" cx="114.427" cy="-155.4558" rx="51.2405" ry="18"/>
<text text-anchor="middle" x="114.427" y="-151.2558" font-family="Times,serif" font-size="14.00" fill="#000000">Dict (8589)</text>
</g>
<!-- N8592 -->
<g id="node2" class="node">
<title>N8592</title>
<polygon fill="#de707f" stroke="#000000" stroke-width="0" points="482.7908,-119.4558 350.2864,-119.4558 350.2864,-69.4558 482.7908,-69.4558 482.7908,-119.4558"/>
<text text-anchor="middle" x="416.5386" y="-104.2558" font-family="Times,serif" font-size="14.00" fill="#000000">CalcJobNode (8592)</text>
<text text-anchor="middle" x="416.5386" y="-90.2558" font-family="Times,serif" font-size="14.00" fill="#000000">State: finished</text>
<text text-anchor="middle" x="416.5386" y="-76.2558" font-family="Times,serif" font-size="14.00" fill="#000000">Exit Code: 0</text>
</g>
<!-- N8589&#45;&gt;N8592 -->
<g id="edge1" class="edge">
<title>N8589&#45;&gt;N8592</title>
<path fill="none" stroke="#000000" d="M164.8316,-152.0726C209.4189,-148.2969 275.9703,-140.7399 332.4126,-126.4558 336.7915,-125.3477 341.2541,-124.0817 345.7256,-122.7078"/>
<polygon fill="#000000" stroke="#000000" points="347.0621,-125.9542 355.5,-119.547 344.9082,-119.2938 347.0621,-125.9542"/>
<text text-anchor="middle" x="289.6333" y="-158.2558" font-family="Times,serif" font-size="14.00" fill="#000000">INPUT_CALC</text>
<text text-anchor="middle" x="289.6333" y="-144.2558" font-family="Times,serif" font-size="14.00" fill="#000000">input1</text>
</g>
<!-- N8593 -->
<g id="node3" class="node">
<title>N8593</title>
<ellipse fill="#8cd499" stroke="#000000" stroke-width="0" cx="667.8499" cy="-94.4558" rx="96.0917" ry="25.4118"/>
<text text-anchor="middle" x="667.8499" y="-97.2558" font-family="Times,serif" font-size="14.00" fill="#000000">RemoteData (8593)</text>
<text text-anchor="middle" x="667.8499" y="-83.2558" font-family="Times,serif" font-size="14.00" fill="#000000">@example_computer</text>
</g>
<!-- N8592&#45;&gt;N8593 -->
<g id="edge2" class="edge">
<title>N8592&#45;&gt;N8593</title>
<path fill="none" stroke="#000000" d="M482.8964,-94.4558C506.8808,-94.4558 534.6051,-94.4558 561.1711,-94.4558"/>
<polygon fill="#000000" stroke="#000000" points="561.2859,-97.9559 571.2858,-94.4558 561.2858,-90.9559 561.2859,-97.9559"/>
<text text-anchor="middle" x="527.1094" y="-111.2558" font-family="Times,serif" font-size="14.00" fill="#000000">CREATE</text>
<text text-anchor="middle" x="527.1094" y="-97.2558" font-family="Times,serif" font-size="14.00" fill="#000000">output</text>
</g>
<!-- N8595 -->
<g id="node6" class="node">
<title>N8595</title>
<polygon fill="#de707f" fill-opacity="0.466667" stroke="#000000" stroke-width="0" points="1048.0791,-75.4558 885.9121,-75.4558 885.9121,-25.4558 1048.0791,-25.4558 1048.0791,-75.4558"/>
<text text-anchor="middle" x="966.9956" y="-60.2558" font-family="Times,serif" font-size="14.00" fill="#000000">CalcFunctionNode (8595)</text>
<text text-anchor="middle" x="966.9956" y="-46.2558" font-family="Times,serif" font-size="14.00" fill="#000000">State: finished</text>
<text text-anchor="middle" x="966.9956" y="-32.2558" font-family="Times,serif" font-size="14.00" fill="#000000">Exit Code: 200</text>
</g>
<!-- N8593&#45;&gt;N8595 -->
<g id="edge5" class="edge">
<title>N8593&#45;&gt;N8595</title>
<path fill="none" stroke="#000000" d="M752.3735,-82.0236C790.8369,-76.3662 836.4278,-69.6605 875.6762,-63.8876"/>
<polygon fill="#000000" stroke="#000000" points="876.3886,-67.3206 885.7728,-62.4025 875.3699,-60.3951 876.3886,-67.3206"/>
<text text-anchor="middle" x="824.9248" y="-92.2558" font-family="Times,serif" font-size="14.00" fill="#000000">INPUT_CALC</text>
<text text-anchor="middle" x="824.9248" y="-78.2558" font-family="Times,serif" font-size="14.00" fill="#000000">input1</text>
</g>
<!-- N8590 -->
<g id="node4" class="node">
<title>N8590</title>
<ellipse fill="#8cd499" stroke="#000000" stroke-width="0" cx="114.427" cy="-94.4558" rx="51.3557" ry="25.4118"/>
<text text-anchor="middle" x="114.427" y="-97.2558" font-family="Times,serif" font-size="14.00" fill="#000000">Int (8590)</text>
<text text-anchor="middle" x="114.427" y="-83.2558" font-family="Times,serif" font-size="14.00" fill="#000000">value: 3</text>
</g>
<!-- N8590&#45;&gt;N8592 -->
<g id="edge3" class="edge">
<title>N8590&#45;&gt;N8592</title>
<path fill="none" stroke="#000000" d="M165.6761,-94.4558C213.4387,-94.4558 285.2979,-94.4558 339.8823,-94.4558"/>
<polygon fill="#000000" stroke="#000000" points="340.2097,-97.9559 350.2097,-94.4558 340.2097,-90.9559 340.2097,-97.9559"/>
<text text-anchor="middle" x="289.6333" y="-111.2558" font-family="Times,serif" font-size="14.00" fill="#000000">INPUT_CALC</text>
<text text-anchor="middle" x="289.6333" y="-97.2558" font-family="Times,serif" font-size="14.00" fill="#000000">input2</text>
</g>
<!-- N8588 -->
<g id="node5" class="node">
<title>N8588</title>
<ellipse fill="#4ca4b9" fill-opacity="0.666667" stroke="#000000" stroke-width="0" cx="114.427" cy="-25.4558" rx="114.3541" ry="25.4118"/>
<text text-anchor="middle" x="114.427" y="-28.2558" font-family="Times,serif" font-size="14.00" fill="#000000">Code (8588)</text>
<text text-anchor="middle" x="114.427" y="-14.2558" font-family="Times,serif" font-size="14.00" fill="#000000">exec@example_computer</text>
</g>
<!-- N8588&#45;&gt;N8592 -->
<g id="edge4" class="edge">
<title>N8588&#45;&gt;N8592</title>
<path fill="none" stroke="#000000" d="M213.7929,-38.1346C251.3174,-44.0128 294.1709,-52.0446 332.4126,-62.4558 336.4835,-63.5641 340.6315,-64.7946 344.795,-66.1092"/>
<polygon fill="#000000" stroke="#000000" points="343.916,-69.5046 354.5091,-69.3111 346.1074,-62.8565 343.916,-69.5046"/>
<text text-anchor="middle" x="289.6333" y="-79.2558" font-family="Times,serif" font-size="14.00" fill="#000000">INPUT_CALC</text>
<text text-anchor="middle" x="289.6333" y="-65.2558" font-family="Times,serif" font-size="14.00" fill="#000000">code</text>
</g>
<!-- N8597 -->
<g id="node7" class="node">
<title>N8597</title>
<ellipse fill="#8cd499" stroke="#000000" stroke-width="0" cx="1212.8539" cy="-77.4558" rx="75.8547" ry="18"/>
<text text-anchor="middle" x="1212.8539" y="-73.2558" font-family="Times,serif" font-size="14.00" fill="#000000">FolderData (8597)</text>
</g>
<!-- N8595&#45;&gt;N8597 -->
<g id="edge6" class="edge">
<title>N8595&#45;&gt;N8597</title>
<path fill="none" stroke="#000000" d="M1048.1802,-59.3715C1075.835,-62.4085 1106.6882,-65.7968 1134.1454,-68.8121"/>
<polygon fill="#000000" stroke="#000000" points="1133.7731,-72.2922 1144.0954,-69.9048 1134.5373,-65.334 1133.7731,-72.2922"/>
<text text-anchor="middle" x="1092.7319" y="-84.2558" font-family="Times,serif" font-size="14.00" fill="#000000">CREATE</text>
<text text-anchor="middle" x="1092.7319" y="-70.2558" font-family="Times,serif" font-size="14.00" fill="#000000">output2</text>
</g>
<!-- N8596 -->
<g id="node8" class="node">
<title>N8596</title>
<ellipse fill="#8cd499" stroke="#000000" stroke-width="0" cx="1212.8539" cy="-23.4558" rx="51.2405" ry="18"/>
<text text-anchor="middle" x="1212.8539" y="-19.2558" font-family="Times,serif" font-size="14.00" fill="#000000">Dict (8596)</text>
</g>
<!-- N8595&#45;&gt;N8596 -->
<g id="edge7" class="edge">
<title>N8595&#45;&gt;N8596</title>
<path fill="none" stroke="#000000" d="M1048.1122,-33.0786C1054.2451,-32.0834 1060.3538,-31.1908 1066.2871,-30.4558 1094.0739,-27.0138 1125.0176,-25.237 1151.2855,-24.3301"/>
<polygon fill="#000000" stroke="#000000" points="1151.5943,-27.8223 1161.4806,-24.013 1151.3766,-20.8257 1151.5943,-27.8223"/>
<text text-anchor="middle" x="1092.7319" y="-47.2558" font-family="Times,serif" font-size="14.00" fill="#000000">CREATE</text>
<text text-anchor="middle" x="1092.7319" y="-33.2558" font-family="Times,serif" font-size="14.00" fill="#000000">output1</text>
</g>
<!-- N8594 -->
<g id="node9" class="node">
<title>N8594</title>
<ellipse fill="#8cd499" stroke="#000000" stroke-width="0" cx="667.8499" cy="-25.4558" rx="51.9679" ry="25.4118"/>
<text text-anchor="middle" x="667.8499" y="-28.2558" font-family="Times,serif" font-size="14.00" fill="#000000">Str (8594)</text>
<text text-anchor="middle" x="667.8499" y="-14.2558" font-family="Times,serif" font-size="14.00" fill="#000000">abc</text>
</g>
<!-- N8594&#45;&gt;N8595 -->
<g id="edge8" class="edge">
<title>N8594&#45;&gt;N8595</title>
<path fill="none" stroke="#000000" d="M719.7173,-26.6302C760.1225,-27.8881 817.5821,-30.4286 867.7041,-35.4558 870.3766,-35.7239 873.087,-36.014 875.8211,-36.3226"/>
<polygon fill="#000000" stroke="#000000" points="875.4545,-39.8036 885.799,-37.5139 876.2845,-32.8529 875.4545,-39.8036"/>
<text text-anchor="middle" x="824.9248" y="-52.2558" font-family="Times,serif" font-size="14.00" fill="#000000">INPUT_CALC</text>
<text text-anchor="middle" x="824.9248" y="-38.2558" font-family="Times,serif" font-size="14.00" fill="#000000">input2</text>
</g>
</g>
</svg>
