<?xml version="1.0" encoding="UTF-8" standalone="no"?>
<!DOCTYPE svg PUBLIC "-//W3C//DTD SVG 1.1//EN"
 "http://www.w3.org/Graphics/SVG/1.1/DTD/svg11.dtd">
<!-- Generated by graphviz version 2.40.1 (20161225.0304)
 -->
<!-- Title: %3 Pages: 1 -->
<svg width="432pt" height="131pt"
 viewBox="0.00 0.00 432.00 131.17" xmlns="http://www.w3.org/2000/svg" xmlns:xlink="http://www.w3.org/1999/xlink">
<g id="graph0" class="graph" transform="scale(.5595 .5595) rotate(0) translate(4 230.4558)">
<title>%3</title>
<polygon fill="#ffffff" stroke="transparent" points="-4,4 -4,-230.4558 768.1455,-230.4558 768.1455,4 -4,4"/>
<!-- N8592 -->
<g id="node1" class="node">
<title>N8592</title>
<polygon fill="#de707f" stroke="#000000" stroke-width="0" points="482.7908,-141.4558 350.2864,-141.4558 350.2864,-91.4558 482.7908,-91.4558 482.7908,-141.4558"/>
<text text-anchor="middle" x="416.5386" y="-126.2558" font-family="Times,serif" font-size="14.00" fill="#000000">CalcJobNode (8592)</text>
<text text-anchor="middle" x="416.5386" y="-112.2558" font-family="Times,serif" font-size="14.00" fill="#000000">State: finished</text>
<text text-anchor="middle" x="416.5386" y="-98.2558" font-family="Times,serif" font-size="14.00" fill="#000000">Exit Code: 0</text>
</g>
<!-- N8593 -->
<g id="node6" class="node">
<title>N8593</title>
<ellipse fill="#8cd499" stroke="#000000" stroke-width="0" cx="667.8499" cy="-116.4558" rx="96.0917" ry="25.4118"/>
<text text-anchor="middle" x="667.8499" y="-119.2558" font-family="Times,serif" font-size="14.00" fill="#000000">RemoteData (8593)</text>
<text text-anchor="middle" x="667.8499" y="-105.2558" font-family="Times,serif" font-size="14.00" fill="#000000">@example_computer</text>
</g>
<!-- N8592&#45;&gt;N8593 -->
<g id="edge5" class="edge">
<title>N8592&#45;&gt;N8593</title>
<path fill="none" stroke="#000000" d="M482.8964,-116.4558C506.8808,-116.4558 534.6051,-116.4558 561.1711,-116.4558"/>
<polygon fill="#000000" stroke="#000000" points="561.2859,-119.9559 571.2858,-116.4558 561.2858,-112.9559 561.2859,-119.9559"/>
<text text-anchor="middle" x="527.1094" y="-133.2558" font-family="Times,serif" font-size="14.00" fill="#000000">CREATE</text>
<text text-anchor="middle" x="527.1094" y="-119.2558" font-family="Times,serif" font-size="14.00" fill="#000000">output</text>
</g>
<!-- N8591 -->
<g id="node2" class="node">
<title>N8591</title>
<polygon fill="#e38851" stroke="#000000" stroke-width="0" points="190.279,-226.4558 38.575,-226.4558 38.575,-190.4558 190.279,-190.4558 190.279,-226.4558"/>
<text text-anchor="middle" x="114.427" y="-211.2558" font-family="Times,serif" font-size="14.00" fill="#000000">WorkChainNode (8591)</text>
<text text-anchor="middle" x="114.427" y="-197.2558" font-family="Times,serif" font-size="14.00" fill="#000000">State: running</text>
</g>
<!-- N8591&#45;&gt;N8592 -->
<g id="edge1" class="edge">
<title>N8591&#45;&gt;N8592</title>
<path fill="none" stroke="#000000" stroke-dasharray="1,5" d="M190.2915,-199.8123C233.0017,-193.3968 286.7633,-182.6953 332.4126,-165.4558 345.2649,-160.6022 358.4365,-153.891 370.4291,-146.9911"/>
<polygon fill="#000000" stroke="#000000" points="372.5279,-149.8158 379.3452,-141.7056 368.9583,-143.7943 372.5279,-149.8158"/>
<text text-anchor="middle" x="289.6333" y="-205.2558" font-family="Times,serif" font-size="14.00" fill="#000000">CALL_CALC</text>
<text text-anchor="middle" x="289.6333" y="-191.2558" font-family="Times,serif" font-size="14.00" fill="#000000">call1</text>
</g>
<!-- N8590 -->
<g id="node3" class="node">
<title>N8590</title>
<ellipse fill="#8cd499" stroke="#000000" stroke-width="0" cx="114.427" cy="-147.4558" rx="51.3557" ry="25.4118"/>
<text text-anchor="middle" x="114.427" y="-150.2558" font-family="Times,serif" font-size="14.00" fill="#000000">Int (8590)</text>
<text text-anchor="middle" x="114.427" y="-136.2558" font-family="Times,serif" font-size="14.00" fill="#000000">value: 3</text>
</g>
<!-- N8590&#45;&gt;N8592 -->
<g id="edge2" class="edge">
<title>N8590&#45;&gt;N8592</title>
<path fill="none" stroke="#000000" d="M164.6524,-142.4731C208.8403,-138.0688 274.9063,-131.4338 332.4126,-125.4558 334.9054,-125.1967 337.4396,-124.9321 339.9987,-124.664"/>
<polygon fill="#000000" stroke="#000000" points="340.3783,-128.1435 349.9571,-123.6161 339.6457,-121.1819 340.3783,-128.1435"/>
<text text-anchor="middle" x="289.6333" y="-150.2558" font-family="Times,serif" font-size="14.00" fill="#000000">INPUT_CALC</text>
<text text-anchor="middle" x="289.6333" y="-136.2558" font-family="Times,serif" font-size="14.00" fill="#000000">input2</text>
</g>
<!-- N8589 -->
<g id="node4" class="node">
<title>N8589</title>
<ellipse fill="#8cd499" stroke="#000000" stroke-width="0" cx="114.427" cy="-86.4558" rx="51.2405" ry="18"/>
<text text-anchor="middle" x="114.427" y="-82.2558" font-family="Times,serif" font-size="14.00" fill="#000000">Dict (8589)</text>
</g>
<!-- N8589&#45;&gt;N8592 -->
<g id="edge3" class="edge">
<title>N8589&#45;&gt;N8592</title>
<path fill="none" stroke="#000000" d="M165.7496,-86.5664C210.0703,-87.2524 275.7248,-89.6827 332.4126,-97.4558 334.9437,-97.8029 337.5111,-98.1881 340.0987,-98.6048"/>
<polygon fill="#000000" stroke="#000000" points="339.6936,-102.0869 350.1458,-100.3544 340.8945,-95.1907 339.6936,-102.0869"/>
<text text-anchor="middle" x="289.6333" y="-114.2558" font-family="Times,serif" font-size="14.00" fill="#000000">INPUT_CALC</text>
<text text-anchor="middle" x="289.6333" y="-100.2558" font-family="Times,serif" font-size="14.00" fill="#000000">input1</text>
</g>
<!-- N8588 -->
<g id="node5" class="node">
<title>N8588</title>
<ellipse fill="#4ca4b9" fill-opacity="0.666667" stroke="#000000" stroke-width="0" cx="114.427" cy="-25.4558" rx="114.3541" ry="25.4118"/>
<text text-anchor="middle" x="114.427" y="-28.2558" font-family="Times,serif" font-size="14.00" fill="#000000">Code (8588)</text>
<text text-anchor="middle" x="114.427" y="-14.2558" font-family="Times,serif" font-size="14.00" fill="#000000">exec@example_computer</text>
</g>
<!-- N8588&#45;&gt;N8592 -->
<g id="edge4" class="edge">
<title>N8588&#45;&gt;N8592</title>
<path fill="none" stroke="#000000" d="M225.4109,-31.675C260.5369,-36.2761 298.9159,-44.1278 332.4126,-57.4558 349.0214,-64.0644 365.5171,-74.5388 379.4435,-84.8403"/>
<polygon fill="#000000" stroke="#000000" points="377.6899,-87.9051 387.7607,-91.1959 381.9402,-82.3431 377.6899,-87.9051"/>
<text text-anchor="middle" x="289.6333" y="-74.2558" font-family="Times,serif" font-size="14.00" fill="#000000">INPUT_CALC</text>
<text text-anchor="middle" x="289.6333" y="-60.2558" font-family="Times,serif" font-size="14.00" fill="#000000">code</text>
</g>
</g>
</svg>
