<?xml version="1.0" encoding="UTF-8" standalone="no"?>
<!DOCTYPE svg PUBLIC "-//W3C//DTD SVG 1.1//EN"
 "http://www.w3.org/Graphics/SVG/1.1/DTD/svg11.dtd">
<!-- Generated by graphviz version 2.42.3 (20191010.1750)
 -->
<!-- Title: %3 Pages: 1 -->
<svg width="973pt" height="197pt"
 viewBox="0.00 0.00 973.16 197.46" xmlns="http://www.w3.org/2000/svg" xmlns:xlink="http://www.w3.org/1999/xlink">
<g id="graph0" class="graph" transform="scale(1 1) rotate(0) translate(4 193.46)">
<title>%3</title>
<polygon fill="white" stroke="transparent" points="-4,4 -4,-193.46 969.16,-193.46 969.16,4 -4,4"/>
<!-- N2 -->
<g id="node1" class="node">
<title>N2</title>
<ellipse fill="#8cd499" stroke="red" stroke-width="6" cx="37.85" cy="-52.46" rx="37.71" ry="18"/>
<text text-anchor="middle" x="37.85" y="-48.26" font-family="Times,serif" font-size="14.00">Dict (2)</text>
</g>
<!-- N4 -->
<g id="node2" class="node">
<title>N4</title>
<polygon fill="white" stroke="lightgray" stroke-width="2" points="242.24,-96.46 111.53,-96.46 111.53,-60.46 242.24,-60.46 242.24,-96.46"/>
<text text-anchor="middle" x="176.89" y="-81.26" font-family="Times,serif" font-size="14.00">WorkChainNode (4)</text>
<text text-anchor="middle" x="176.89" y="-67.26" font-family="Times,serif" font-size="14.00">State: finished</text>
</g>
<!-- N2&#45;&gt;N4 -->
<g id="edge1" class="edge">
<title>N2&#45;&gt;N4</title>
<path fill="none" stroke="#000000" stroke-dasharray="5,2" d="M73.43,-59.02C82.17,-60.68 91.9,-62.52 101.79,-64.4"/>
<polygon fill="#000000" stroke="#000000" points="101.21,-67.85 111.69,-66.28 102.52,-60.97 101.21,-67.85"/>
</g>
<!-- N5 -->
<g id="node3" class="node">
<title>N5</title>
<polygon fill="white" stroke="lightgray" stroke-width="2" points="389.44,-50.46 277.94,-50.46 277.94,-0.46 389.44,-0.46 389.44,-50.46"/>
<text text-anchor="middle" x="333.69" y="-35.26" font-family="Times,serif" font-size="14.00">CalcJobNode (5)</text>
<text text-anchor="middle" x="333.69" y="-21.26" font-family="Times,serif" font-size="14.00">State: finished</text>
<text text-anchor="middle" x="333.69" y="-7.26" font-family="Times,serif" font-size="14.00">Exit Code: 0</text>
</g>
<!-- N2&#45;&gt;N5 -->
<g id="edge9" class="edge">
<title>N2&#45;&gt;N5</title>
<path fill="none" stroke="#000000" d="M75.18,-49.12C123.22,-44.7 208.72,-36.85 267.95,-31.4"/>
<polygon fill="#000000" stroke="#000000" points="268.31,-34.89 277.95,-30.49 267.67,-27.92 268.31,-34.89"/>
</g>
<!-- N4&#45;&gt;N5 -->
<g id="edge5" class="edge">
<title>N4&#45;&gt;N5</title>
<path fill="none" stroke="#000000" stroke-dasharray="1,5" d="M230.73,-60.36C242.87,-56.21 255.92,-51.74 268.48,-47.44"/>
<polygon fill="#000000" stroke="#000000" points="269.65,-50.74 277.98,-44.19 267.38,-44.12 269.65,-50.74"/>
</g>
<!-- N8 -->
<g id="node5" class="node">
<title>N8</title>
<polygon fill="white" stroke="lightgray" stroke-width="2" points="795.28,-156.46 654.11,-156.46 654.11,-106.46 795.28,-106.46 795.28,-156.46"/>
<text text-anchor="middle" x="724.7" y="-141.26" font-family="Times,serif" font-size="14.00">CalcFunctionNode (8)</text>
<text text-anchor="middle" x="724.7" y="-127.26" font-family="Times,serif" font-size="14.00">State: finished</text>
<text text-anchor="middle" x="724.7" y="-113.26" font-family="Times,serif" font-size="14.00">Exit Code: 200</text>
</g>
<!-- N4&#45;&gt;N8 -->
<g id="edge2" class="edge">
<title>N4&#45;&gt;N8</title>
<path fill="none" stroke="#000000" stroke-dasharray="1,5" d="M242.22,-87.95C254.12,-89.56 266.46,-91.14 278.06,-92.46 405.68,-106.95 554.38,-118.99 643.68,-125.7"/>
<polygon fill="#000000" stroke="#000000" points="643.5,-129.2 653.73,-126.45 644.02,-122.22 643.5,-129.2"/>
</g>
<!-- N9 -->
<g id="node6" class="node">
<title>N9</title>
<ellipse fill="#8cd499" stroke="black" stroke-width="0" cx="898.32" cy="-104.46" rx="37.71" ry="18"/>
<text text-anchor="middle" x="898.32" y="-100.26" font-family="Times,serif" font-size="14.00">Dict (9)</text>
</g>
<!-- N4&#45;&gt;N9 -->
<g id="edge10" class="edge">
<title>N4&#45;&gt;N9</title>
<path fill="none" stroke="#000000" stroke-dasharray="5,2" d="M242.38,-79.64C354.77,-81.87 593.79,-87.42 795.49,-97.46 813.37,-98.35 833,-99.62 850.21,-100.84"/>
<polygon fill="#000000" stroke="#000000" points="850.35,-104.36 860.58,-101.59 850.85,-97.38 850.35,-104.36"/>
</g>
<!-- N10 -->
<g id="node7" class="node">
<title>N10</title>
<ellipse fill="white" stroke="lightgray" stroke-width="2" cx="898.32" cy="-171.46" rx="66.67" ry="18"/>
<text text-anchor="middle" x="898.32" y="-167.26" font-family="Times,serif" font-size="14.00">FolderData (10)</text>
</g>
<!-- N4&#45;&gt;N10 -->
<g id="edge4" class="edge">
<title>N4&#45;&gt;N10</title>
<path fill="none" stroke="#000000" stroke-dasharray="5,2" d="M226.82,-96.48C242.96,-101.91 261.13,-107.48 278.06,-111.46 442.36,-150 485.74,-151.35 653.9,-165.46 709.85,-170.15 773.26,-171.59 821.33,-171.88"/>
<polygon fill="#000000" stroke="#000000" points="821.33,-175.38 831.35,-171.93 821.36,-168.38 821.33,-175.38"/>
</g>
<!-- N6 -->
<g id="node4" class="node">
<title>N6</title>
<ellipse fill="white" stroke="lightgray" stroke-width="2" cx="521.61" cy="-25.46" rx="96.09" ry="25.41"/>
<text text-anchor="middle" x="521.61" y="-28.26" font-family="Times,serif" font-size="14.00">RemoteData (6)</text>
<text text-anchor="middle" x="521.61" y="-14.26" font-family="Times,serif" font-size="14.00">@example_computer</text>
</g>
<!-- N5&#45;&gt;N6 -->
<g id="edge7" class="edge">
<title>N5&#45;&gt;N6</title>
<path fill="none" stroke="#000000" d="M389.46,-25.46C397.55,-25.46 406.1,-25.46 414.8,-25.46"/>
<polygon fill="#000000" stroke="#000000" points="415.07,-28.96 425.07,-25.46 415.07,-21.96 415.07,-28.96"/>
</g>
<!-- N6&#45;&gt;N8 -->
<g id="edge8" class="edge">
<title>N6&#45;&gt;N8</title>
<path fill="none" stroke="#000000" d="M565.75,-48.2C595.39,-63.82 635.04,-84.72 667.2,-101.67"/>
<polygon fill="#000000" stroke="#000000" points="665.58,-104.78 676.06,-106.34 668.84,-98.58 665.58,-104.78"/>
</g>
<!-- N8&#45;&gt;N9 -->
<g id="edge3" class="edge">
<title>N8&#45;&gt;N9</title>
<path fill="none" stroke="#000000" d="M795.5,-120.47C814.41,-117.5 834.39,-114.36 851.6,-111.65"/>
<polygon fill="#000000" stroke="#000000" points="852.58,-115.04 861.92,-110.03 851.49,-108.12 852.58,-115.04"/>
</g>
<!-- N8&#45;&gt;N10 -->
<g id="edge6" class="edge">
<title>N8&#45;&gt;N10</title>
<path fill="none" stroke="#000000" d="M795.5,-147.73C809.33,-150.95 823.74,-154.31 837.21,-157.45"/>
<polygon fill="#000000" stroke="#000000" points="836.77,-160.94 847.31,-159.8 838.36,-154.12 836.77,-160.94"/>
</g>
</g>
</svg>
