<?xml version="1.0" encoding="UTF-8" standalone="no"?>
<!DOCTYPE svg PUBLIC "-//W3C//DTD SVG 1.1//EN"
 "http://www.w3.org/Graphics/SVG/1.1/DTD/svg11.dtd">
<!-- Generated by graphviz version 2.40.1 (20161225.0304)
 -->
<!-- Title: %3 Pages: 1 -->
<svg width="576pt" height="138pt"
 viewBox="0.00 0.00 576.00 137.79" xmlns="http://www.w3.org/2000/svg" xmlns:xlink="http://www.w3.org/1999/xlink">
<g id="graph0" class="graph" transform="scale(.7593 .7593) rotate(0) translate(4 177.4558)">
<title>%3</title>
<polygon fill="#ffffff" stroke="transparent" points="-4,4 -4,-177.4558 754.553,-177.4558 754.553,4 -4,4"/>
<!-- N8589 -->
<g id="node1" class="node">
<title>N8589</title>
<ellipse fill="#8cd499" stroke="#000000" stroke-width="0" cx="114.427" cy="-155.4558" rx="51.2405" ry="18"/>
<text text-anchor="middle" x="114.427" y="-151.2558" font-family="Times,serif" font-size="14.00" fill="#000000">Dict (8589)</text>
</g>
<!-- N8591 -->
<g id="node2" class="node">
<title>N8591</title>
<polygon fill="#e38851" stroke="#000000" stroke-width="0" points="507.3749,-112.4558 355.671,-112.4558 355.671,-76.4558 507.3749,-76.4558 507.3749,-112.4558"/>
<text text-anchor="middle" x="431.523" y="-97.2558" font-family="Times,serif" font-size="14.00" fill="#000000">WorkChainNode (8591)</text>
<text text-anchor="middle" x="431.523" y="-83.2558" font-family="Times,serif" font-size="14.00" fill="#000000">State: running</text>
</g>
<!-- N8589&#45;&gt;N8591 -->
<g id="edge1" class="edge">
<title>N8589&#45;&gt;N8591</title>
<path fill="none" stroke="#000000" stroke-dasharray="5,2" d="M164.6309,-151.8287C210.2512,-147.8523 279.1864,-140.1369 337.8472,-126.4558 349.997,-123.6222 362.7888,-119.8225 374.8815,-115.8324"/>
<polygon fill="#000000" stroke="#000000" points="376.0558,-119.1301 384.4041,-112.6065 373.8098,-112.5002 376.0558,-119.1301"/>
<text text-anchor="middle" x="292.3506" y="-158.2558" font-family="Times,serif" font-size="14.00" fill="#000000">INPUT_WORK</text>
<text text-anchor="middle" x="292.3506" y="-144.2558" font-family="Times,serif" font-size="14.00" fill="#000000">input1</text>
</g>
<!-- N8597 -->
<g id="node3" class="node">
<title>N8597</title>
<ellipse fill="#8cd499" stroke="#000000" stroke-width="0" cx="674.8759" cy="-121.4558" rx="75.8547" ry="18"/>
<text text-anchor="middle" x="674.8759" y="-117.2558" font-family="Times,serif" font-size="14.00" fill="#000000">FolderData (8597)</text>
</g>
<!-- N8591&#45;&gt;N8597 -->
<g id="edge2" class="edge">
<title>N8591&#45;&gt;N8597</title>
<path fill="none" stroke="#000000" stroke-dasharray="5,2" d="M507.5203,-102.8878C535.5906,-106.0021 567.4552,-109.5375 595.7925,-112.6815"/>
<polygon fill="#000000" stroke="#000000" points="595.7344,-116.1965 606.0594,-113.8207 596.5064,-109.2392 595.7344,-116.1965"/>
<text text-anchor="middle" x="553.1987" y="-126.2558" font-family="Times,serif" font-size="14.00" fill="#000000">RETURN</text>
<text text-anchor="middle" x="553.1987" y="-112.2558" font-family="Times,serif" font-size="14.00" fill="#000000">output2</text>
</g>
<!-- N8596 -->
<g id="node4" class="node">
<title>N8596</title>
<ellipse fill="#8cd499" stroke="#000000" stroke-width="0" cx="674.8759" cy="-67.4558" rx="51.2405" ry="18"/>
<text text-anchor="middle" x="674.8759" y="-63.2558" font-family="Times,serif" font-size="14.00" fill="#000000">Dict (8596)</text>
</g>
<!-- N8591&#45;&gt;N8596 -->
<g id="edge3" class="edge">
<title>N8591&#45;&gt;N8596</title>
<path fill="none" stroke="#000000" stroke-dasharray="5,2" d="M506.2139,-76.4504C512.6101,-75.2927 519.0017,-74.2679 525.1987,-73.4558 554.0086,-69.6806 586.1808,-68.0578 613.293,-67.4277"/>
<polygon fill="#000000" stroke="#000000" points="613.488,-70.9247 623.4187,-67.2324 613.353,-63.926 613.488,-70.9247"/>
<text text-anchor="middle" x="553.1987" y="-90.2558" font-family="Times,serif" font-size="14.00" fill="#000000">RETURN</text>
<text text-anchor="middle" x="553.1987" y="-76.2558" font-family="Times,serif" font-size="14.00" fill="#000000">output1</text>
</g>
<!-- N8590 -->
<g id="node5" class="node">
<title>N8590</title>
<ellipse fill="#8cd499" stroke="#000000" stroke-width="0" cx="114.427" cy="-94.4558" rx="51.3557" ry="25.4118"/>
<text text-anchor="middle" x="114.427" y="-97.2558" font-family="Times,serif" font-size="14.00" fill="#000000">Int (8590)</text>
<text text-anchor="middle" x="114.427" y="-83.2558" font-family="Times,serif" font-size="14.00" fill="#000000">value: 3</text>
</g>
<!-- N8590&#45;&gt;N8591 -->
<g id="edge4" class="edge">
<title>N8590&#45;&gt;N8591</title>
<path fill="none" stroke="#000000" stroke-dasharray="5,2" d="M165.7264,-94.4558C214.2581,-94.4558 288.0289,-94.4558 345.5492,-94.4558"/>
<polygon fill="#000000" stroke="#000000" points="345.7253,-97.9559 355.7253,-94.4558 345.7252,-90.9559 345.7253,-97.9559"/>
<text text-anchor="middle" x="292.3506" y="-111.2558" font-family="Times,serif" font-size="14.00" fill="#000000">INPUT_WORK</text>
<text text-anchor="middle" x="292.3506" y="-97.2558" font-family="Times,serif" font-size="14.00" fill="#000000">input2</text>
</g>
<!-- N8588 -->
<g id="node6" class="node">
<title>N8588</title>
<ellipse fill="#4ca4b9" fill-opacity="0.666667" stroke="#000000" stroke-width="0" cx="114.427" cy="-25.4558" rx="114.3541" ry="25.4118"/>
<text text-anchor="middle" x="114.427" y="-28.2558" font-family="Times,serif" font-size="14.00" fill="#000000">Code (8588)</text>
<text text-anchor="middle" x="114.427" y="-14.2558" font-family="Times,serif" font-size="14.00" fill="#000000">exec@example_computer</text>
</g>
<!-- N8588&#45;&gt;N8591 -->
<g id="edge5" class="edge">
<title>N8588&#45;&gt;N8591</title>
<path fill="none" stroke="#000000" stroke-dasharray="5,2" d="M213.5828,-38.2832C252.6086,-44.2646 297.6235,-52.3286 337.8472,-62.4558 349.5653,-65.4061 361.9131,-69.1498 373.6607,-73.0284"/>
<polygon fill="#000000" stroke="#000000" points="372.7663,-76.4205 383.3605,-76.3038 375.0058,-69.7884 372.7663,-76.4205"/>
<text text-anchor="middle" x="292.3506" y="-79.2558" font-family="Times,serif" font-size="14.00" fill="#000000">INPUT_WORK</text>
<text text-anchor="middle" x="292.3506" y="-65.2558" font-family="Times,serif" font-size="14.00" fill="#000000">code</text>
</g>
</g>
</svg>
