<svg width="1439" height="358" viewBox="0 0 1439 358" fill="none" xmlns="http://www.w3.org/2000/svg">
<path d="M232.448 221.866C224.342 233.246 220.976 240.112 218.289 253.725H273.746V231.306L336.873 269.654L273.746 305.642V283.223H218.289C221.066 296.693 223.296 303.403 232.448 314.492C240.672 324.83 245.958 329.392 256.047 336.321C266.177 341.853 271.956 344.194 282.596 345.76C299.281 346.576 308.27 346.077 322.714 341.04C336.217 335.005 342.939 331.245 352.212 320.391C361.556 310.995 363.422 305.642 368.732 293.253C371.61 284.363 372.529 279.136 372.271 269.654C372.561 260.285 371.216 254.872 368.868 245.424L368.732 244.875C364.179 232.629 360.169 226.498 352.212 215.967C342.783 206.563 336.389 202.123 322.714 195.908C308.302 191.356 299.587 190.293 282.596 191.778C268.676 195.044 263.091 197.138 256.047 201.217C245.833 206.993 240.705 211.604 232.448 221.866Z" fill="#0096DE"/>
<path d="M177.501 238.379C171.698 225.669 167.435 219.321 156.99 210.187L129.262 258.215L148.677 269.424L83.903 304.919L84.2998 232.256L103.715 243.465L131.444 195.438C118.391 191.108 111.464 189.684 97.2848 192.066C84.2194 194.019 77.6262 196.316 66.581 201.589C56.7249 207.596 51.8084 211.429 45.1318 219.861C36.0828 233.903 32.0208 241.937 29.1602 256.964C27.6351 271.676 27.5307 279.377 32.2935 292.835C35.759 305.624 39.462 309.917 47.5367 320.71C53.7961 327.648 57.8629 331.058 66.2039 335.575C74.1727 340.511 79.5336 342.052 88.8898 344.743L89.4329 344.899C102.314 347.079 109.629 346.673 122.728 345.047C135.586 341.583 142.629 338.266 154.849 329.53C165.996 319.325 171.274 312.309 178.484 296.852C182.616 283.164 183.595 277.28 183.584 269.14C183.689 257.407 182.26 250.66 177.501 238.379Z" fill="#30B808"/>
<path d="M190.928 183.231C204.837 184.561 212.466 184.043 225.598 179.564L197.869 131.537L178.454 142.746L180.101 68.9026L242.831 105.578L223.416 116.787L251.145 164.815C261.421 155.675 266.117 150.389 271.144 136.918C275.986 124.627 277.293 117.768 278.249 105.567C277.975 94.0274 277.113 87.8529 273.15 77.855C265.514 62.9974 260.587 55.4626 249.003 45.4716C237.025 36.7949 230.408 32.8538 216.371 30.2497C203.563 26.8561 197.994 27.9166 184.609 29.5129C175.471 31.4649 170.485 33.2821 162.402 38.2468C154.144 42.6803 150.128 46.5522 143.12 53.3095L142.713 53.7017C134.384 63.7674 131.079 70.3056 125.937 82.462C122.508 95.3301 121.859 103.087 123.315 118.038C126.579 132.795 130.016 140.873 139.797 154.846C149.586 165.268 154.191 169.058 161.246 173.118C171.355 179.076 177.913 181.212 190.928 183.231Z" fill="#FF7D17"/>
<path fill-rule="evenodd" clip-rule="evenodd" d="M552.617 33.0108C551.673 35.2174 519.802 105.121 481.791 188.352C443.781 271.584 412.415 340.606 412.09 341.735C411.542 343.633 412.989 343.788 431.226 343.788H450.953L468.271 305.653L485.59 267.518L554.524 267.82L623.458 268.123L640.505 305.662L657.553 343.201L677.637 343.523L697.722 343.843L696.09 340.003C695.191 337.89 663.863 269.12 626.471 187.179C589.078 105.238 557.55 36.1266 556.408 33.5974L554.332 29L552.617 33.0108ZM1224.67 185.018C1185.65 270.616 1153.44 341.369 1153.11 342.247C1152.6 343.564 1156.02 343.788 1172.58 343.523L1192.67 343.201L1208.82 307.422C1217.7 287.743 1225.53 270.719 1226.22 269.589C1227.39 267.672 1231.97 267.536 1295.58 267.536C1348.68 267.536 1363.95 267.86 1364.86 269.003C1365.49 269.81 1373.42 286.834 1382.46 306.835L1398.91 343.201L1418.79 343.523C1429.72 343.698 1438.67 343.571 1438.67 343.237C1438.67 342.646 1298.02 33.7639 1296.43 30.8594C1295.97 30.0241 1264.94 96.6736 1224.67 185.018ZM929.886 59.3117V76.3216L957.601 76.3239C1002.34 76.3286 1026.2 78.9786 1048.45 86.4137C1060.59 90.4691 1075.6 98.3324 1085.47 105.807C1104.72 120.382 1117.2 143.025 1121.92 171.929C1124.61 188.431 1123.68 211.308 1119.7 226.724C1116.05 240.836 1108.1 256.563 1099.32 267.059C1091.7 276.153 1079.74 285.706 1068.75 291.478C1058.34 296.941 1042.8 302.269 1029.29 305.002C1015.16 307.86 994.957 309.758 978.605 309.764L966.061 309.768V232.93V156.092H947.973H929.886V250.047V344L974.521 343.462C1008.29 343.054 1022.22 342.444 1031.75 340.957C1062.8 336.11 1090.15 324.437 1111.93 306.747C1125 296.136 1137.68 280.147 1145.67 264.218C1151.55 252.501 1157.13 234.11 1159.27 219.439C1160.75 209.208 1161.07 201.556 1160.57 187.766C1159.79 166.401 1156.99 151.607 1150.43 134.094C1140.71 108.155 1124.68 87.7381 1101.42 71.6831C1091.06 64.5261 1074.88 56.9056 1060.53 52.4244C1034.5 44.2913 1015.98 42.3264 965.186 42.3123L929.886 42.3017V59.3117ZM738.142 45.841C732.972 47.4012 727.04 52.5593 724.372 57.8171C722.437 61.6309 722.023 64.187 722.396 70.0537C722.915 78.2466 724.695 81.4679 731.984 87.3979C735.993 90.6592 737.158 90.9853 744.83 90.9853C752.081 90.9853 753.948 90.5313 758.118 87.7581C763.247 84.3455 766.979 78.3545 768.264 71.4685C769.486 64.9237 766.914 57.6435 761.434 52.1346C754.854 45.5196 746.6 43.2883 738.142 45.841ZM838.442 46.3665C833.004 48.315 827.973 52.9499 825.417 58.3673C823.057 63.3647 822.972 73.8581 825.255 78.2947C827.683 83.0176 832.956 88.1018 837.37 89.9764C842.915 92.332 851.347 91.9531 857.245 89.0837C863.105 86.2319 867.731 79.9816 869.353 72.7237C871.004 65.3367 868.13 56.6217 862.296 51.3229C857.716 47.1631 851.403 44.621 845.867 44.7054C844.263 44.7312 840.922 45.4773 838.442 46.3665ZM581.505 173.15L607.676 232.93L555.051 233.235C526.107 233.403 502.183 233.297 501.887 232.999C501.467 232.577 524.514 179.065 552.19 116.207C553.468 113.303 554.699 111.477 554.924 112.149C555.149 112.821 567.111 140.272 581.505 173.15ZM1322.52 172.37C1336.98 205.456 1348.81 232.749 1348.81 233.022C1348.81 233.294 1324.86 233.517 1295.59 233.517C1253.49 233.517 1242.49 233.21 1242.94 232.05C1245.74 224.879 1295.63 111.625 1295.89 111.879C1296.07 112.063 1308.05 139.284 1322.52 172.37ZM727.619 156.875C727.191 157.304 726.84 199.535 726.84 250.722V343.788H744.928H763.015V249.94V156.092H745.706C736.185 156.092 728.046 156.444 727.619 156.875ZM828.363 249.94V343.788H846.451H864.538V249.94V156.092H846.451H828.363V249.94Z" fill="black"/>
</svg>
