<?xml version="1.0" encoding="utf-8"?>
<!-- Generator: Adobe Illustrator 15.0.2, SVG Export Plug-In . SVG Version: 6.00 Build 0)  -->
<!DOCTYPE svg PUBLIC "-//W3C//DTD SVG 1.1//EN" "http://www.w3.org/Graphics/SVG/1.1/DTD/svg11.dtd">
<svg version="1.1"
	 id="Layer_1" sodipodi:docname="AiiDA final white.svg" inkscape:version="0.48.3.1 r9886" xmlns:sodipodi="http://sodipodi.sourceforge.net/DTD/sodipodi-0.dtd" xmlns:inkscape="http://www.inkscape.org/namespaces/inkscape" xmlns:rdf="http://www.w3.org/1999/02/22-rdf-syntax-ns#" xmlns:svg="http://www.w3.org/2000/svg" xmlns:cc="http://creativecommons.org/ns#" xmlns:dc="http://purl.org/dc/elements/1.1/"
	 xmlns="http://www.w3.org/2000/svg" xmlns:xlink="http://www.w3.org/1999/xlink" x="0px" y="0px" width="363.671px"
	 height="35.417px" viewBox="0 0 363.671 35.417" enable-background="new 0 0 363.671 35.417" xml:space="preserve">
<path id="path3" fill="#FF7D17" d="M16.9,2.213c4.24,0,7.677,3.437,7.677,7.677c0,2.327-1.036,4.412-2.672,5.82l-2.71-4.695
	l1.951-1.125l-3.184-1.84l-3.185-1.837v3.677v3.678l1.95-1.127l2.711,4.697c-0.795,0.278-1.649,0.43-2.539,0.43
	c-4.24,0-7.677-3.438-7.677-7.675C9.222,5.65,12.66,2.213,16.9,2.213"/>
<path id="path5" fill="#30B808" d="M7.678,33.54c4.24,0,7.678-3.438,7.678-7.679c0-2.328-1.036-4.412-2.672-5.819l-2.71,4.694
	l1.95,1.125l-3.184,1.84l-3.185,1.838v-3.678v-3.676l1.95,1.125l2.711-4.695c-0.795-0.278-1.649-0.43-2.539-0.43
	C3.437,18.185,0,21.622,0,25.861C0,30.101,3.438,33.54,7.678,33.54"/>
<path id="path7" fill="#0096DE" d="M32.77,22.023c-2.12-3.672-6.815-4.93-10.487-2.81c-2.016,1.163-3.304,3.104-3.706,5.226h5.421
	v-2.254l3.185,1.84l3.184,1.838l-3.184,1.838l-3.185,1.84v-2.252h-5.422c0.156,0.826,0.452,1.645,0.896,2.412
	c2.121,3.674,6.815,4.932,10.487,2.812C33.631,30.39,34.889,25.695,32.77,22.023"/>
<path id="path9" fill="#FFFFFF" d="M56.029,23.006h-10.63l5.315-12.098L56.029,23.006z M57.576,26.417l3.412,7.497h4.006
	L50.714,2.737l-14.28,31.178h4.006l3.412-7.497H57.576z"/>
<rect id="rect11" x="67.89" y="15.351" fill="#FFFFFF" width="3.571" height="18.563"/>
<rect id="rect13" x="77.965" y="15.351" fill="#FFFFFF" width="3.569" height="18.563"/>
<rect id="rect15" x="77.965" y="15.351" fill="#FFFFFF" width="3.569" height="18.563"/>
<path id="path17" sodipodi:nodetypes="cccccccccscccccccccc" inkscape:connector-curvature="0" fill="#FFFFFF" d="M91.61,15.351
	h-3.568v15.151v3.412h3.568h2.5c1.962,0.021,3.593-0.2,5.382-0.515c4.896-1.143,8.916-4.008,10.65-8.854
	c1.746-4.854,0.971-11.408-2.398-15.253c-3.467-3.979-8.521-5.221-13.634-5.221h-6.068v3.412c1.68,0,3.357,0,5.037,0
	c3.989-0.018,8.487,0.774,11.397,3.729c2.938,2.982,3.51,8.453,2.057,12.281c-1.521,4.008-5.006,5.92-9.051,6.646
	c-1.408,0.243-2.87,0.368-4.403,0.361H91.77h-0.16V15.351z"/>
<path id="path19" fill="#FFFFFF" d="M129.718,23.006h-10.631l5.316-12.098L129.718,23.006z M131.267,26.417l3.41,7.497h4.008
	L124.404,2.737l-14.279,31.178h4.006l3.412-7.497H131.267z"/>
<path id="path21" fill="#FFFFFF" d="M69.675,4.301c1.293,0,2.342,1.049,2.342,2.342s-1.049,2.342-2.342,2.342
	s-2.342-1.047-2.342-2.342C67.333,5.35,68.381,4.301,69.675,4.301"/>
<path id="path23" fill="#FFFFFF" d="M79.751,4.301c1.293,0,2.342,1.049,2.342,2.342s-1.049,2.342-2.342,2.342
	c-1.294,0-2.342-1.047-2.342-2.342C77.409,5.35,78.457,4.301,79.751,4.301"/>
<g>
	<path fill="#FFFFFF" d="M143.948,4.095l7.82,22.317l9.639-23.856l9.638,23.856l7.821-22.317h3.594l-11.416,31.323l-9.638-23.976
		l-9.639,23.976L140.353,4.095H143.948z"/>
	<path fill="#FFFFFF" d="M197.115,25.267h-14.576c0.026,1.737,0.605,3.207,1.738,4.403c1.133,1.199,2.58,1.798,4.346,1.798
		c2.344,0,4.227-1.277,5.647-3.832l2.687,1.541c-1.869,3.477-4.728,5.215-8.572,5.215c-2.711,0-4.903-0.916-6.575-2.746
		c-1.673-1.83-2.509-4.102-2.509-6.813c0-2.869,0.803-5.259,2.41-7.169c1.605-1.909,3.805-2.864,6.596-2.864
		c2.869,0,5.096,1.021,6.676,3.062C196.561,19.9,197.272,22.37,197.115,25.267z M182.697,22.581h11.1
		c-0.211-1.369-0.83-2.521-1.855-3.456c-1.027-0.936-2.227-1.402-3.595-1.402c-1.37,0-2.606,0.475-3.714,1.422
		C183.526,20.092,182.88,21.238,182.697,22.581z"/>
	<path fill="#FFFFFF" d="M200.274,33.877V1.292h3.16v16.667h0.079c1.605-2.105,3.727-3.16,6.359-3.16
		c2.687,0,4.844,0.955,6.479,2.864c1.632,1.909,2.447,4.221,2.447,6.933c0,2.686-0.822,4.99-2.469,6.912
		c-1.646,1.924-3.785,2.885-6.418,2.885c-2.738,0-4.871-1.027-6.398-3.082h-0.079v2.567H200.274z M209.32,17.722
		c-1.765,0-3.213,0.658-4.345,1.975c-1.134,1.318-1.699,2.885-1.699,4.701c0,1.922,0.548,3.582,1.64,4.978
		c1.094,1.396,2.574,2.094,4.443,2.094c1.949,0,3.471-0.678,4.562-2.034c1.092-1.355,1.64-3.021,1.64-4.996
		c0-1.922-0.567-3.521-1.699-4.801C212.73,18.361,211.214,17.722,209.32,17.722z"/>
	<path fill="#FFFFFF" d="M231.515,4.095v29.783h-3.318V4.095H231.515z"/>
	<path fill="#FFFFFF" d="M239.691,15.312v2.252h0.079c1.343-1.844,3.106-2.766,5.293-2.766c2.37,0,4.017,0.725,4.938,2.172
		c0.92,1.449,1.381,3.411,1.381,5.887v11.021h-3.158V23.41c0-0.895-0.033-1.625-0.1-2.192c-0.065-0.565-0.217-1.146-0.455-1.737
		c-0.235-0.592-0.639-1.033-1.203-1.322c-0.566-0.291-1.284-0.436-2.153-0.436c-0.843,0-1.56,0.158-2.151,0.475
		c-0.594,0.316-1.047,0.697-1.363,1.146c-0.315,0.448-0.561,1.027-0.73,1.738c-0.172,0.711-0.275,1.351-0.314,1.916
		c-0.041,0.565-0.061,1.258-0.061,2.073v8.809h-3.16V15.312H239.691z"/>
	<path fill="#FFFFFF" d="M259.679,18.236v15.642h-3.16V18.236h-1.936v-2.924h1.936V8.637h3.16v6.675h3.316v2.924H259.679z"/>
	<path fill="#FFFFFF" d="M280.968,25.267h-14.575c0.026,1.737,0.604,3.207,1.737,4.403c1.133,1.199,2.58,1.798,4.346,1.798
		c2.344,0,4.227-1.277,5.648-3.832l2.686,1.541c-1.869,3.477-4.727,5.215-8.571,5.215c-2.712,0-4.903-0.916-6.575-2.746
		c-1.674-1.83-2.51-4.102-2.51-6.813c0-2.869,0.803-5.259,2.41-7.169c1.605-1.909,3.805-2.864,6.596-2.864
		c2.87,0,5.096,1.021,6.676,3.062C280.416,19.9,281.126,22.37,280.968,25.267z M266.55,22.581h11.101
		c-0.211-1.369-0.83-2.521-1.856-3.456s-2.226-1.402-3.594-1.402c-1.371,0-2.607,0.475-3.714,1.422
		C267.38,20.092,266.735,21.238,266.55,22.581z"/>
	<path fill="#FFFFFF" d="M287.289,15.312v2.014h0.078c0.658-0.868,1.271-1.506,1.838-1.915c0.564-0.408,1.322-0.612,2.271-0.612
		c0.868,0,1.815,0.29,2.844,0.869l-1.501,2.883c-0.816-0.553-1.447-0.828-1.896-0.828c-2.422,0-3.633,2.291-3.633,6.872v9.282h-3.16
		V15.312H287.289z"/>
	<path fill="#FFFFFF" d="M300.718,18.236v15.642h-3.16V18.236h-1.738v-2.924h1.738V7.926c0-2.316,0.275-3.923,0.83-4.818
		c0.975-1.553,2.566-2.332,4.779-2.332c0.658,0,1.408,0.133,2.25,0.396v3.2c-0.869-0.29-1.58-0.436-2.133-0.436
		c-0.5,0-0.914,0.086-1.244,0.258c-0.328,0.17-0.586,0.361-0.771,0.572c-0.184,0.211-0.314,0.573-0.395,1.086
		c-0.078,0.514-0.125,0.963-0.139,1.344s-0.02,0.994-0.02,1.836v6.281h4.699v2.922h-4.697V18.236z"/>
	<path fill="#FFFFFF" d="M324.021,15.312v18.565h-3.158V31.31h-0.078c-1.607,2.055-3.74,3.082-6.4,3.082
		c-2.633,0-4.771-0.961-6.418-2.885c-1.646-1.922-2.469-4.213-2.469-6.873c0-2.738,0.816-5.062,2.449-6.972s3.791-2.864,6.477-2.864
		c2.607,0,4.729,1.055,6.361,3.16h0.078v-2.646H324.021z M314.779,17.722c-1.764,0-3.213,0.658-4.346,1.975
		c-1.133,1.318-1.697,2.885-1.697,4.701c0,1.922,0.547,3.582,1.639,4.978c1.094,1.396,2.574,2.094,4.445,2.094
		c1.947,0,3.469-0.678,4.561-2.034c1.092-1.355,1.639-3.021,1.639-4.996c0-1.922-0.564-3.521-1.697-4.801
		C318.189,18.361,316.675,17.722,314.779,17.722z"/>
	<path fill="#FFFFFF" d="M342.625,16.656v4.187h-0.078c-1.633-2.079-3.555-3.12-5.768-3.12c-1.869,0-3.432,0.672-4.682,2.016
		c-1.25,1.343-1.875,2.961-1.875,4.857s0.592,3.516,1.777,4.858c1.184,1.343,2.725,2.015,4.621,2.015
		c2.395,0,4.41-1.066,6.043-3.199h0.08v4.227c-1.871,1.265-3.832,1.896-5.887,1.896c-2.818,0-5.168-0.936-7.051-2.806
		c-1.883-1.869-2.824-4.2-2.824-6.991c0-2.738,0.969-5.057,2.902-6.951c1.938-1.896,4.273-2.845,7.012-2.845
		C338.978,14.798,340.888,15.418,342.625,16.656z"/>
	<path fill="#FFFFFF" d="M362.771,25.267h-14.574c0.025,1.737,0.604,3.207,1.736,4.403c1.133,1.199,2.58,1.798,4.346,1.798
		c2.344,0,4.227-1.277,5.648-3.832l2.686,1.541c-1.869,3.477-4.727,5.215-8.57,5.215c-2.713,0-4.904-0.916-6.576-2.746
		c-1.674-1.83-2.51-4.102-2.51-6.813c0-2.869,0.803-5.259,2.41-7.169c1.605-1.909,3.805-2.864,6.596-2.864
		c2.871,0,5.096,1.021,6.676,3.062C362.218,19.9,362.929,22.37,362.771,25.267z M348.353,22.581h11.102
		c-0.211-1.369-0.83-2.521-1.857-3.456c-1.025-0.936-2.225-1.402-3.594-1.402c-1.371,0-2.607,0.475-3.713,1.422
		C349.183,20.092,348.539,21.238,348.353,22.581z"/>
</g>
</svg>
