<?xml version="1.0" encoding="UTF-8" standalone="no"?>
<svg
   width="344.08704"
   height="318.39374"
   viewBox="0 0 344.08704 318.39374"
   fill="none"
   version="1.1"
   id="svg10"
   sodipodi:docname="logo-aiida-gray.svg"
   inkscape:version="1.2.2 (732a01da63, 2022-12-09)"
   xmlns:inkscape="http://www.inkscape.org/namespaces/inkscape"
   xmlns:sodipodi="http://sodipodi.sourceforge.net/DTD/sodipodi-0.dtd"
   xmlns="http://www.w3.org/2000/svg"
   xmlns:svg="http://www.w3.org/2000/svg">
  <defs
     id="defs14" />
  <sodipodi:namedview
     id="namedview12"
     pagecolor="#ffffff"
     bordercolor="#000000"
     borderopacity="0.25"
     inkscape:showpageshadow="2"
     inkscape:pageopacity="0.0"
     inkscape:pagecheckerboard="0"
     inkscape:deskcolor="#d1d1d1"
     showgrid="false"
     inkscape:zoom="0.84155664"
     inkscape:cx="686.22832"
     inkscape:cy="150.31668"
     inkscape:window-width="1918"
     inkscape:window-height="2080"
     inkscape:window-x="-7"
     inkscape:window-y="0"
     inkscape:window-maximized="0"
     inkscape:current-layer="svg10" />
  <path
     d="m 204.22261,193.85786 c -8.106,11.38 -11.472,18.246 -14.159,31.859 h 55.457 v -22.419 l 63.127,38.348 -63.127,35.988 v -22.419 h -55.457 c 2.777,13.47 5.007,20.18 14.159,31.269 8.224,10.338 13.51,14.9 23.599,21.829 10.13,5.532 15.909,7.873 26.549,9.439 16.685,0.816 25.674,0.317 40.118,-4.72 13.503,-6.035 20.225,-9.795 29.498,-20.649 9.344,-9.396 11.21,-14.749 16.52,-27.138 2.878,-8.89 3.797,-14.117 3.539,-23.599 0.29,-9.369 -1.055,-14.782 -3.403,-24.23 l -0.136,-0.549 c -4.553,-12.246 -8.563,-18.377 -16.52,-28.908 -9.429,-9.404 -15.823,-13.844 -29.498,-20.059 -14.412,-4.552 -23.127,-5.615 -40.118,-4.13 -13.92,3.266 -19.505,5.36 -26.549,9.439 -10.214,5.776 -15.342,10.387 -23.599,20.649 z"
     fill="#0096DE"
     id="path2"
     style="fill:#646464;fill-opacity:1" />
  <path
     d="m 149.27561,210.37086 c -5.803,-12.71 -10.066,-19.058 -20.511,-28.192 l -27.728,48.028 19.415,11.209 -64.774005,35.495 0.3968,-72.663 19.4152,11.209 27.729005,-48.027 c -13.053005,-4.33 -19.980005,-5.754 -34.159205,-3.372 -13.0654,1.953 -19.6586,4.25 -30.7038,9.523 -9.8561,6.007 -14.7726,9.84 -21.4492,18.272 -9.049,14.042 -13.111,22.076 -15.97159999,37.103 -1.5251,14.712 -1.6295,22.413 3.13329999,35.871 3.4655,12.789 7.1685,17.082 15.2432,27.875 6.2594,6.938 10.3262,10.348 18.6672,14.865 7.9688,4.936 13.3297,6.477 22.6859,9.168 l 0.5431,0.156 c 12.8811,2.18 20.1961,1.774 33.2951,0.148 12.858005,-3.464 19.901005,-6.781 32.121005,-15.517 11.147,-10.205 16.425,-17.221 23.635,-32.678 4.132,-13.688 5.111,-19.572 5.1,-27.712 0.105,-11.733 -1.324,-18.48 -6.083,-30.761 z"
     fill="#30B808"
     id="path4"
     style="fill:#646464;fill-opacity:1" />
  <path
     d="m 162.70261,155.22286 c 13.909,1.33 21.538,0.812 34.67,-3.667 l -27.729,-48.027 -19.415,11.209 1.647,-73.843395 62.73,36.6754 -19.415,11.209 27.729,48.027995 c 10.276,-9.14 14.972,-14.426 19.999,-27.897 4.842,-12.290995 6.149,-19.149995 7.105,-31.350995 -0.274,-11.5396 -1.136,-17.7141 -5.099,-27.712 -7.636,-14.8576 -12.563,-22.3924 -24.147,-32.3834 -11.978,-8.6767003 -18.595,-12.6178003 -32.632,-15.2219003 -12.808,-3.3936 -18.377,-2.33309995 -31.762,-0.7368 -9.138,1.952 -14.124,3.7692 -22.207,8.7339003 -8.258,4.4335 -12.274,8.3054 -19.282,15.0627 l -0.407,0.3922 c -8.329,10.0657 -11.634,16.6039 -16.776005,28.7603 -3.429,12.8681 -4.078,20.625 -2.622,35.576 3.264,14.756995 6.701005,22.834995 16.482005,36.807995 9.789,10.422 14.394,14.212 21.449,18.272 10.109,5.958 16.667,8.094 29.682,10.113 z"
     fill="#FF7D17"
     id="path6"
     style="fill:#646464;fill-opacity:1" />
</svg>
