<?xml version="1.0" encoding="UTF-8" standalone="no"?>
<!DOCTYPE svg PUBLIC "-//W3C//DTD SVG 1.1//EN"
 "http://www.w3.org/Graphics/SVG/1.1/DTD/svg11.dtd">
<!-- Generated by graphviz version 2.40.1 (20161225.0304)
 -->
<!-- Title: %3 Pages: 1 -->
<svg width="647pt" height="232pt"
 viewBox="0.00 0.00 647.10 231.82" xmlns="http://www.w3.org/2000/svg" xmlns:xlink="http://www.w3.org/1999/xlink">
<g id="graph0" class="graph" transform="scale(1 1) rotate(0) translate(4 227.8234)">
<title>%3</title>
<polygon fill="#ffffff" stroke="transparent" points="-4,4 -4,-227.8234 643.1028,-227.8234 643.1028,4 -4,4"/>
<!-- N8592 -->
<g id="node1" class="node">
<title>N8592</title>
<polygon fill="#de707f" stroke="#000000" stroke-width="0" points="346.928,-136.9117 214.4236,-136.9117 214.4236,-86.9117 346.928,-86.9117 346.928,-136.9117"/>
<text text-anchor="middle" x="280.6758" y="-121.7117" font-family="Times,serif" font-size="14.00" fill="#000000">CalcJobNode (8592)</text>
<text text-anchor="middle" x="280.6758" y="-107.7117" font-family="Times,serif" font-size="14.00" fill="#000000">State: finished</text>
<text text-anchor="middle" x="280.6758" y="-93.7117" font-family="Times,serif" font-size="14.00" fill="#000000">Exit Code: 0</text>
</g>
<!-- N8593 -->
<g id="node6" class="node">
<title>N8593</title>
<ellipse fill="#8cd499" stroke="#000000" stroke-width="0" cx="280.6758" cy="-25.4558" rx="96.0917" ry="25.4118"/>
<text text-anchor="middle" x="280.6758" y="-28.2558" font-family="Times,serif" font-size="14.00" fill="#000000">RemoteData (8593)</text>
<text text-anchor="middle" x="280.6758" y="-14.2558" font-family="Times,serif" font-size="14.00" fill="#000000">@example_computer</text>
</g>
<!-- N8592&#45;&gt;N8593 -->
<g id="edge5" class="edge">
<title>N8592&#45;&gt;N8593</title>
<path fill="none" stroke="#000000" d="M280.6758,-86.9051C280.6758,-78.8923 280.6758,-69.8571 280.6758,-61.2303"/>
<polygon fill="#000000" stroke="#000000" points="284.1759,-61.0062 280.6758,-51.0062 277.1759,-61.0063 284.1759,-61.0062"/>
</g>
<!-- N8591 -->
<g id="node2" class="node">
<title>N8591</title>
<polygon fill="#e38851" stroke="#000000" stroke-width="0" points="151.5278,-216.3675 -.1762,-216.3675 -.1762,-180.3675 151.5278,-180.3675 151.5278,-216.3675"/>
<text text-anchor="middle" x="75.6758" y="-201.1675" font-family="Times,serif" font-size="14.00" fill="#000000">WorkChainNode (8591)</text>
<text text-anchor="middle" x="75.6758" y="-187.1675" font-family="Times,serif" font-size="14.00" fill="#000000">State: running</text>
</g>
<!-- N8591&#45;&gt;N8592 -->
<g id="edge1" class="edge">
<title>N8591&#45;&gt;N8592</title>
<path fill="none" stroke="#000000" stroke-dasharray="1,5" d="M118.6505,-180.2436C145.5698,-168.8907 180.8716,-154.0027 211.65,-141.0223"/>
<polygon fill="#000000" stroke="#000000" points="213.1884,-144.1721 221.0424,-137.0612 210.4682,-137.7223 213.1884,-144.1721"/>
</g>
<!-- N8590 -->
<g id="node3" class="node">
<title>N8590</title>
<ellipse fill="#8cd499" stroke="#000000" stroke-width="0" cx="220.6758" cy="-198.3675" rx="51.3557" ry="25.4118"/>
<text text-anchor="middle" x="220.6758" y="-201.1675" font-family="Times,serif" font-size="14.00" fill="#000000">Int (8590)</text>
<text text-anchor="middle" x="220.6758" y="-187.1675" font-family="Times,serif" font-size="14.00" fill="#000000">value: 3</text>
</g>
<!-- N8590&#45;&gt;N8592 -->
<g id="edge2" class="edge">
<title>N8590&#45;&gt;N8592</title>
<path fill="none" stroke="#000000" d="M237.3891,-174.2848C243.6111,-165.3193 250.7886,-154.9771 257.4876,-145.3242"/>
<polygon fill="#000000" stroke="#000000" points="260.3894,-147.2817 263.2155,-137.0708 254.6386,-143.2907 260.3894,-147.2817"/>
</g>
<!-- N8589 -->
<g id="node4" class="node">
<title>N8589</title>
<ellipse fill="#8cd499" stroke="#000000" stroke-width="0" cx="340.6758" cy="-198.3675" rx="51.2405" ry="18"/>
<text text-anchor="middle" x="340.6758" y="-194.1675" font-family="Times,serif" font-size="14.00" fill="#000000">Dict (8589)</text>
</g>
<!-- N8589&#45;&gt;N8592 -->
<g id="edge3" class="edge">
<title>N8589&#45;&gt;N8592</title>
<path fill="none" stroke="#000000" d="M328.5339,-180.8719C321.4799,-170.7076 312.3549,-157.5591 303.9673,-145.4731"/>
<polygon fill="#000000" stroke="#000000" points="306.6072,-143.1382 298.0303,-136.9183 300.8564,-147.1293 306.6072,-143.1382"/>
</g>
<!-- N8588 -->
<g id="node5" class="node">
<title>N8588</title>
<ellipse fill="#4ca4b9" fill-opacity="0.666667" stroke="#000000" stroke-width="0" cx="524.6758" cy="-198.3675" rx="114.3541" ry="25.4118"/>
<text text-anchor="middle" x="524.6758" y="-201.1675" font-family="Times,serif" font-size="14.00" fill="#000000">Code (8588)</text>
<text text-anchor="middle" x="524.6758" y="-187.1675" font-family="Times,serif" font-size="14.00" fill="#000000">exec@example_computer</text>
</g>
<!-- N8588&#45;&gt;N8592 -->
<g id="edge4" class="edge">
<title>N8588&#45;&gt;N8592</title>
<path fill="none" stroke="#000000" d="M463.7337,-176.7741C431.2196,-165.2535 390.91,-150.9707 356.3999,-138.7428"/>
<polygon fill="#000000" stroke="#000000" points="357.4261,-135.3933 346.8314,-135.3524 355.0882,-141.9913 357.4261,-135.3933"/>
</g>
</g>
</svg>
