<?xml version="1.0" encoding="UTF-8" standalone="no"?>
<!DOCTYPE svg PUBLIC "-//W3C//DTD SVG 1.1//EN"
 "http://www.w3.org/Graphics/SVG/1.1/DTD/svg11.dtd">
<!-- Generated by graphviz version 2.40.1 (20161225.0304)
 -->
<!-- Title: %3 Pages: 1 -->
<svg width="432pt" height="152pt"
 viewBox="0.00 0.00 432.00 151.71" xmlns="http://www.w3.org/2000/svg" xmlns:xlink="http://www.w3.org/1999/xlink">
<g id="graph0" class="graph" transform="scale(.6642 .6642) rotate(0) translate(4 224.3939)">
<title>%3</title>
<polygon fill="#ffffff" stroke="transparent" points="-4,4 -4,-224.3939 646.3712,-224.3939 646.3712,4 -4,4"/>
<!-- N8592 -->
<g id="node1" class="node">
<title>N8592</title>
<ellipse fill="#8cd499" stroke="#000000" stroke-width="0" cx="376.6723" cy="-99" rx="93.5325" ry="35.2113"/>
<text text-anchor="middle" x="376.6723" y="-108.8" font-family="Times,serif" font-size="14.00" fill="#000000">CalcJobNode (8592)</text>
<text text-anchor="middle" x="376.6723" y="-94.8" font-family="Times,serif" font-size="14.00" fill="#000000">State: finished</text>
<text text-anchor="middle" x="376.6723" y="-80.8" font-family="Times,serif" font-size="14.00" fill="#000000">Exit Code: 0</text>
</g>
<!-- N8593 -->
<g id="node6" class="node">
<title>N8593</title>
<polygon fill="none" stroke="#000000" points="642.4626,-117 506.0971,-117 506.0971,-81 642.4626,-81 642.4626,-117"/>
<text text-anchor="middle" x="574.2799" y="-101.8" font-family="Times,serif" font-size="14.00" fill="#000000">RemoteData (8593)</text>
<text text-anchor="middle" x="574.2799" y="-87.8" font-family="Times,serif" font-size="14.00" fill="#000000">@example_computer</text>
</g>
<!-- N8592&#45;&gt;N8593 -->
<g id="edge5" class="edge">
<title>N8592&#45;&gt;N8593</title>
<path fill="none" stroke="#0000ff" d="M470.2679,-99C478.8493,-99 487.4833,-99 495.9099,-99"/>
<polygon fill="#0000ff" stroke="#0000ff" points="496.0682,-102.5001 506.0681,-99 496.0681,-95.5001 496.0682,-102.5001"/>
</g>
<!-- N8591 -->
<g id="node2" class="node">
<title>N8591</title>
<polygon fill="#e38851" stroke="#000000" stroke-width="0" points="247.2341,-191 185.4061,-220.2881 61.75,-220.2881 -.0781,-191 61.75,-161.7119 185.4061,-161.7119 247.2341,-191"/>
<text text-anchor="middle" x="123.578" y="-193.8" font-family="Times,serif" font-size="14.00" fill="#000000">WorkChainNode (8591)</text>
<text text-anchor="middle" x="123.578" y="-179.8" font-family="Times,serif" font-size="14.00" fill="#000000">State: running</text>
</g>
<!-- N8591&#45;&gt;N8592 -->
<g id="edge1" class="edge">
<title>N8591&#45;&gt;N8592</title>
<path fill="none" stroke="#0000ff" d="M200.4295,-168.6308C215.9874,-163.749 232.1675,-158.4148 247.1561,-153 266.4628,-146.0252 287.0919,-137.7915 306.0811,-129.8833"/>
<polygon fill="#0000ff" stroke="#0000ff" points="307.6836,-133.0066 315.551,-125.9105 304.9756,-126.5516 307.6836,-133.0066"/>
</g>
<!-- N8590 -->
<g id="node3" class="node">
<title>N8590</title>
<polygon fill="none" stroke="#000000" points="159.955,-144 87.2011,-144 87.2011,-108 159.955,-108 159.955,-144"/>
<text text-anchor="middle" x="123.578" y="-128.8" font-family="Times,serif" font-size="14.00" fill="#000000">Int (8590)</text>
<text text-anchor="middle" x="123.578" y="-114.8" font-family="Times,serif" font-size="14.00" fill="#000000">value: 3</text>
</g>
<!-- N8590&#45;&gt;N8592 -->
<g id="edge2" class="edge">
<title>N8590&#45;&gt;N8592</title>
<path fill="none" stroke="#0000ff" d="M159.8403,-122.1316C190.2722,-118.8851 235.2391,-114.088 276.3454,-109.7028"/>
<polygon fill="#0000ff" stroke="#0000ff" points="276.8521,-113.1687 286.4243,-108.6276 276.1095,-106.2082 276.8521,-113.1687"/>
</g>
<!-- N8589 -->
<g id="node4" class="node">
<title>N8589</title>
<polygon fill="none" stroke="#000000" points="164.0058,-90 83.1503,-90 83.1503,-54 164.0058,-54 164.0058,-90"/>
<text text-anchor="middle" x="123.578" y="-67.8" font-family="Times,serif" font-size="14.00" fill="#000000">Dict (8589)</text>
</g>
<!-- N8589&#45;&gt;N8592 -->
<g id="edge3" class="edge">
<title>N8589&#45;&gt;N8592</title>
<path fill="none" stroke="#0000ff" d="M164.242,-76.338C194.45,-79.5606 237.0202,-84.102 276.1278,-88.2739"/>
<polygon fill="#0000ff" stroke="#0000ff" points="276.2028,-91.8017 286.5177,-89.3823 276.9454,-84.8412 276.2028,-91.8017"/>
</g>
<!-- N8588 -->
<g id="node5" class="node">
<title>N8588</title>
<polygon fill="none" stroke="#000000" points="204.4023,-36 42.7537,-36 42.7537,0 204.4023,0 204.4023,-36"/>
<text text-anchor="middle" x="123.578" y="-20.8" font-family="Times,serif" font-size="14.00" fill="#000000">Code (8588)</text>
<text text-anchor="middle" x="123.578" y="-6.8" font-family="Times,serif" font-size="14.00" fill="#000000">exec@example_computer</text>
</g>
<!-- N8588&#45;&gt;N8592 -->
<g id="edge4" class="edge">
<title>N8588&#45;&gt;N8592</title>
<path fill="none" stroke="#0000ff" d="M204.564,-33.5022C218.8726,-36.8618 233.5407,-40.7126 247.1561,-45 267.225,-51.3196 288.4941,-59.5213 307.8692,-67.6159"/>
<polygon fill="#0000ff" stroke="#0000ff" points="306.6417,-70.8969 317.215,-71.5724 309.3706,-64.4508 306.6417,-70.8969"/>
</g>
</g>
</svg>
