<?xml version="1.0" encoding="UTF-8" standalone="no"?>
<!DOCTYPE svg PUBLIC "-//W3C//DTD SVG 1.1//EN"
 "http://www.w3.org/Graphics/SVG/1.1/DTD/svg11.dtd">
<!-- Generated by graphviz version 2.40.1 (20161225.0304)
 -->
<!-- Title: %3 Pages: 1 -->
<svg width="432pt" height="148pt"
 viewBox="0.00 0.00 432.00 148.03" xmlns="http://www.w3.org/2000/svg" xmlns:xlink="http://www.w3.org/1999/xlink">
<g id="graph0" class="graph" transform="scale(.6314 .6314) rotate(0) translate(4 230.4558)">
<title>%3</title>
<polygon fill="#ffffff" stroke="transparent" points="-4,4 -4,-230.4558 680.226,-230.4558 680.226,4 -4,4"/>
<!-- N8592 -->
<g id="node1" class="node">
<title>N8592</title>
<polygon fill="#de707f" stroke="#000000" points="423.3739,-141.4558 265.0138,-141.4558 265.0138,-91.4558 423.3739,-91.4558 423.3739,-141.4558"/>
<text text-anchor="middle" x="344.1938" y="-126.2558" font-family="Times,serif" font-size="14.00" fill="#000000">CalcJobNode (b23e692e)</text>
<text text-anchor="middle" x="344.1938" y="-112.2558" font-family="Times,serif" font-size="14.00" fill="#000000">State: finished</text>
<text text-anchor="middle" x="344.1938" y="-98.2558" font-family="Times,serif" font-size="14.00" fill="#000000">Exit Code: 0</text>
</g>
<!-- N8593 -->
<g id="node6" class="node">
<title>N8593</title>
<ellipse fill="#8cd499" stroke="#000000" cx="567.8799" cy="-116.4558" rx="108.1925" ry="25.4118"/>
<text text-anchor="middle" x="567.8799" y="-119.2558" font-family="Times,serif" font-size="14.00" fill="#000000">RemoteData (33c97bcd)</text>
<text text-anchor="middle" x="567.8799" y="-105.2558" font-family="Times,serif" font-size="14.00" fill="#000000">@example_computer</text>
</g>
<!-- N8592&#45;&gt;N8593 -->
<g id="edge5" class="edge">
<title>N8592&#45;&gt;N8593</title>
<path fill="none" stroke="#0000ff" d="M423.687,-116.4558C431.9906,-116.4558 440.5544,-116.4558 449.1728,-116.4558"/>
<polygon fill="#0000ff" stroke="#0000ff" points="449.3029,-119.9559 459.3028,-116.4558 449.3028,-112.9559 449.3029,-119.9559"/>
</g>
<!-- N8591 -->
<g id="node2" class="node">
<title>N8591</title>
<polygon fill="#e38851" stroke="#000000" points="203.2064,-226.4558 25.6476,-226.4558 25.6476,-190.4558 203.2064,-190.4558 203.2064,-226.4558"/>
<text text-anchor="middle" x="114.427" y="-211.2558" font-family="Times,serif" font-size="14.00" fill="#000000">WorkChainNode (0a8223e7)</text>
<text text-anchor="middle" x="114.427" y="-197.2558" font-family="Times,serif" font-size="14.00" fill="#000000">State: running</text>
</g>
<!-- N8591&#45;&gt;N8592 -->
<g id="edge1" class="edge">
<title>N8591&#45;&gt;N8592</title>
<path fill="none" stroke="#0000ff" stroke-dasharray="1,5" d="M202.3594,-190.388C211.4172,-187.7332 220.3937,-184.7612 228.854,-181.4558 252.3523,-172.2753 276.9029,-159.0187 297.284,-146.8687"/>
<polygon fill="#0000ff" stroke="#0000ff" points="299.3013,-149.7388 306.0413,-141.5643 295.6747,-143.7515 299.3013,-149.7388"/>
</g>
<!-- N8590 -->
<g id="node3" class="node">
<title>N8590</title>
<ellipse fill="#8cd499" stroke="#000000" cx="114.427" cy="-147.4558" rx="70.9531" ry="25.4118"/>
<text text-anchor="middle" x="114.427" y="-150.2558" font-family="Times,serif" font-size="14.00" fill="#000000">Int (6b413465)</text>
<text text-anchor="middle" x="114.427" y="-136.2558" font-family="Times,serif" font-size="14.00" fill="#000000">value: 3</text>
</g>
<!-- N8590&#45;&gt;N8592 -->
<g id="edge2" class="edge">
<title>N8590&#45;&gt;N8592</title>
<path fill="none" stroke="#0000ff" d="M180.8851,-138.4894C203.9496,-135.3775 230.2016,-131.8356 254.8097,-128.5155"/>
<polygon fill="#0000ff" stroke="#0000ff" points="255.4326,-131.9633 264.8748,-127.1575 254.4966,-125.0261 255.4326,-131.9633"/>
</g>
<!-- N8589 -->
<g id="node4" class="node">
<title>N8589</title>
<ellipse fill="#8cd499" stroke="#000000" cx="114.427" cy="-86.4558" rx="67.1351" ry="18"/>
<text text-anchor="middle" x="114.427" y="-82.2558" font-family="Times,serif" font-size="14.00" fill="#000000">Dict (0ea79a16)</text>
</g>
<!-- N8589&#45;&gt;N8592 -->
<g id="edge3" class="edge">
<title>N8589&#45;&gt;N8592</title>
<path fill="none" stroke="#0000ff" d="M175.0961,-94.3772C199.5002,-97.5636 228.1392,-101.3029 254.8403,-104.7892"/>
<polygon fill="#0000ff" stroke="#0000ff" points="254.597,-108.2871 264.966,-106.1113 255.5033,-101.346 254.597,-108.2871"/>
</g>
<!-- N8588 -->
<g id="node5" class="node">
<title>N8588</title>
<ellipse fill="#4ca4b9" fill-opacity="0.666667" stroke="#000000" cx="114.427" cy="-25.4558" rx="114.3541" ry="25.4118"/>
<text text-anchor="middle" x="114.427" y="-28.2558" font-family="Times,serif" font-size="14.00" fill="#000000">Code (beeeb810)</text>
<text text-anchor="middle" x="114.427" y="-14.2558" font-family="Times,serif" font-size="14.00" fill="#000000">exec@example_computer</text>
</g>
<!-- N8588&#45;&gt;N8592 -->
<g id="edge4" class="edge">
<title>N8588&#45;&gt;N8592</title>
<path fill="none" stroke="#0000ff" d="M187.3925,-45.1109C201.303,-49.426 215.6388,-54.2706 228.854,-59.4558 248.8671,-67.3083 270.1355,-77.3135 288.8863,-86.7426"/>
<polygon fill="#0000ff" stroke="#0000ff" points="287.3724,-89.8993 297.8725,-91.3133 290.5459,-83.66 287.3724,-89.8993"/>
</g>
</g>
</svg>
