<?xml version="1.0" encoding="UTF-8" standalone="no"?>
<!DOCTYPE svg PUBLIC "-//W3C//DTD SVG 1.1//EN"
 "http://www.w3.org/Graphics/SVG/1.1/DTD/svg11.dtd">
<!-- Generated by graphviz version 2.40.1 (20161225.0304)
 -->
<!-- Title: %3 Pages: 1 -->
<svg width="576pt" height="128pt"
 viewBox="0.00 0.00 576.00 127.94" xmlns="http://www.w3.org/2000/svg" xmlns:xlink="http://www.w3.org/1999/xlink">
<g id="graph0" class="graph" transform="scale(.3604 .3604) rotate(0) translate(4 351)">
<title>%3</title>
<polygon fill="#ffffff" stroke="transparent" points="-4,4 -4,-351 1594.2068,-351 1594.2068,4 -4,4"/>
<!-- N8589 -->
<g id="node1" class="node">
<title>N8589</title>
<ellipse fill="#8cd499" stroke="#000000" stroke-width="0" cx="114.427" cy="-133" rx="51.2405" ry="18"/>
<text text-anchor="middle" x="114.427" y="-128.8" font-family="Times,serif" font-size="14.00" fill="#000000">Dict (8589)</text>
</g>
<!-- N8592 -->
<g id="node2" class="node">
<title>N8592</title>
<polygon fill="#de707f" stroke="#000000" stroke-width="0" points="756.4666,-162 623.9622,-162 623.9622,-112 756.4666,-112 756.4666,-162"/>
<text text-anchor="middle" x="690.2144" y="-146.8" font-family="Times,serif" font-size="14.00" fill="#000000">CalcJobNode (8592)</text>
<text text-anchor="middle" x="690.2144" y="-132.8" font-family="Times,serif" font-size="14.00" fill="#000000">State: finished</text>
<text text-anchor="middle" x="690.2144" y="-118.8" font-family="Times,serif" font-size="14.00" fill="#000000">Exit Code: 0</text>
</g>
<!-- N8589&#45;&gt;N8592 -->
<g id="edge1" class="edge">
<title>N8589&#45;&gt;N8592</title>
<path fill="none" stroke="#000000" d="M152.2359,-120.8052C175.1425,-112.6943 204.536,-100.9765 228.854,-87 237.641,-81.9498 237.2677,-76.2891 246.854,-73 313.1052,-50.2687 505.6244,-91.211 613.9225,-117.4767"/>
<polygon fill="#000000" stroke="#000000" points="613.2677,-120.9196 623.8126,-119.8913 614.9281,-114.1193 613.2677,-120.9196"/>
<text text-anchor="middle" x="431.523" y="-109.8" font-family="Times,serif" font-size="14.00" fill="#000000">INPUT_CALC</text>
<text text-anchor="middle" x="431.523" y="-95.8" font-family="Times,serif" font-size="14.00" fill="#000000">input1</text>
</g>
<!-- N8591 -->
<g id="node3" class="node">
<title>N8591</title>
<polygon fill="#e38851" stroke="#000000" stroke-width="0" points="507.3749,-171 355.671,-171 355.671,-135 507.3749,-135 507.3749,-171"/>
<text text-anchor="middle" x="431.523" y="-155.8" font-family="Times,serif" font-size="14.00" fill="#000000">WorkChainNode (8591)</text>
<text text-anchor="middle" x="431.523" y="-141.8" font-family="Times,serif" font-size="14.00" fill="#000000">State: running</text>
</g>
<!-- N8589&#45;&gt;N8591 -->
<g id="edge2" class="edge">
<title>N8589&#45;&gt;N8591</title>
<path fill="none" stroke="#000000" stroke-dasharray="5,2" d="M165.4906,-134.8369C210.8016,-136.6282 278.779,-139.7107 337.8472,-144 340.378,-144.1838 342.9466,-144.3784 345.5389,-144.5818"/>
<polygon fill="#000000" stroke="#000000" points="345.3748,-148.08 355.6266,-145.4061 345.9449,-141.1032 345.3748,-148.08"/>
<text text-anchor="middle" x="292.3506" y="-160.8" font-family="Times,serif" font-size="14.00" fill="#000000">INPUT_WORK</text>
<text text-anchor="middle" x="292.3506" y="-146.8" font-family="Times,serif" font-size="14.00" fill="#000000">input1</text>
</g>
<!-- N8593 -->
<g id="node4" class="node">
<title>N8593</title>
<ellipse fill="#8cd499" stroke="#000000" stroke-width="0" cx="969.5256" cy="-148" rx="96.0917" ry="25.4118"/>
<text text-anchor="middle" x="969.5256" y="-150.8" font-family="Times,serif" font-size="14.00" fill="#000000">RemoteData (8593)</text>
<text text-anchor="middle" x="969.5256" y="-136.8" font-family="Times,serif" font-size="14.00" fill="#000000">@example_computer</text>
</g>
<!-- N8592&#45;&gt;N8593 -->
<g id="edge3" class="edge">
<title>N8592&#45;&gt;N8593</title>
<path fill="none" stroke="#000000" d="M756.4072,-139.6068C788.5529,-140.8728 827.9579,-142.4247 864.1026,-143.8482"/>
<polygon fill="#000000" stroke="#000000" points="864.072,-147.3496 874.202,-144.2459 864.3475,-140.355 864.072,-147.3496"/>
<text text-anchor="middle" x="814.7852" y="-159.8" font-family="Times,serif" font-size="14.00" fill="#000000">CREATE</text>
<text text-anchor="middle" x="814.7852" y="-145.8" font-family="Times,serif" font-size="14.00" fill="#000000">output</text>
</g>
<!-- N8591&#45;&gt;N8592 -->
<g id="edge4" class="edge">
<title>N8591&#45;&gt;N8592</title>
<path fill="none" stroke="#000000" stroke-dasharray="1,5" d="M507.325,-139.8567C513.3592,-139.1177 519.3716,-138.4814 525.1987,-138 554.0606,-135.6158 585.8585,-134.9586 613.7736,-135.0362"/>
<polygon fill="#000000" stroke="#000000" points="613.8491,-138.5366 623.8698,-135.0962 613.8908,-131.5368 613.8491,-138.5366"/>
<text text-anchor="middle" x="565.6436" y="-154.8" font-family="Times,serif" font-size="14.00" fill="#000000">CALL_CALC</text>
<text text-anchor="middle" x="565.6436" y="-140.8" font-family="Times,serif" font-size="14.00" fill="#000000">call1</text>
</g>
<!-- N8597 -->
<g id="node7" class="node">
<title>N8597</title>
<ellipse fill="#8cd499" stroke="#000000" stroke-width="0" cx="1514.5297" cy="-137" rx="75.8547" ry="18"/>
<text text-anchor="middle" x="1514.5297" y="-132.8" font-family="Times,serif" font-size="14.00" fill="#000000">FolderData (8597)</text>
</g>
<!-- N8591&#45;&gt;N8597 -->
<g id="edge7" class="edge">
<title>N8591&#45;&gt;N8597</title>
<path fill="none" stroke="#000000" stroke-dasharray="5,2" d="M485.5606,-134.8615C492.9563,-131.8451 500.3533,-128.536 507.1987,-125 594.7146,-79.7933 591.7123,0 690.2144,0 690.2144,0 690.2144,0 1268.6714,0 1359.7922,0 1448.62,-72.6962 1490.1441,-112.1785"/>
<polygon fill="#000000" stroke="#000000" points="1487.9523,-114.9283 1497.5711,-119.3701 1492.8217,-109.8994 1487.9523,-114.9283"/>
<text text-anchor="middle" x="969.5256" y="-16.8" font-family="Times,serif" font-size="14.00" fill="#000000">RETURN</text>
<text text-anchor="middle" x="969.5256" y="-2.8" font-family="Times,serif" font-size="14.00" fill="#000000">output2</text>
</g>
<!-- N8596 -->
<g id="node8" class="node">
<title>N8596</title>
<ellipse fill="#8cd499" stroke="#000000" stroke-width="0" cx="1514.5297" cy="-271" rx="51.2405" ry="18"/>
<text text-anchor="middle" x="1514.5297" y="-266.8" font-family="Times,serif" font-size="14.00" fill="#000000">Dict (8596)</text>
</g>
<!-- N8591&#45;&gt;N8596 -->
<g id="edge8" class="edge">
<title>N8591&#45;&gt;N8596</title>
<path fill="none" stroke="#000000" stroke-dasharray="5,2" d="M473.0409,-171.1617C484.3275,-176.5246 496.4084,-182.6658 507.1987,-189 593.2413,-239.5092 590.4421,-319 690.2144,-319 690.2144,-319 690.2144,-319 1268.6714,-319 1338.6523,-319 1417.7962,-300.0352 1466.9343,-285.947"/>
<polygon fill="#000000" stroke="#000000" points="1468.0306,-289.2731 1476.6502,-283.1124 1466.0701,-282.5532 1468.0306,-289.2731"/>
<text text-anchor="middle" x="969.5256" y="-335.8" font-family="Times,serif" font-size="14.00" fill="#000000">RETURN</text>
<text text-anchor="middle" x="969.5256" y="-321.8" font-family="Times,serif" font-size="14.00" fill="#000000">output1</text>
</g>
<!-- N8595 -->
<g id="node9" class="node">
<title>N8595</title>
<polygon fill="#de707f" fill-opacity="0.466667" stroke="#000000" stroke-width="0" points="1349.7549,-230 1187.5878,-230 1187.5878,-180 1349.7549,-180 1349.7549,-230"/>
<text text-anchor="middle" x="1268.6714" y="-214.8" font-family="Times,serif" font-size="14.00" fill="#000000">CalcFunctionNode (8595)</text>
<text text-anchor="middle" x="1268.6714" y="-200.8" font-family="Times,serif" font-size="14.00" fill="#000000">State: finished</text>
<text text-anchor="middle" x="1268.6714" y="-186.8" font-family="Times,serif" font-size="14.00" fill="#000000">Exit Code: 200</text>
</g>
<!-- N8591&#45;&gt;N8595 -->
<g id="edge9" class="edge">
<title>N8591&#45;&gt;N8595</title>
<path fill="none" stroke="#000000" stroke-dasharray="1,5" d="M507.3184,-167.6337C513.3541,-168.5305 519.3686,-169.3367 525.1987,-170 759.113,-196.6123 1036.6447,-203.0728 1177.2347,-204.586"/>
<polygon fill="#000000" stroke="#000000" points="1177.4943,-208.0887 1187.5294,-204.6905 1177.5655,-201.089 1177.4943,-208.0887"/>
<text text-anchor="middle" x="814.7852" y="-211.8" font-family="Times,serif" font-size="14.00" fill="#000000">CALL_CALC</text>
<text text-anchor="middle" x="814.7852" y="-197.8" font-family="Times,serif" font-size="14.00" fill="#000000">call2</text>
</g>
<!-- N8593&#45;&gt;N8595 -->
<g id="edge12" class="edge">
<title>N8593&#45;&gt;N8595</title>
<path fill="none" stroke="#000000" d="M1065.8144,-148.9039C1098.9945,-150.8765 1136.1542,-154.9556 1169.3799,-163 1182.4264,-166.1588 1195.9558,-170.844 1208.6736,-175.9526"/>
<polygon fill="#000000" stroke="#000000" points="1207.642,-179.3141 1218.2193,-179.9233 1210.3305,-172.851 1207.642,-179.3141"/>
<text text-anchor="middle" x="1126.6006" y="-179.8" font-family="Times,serif" font-size="14.00" fill="#000000">INPUT_CALC</text>
<text text-anchor="middle" x="1126.6006" y="-165.8" font-family="Times,serif" font-size="14.00" fill="#000000">input1</text>
</g>
<!-- N8590 -->
<g id="node5" class="node">
<title>N8590</title>
<ellipse fill="#8cd499" stroke="#000000" stroke-width="0" cx="114.427" cy="-53" rx="51.3557" ry="25.4118"/>
<text text-anchor="middle" x="114.427" y="-55.8" font-family="Times,serif" font-size="14.00" fill="#000000">Int (8590)</text>
<text text-anchor="middle" x="114.427" y="-41.8" font-family="Times,serif" font-size="14.00" fill="#000000">value: 3</text>
</g>
<!-- N8590&#45;&gt;N8592 -->
<g id="edge5" class="edge">
<title>N8590&#45;&gt;N8592</title>
<path fill="none" stroke="#000000" d="M161.5767,-42.7373C236.2308,-28.3596 385.6432,-7.2297 507.1987,-38 559.0143,-51.1165 612.0707,-82.1422 647.6245,-105.9935"/>
<polygon fill="#000000" stroke="#000000" points="646.0402,-109.1492 656.2751,-111.8875 649.9817,-103.3643 646.0402,-109.1492"/>
<text text-anchor="middle" x="431.523" y="-54.8" font-family="Times,serif" font-size="14.00" fill="#000000">INPUT_CALC</text>
<text text-anchor="middle" x="431.523" y="-40.8" font-family="Times,serif" font-size="14.00" fill="#000000">input2</text>
</g>
<!-- N8590&#45;&gt;N8591 -->
<g id="edge10" class="edge">
<title>N8590&#45;&gt;N8591</title>
<path fill="none" stroke="#000000" stroke-dasharray="5,2" d="M164.6068,-58.2076C211.4309,-64.5834 282.2287,-78.1783 337.8472,-106 347.1606,-110.6588 346.9551,-115.58 355.8472,-121 361.4938,-124.4418 367.5771,-127.6864 373.7536,-130.6925"/>
<polygon fill="#000000" stroke="#000000" points="372.2871,-133.8704 382.8297,-134.9211 375.2434,-127.5253 372.2871,-133.8704"/>
<text text-anchor="middle" x="292.3506" y="-122.8" font-family="Times,serif" font-size="14.00" fill="#000000">INPUT_WORK</text>
<text text-anchor="middle" x="292.3506" y="-108.8" font-family="Times,serif" font-size="14.00" fill="#000000">input2</text>
</g>
<!-- N8588 -->
<g id="node6" class="node">
<title>N8588</title>
<ellipse fill="#4ca4b9" fill-opacity="0.666667" stroke="#000000" stroke-width="0" cx="114.427" cy="-203" rx="114.3541" ry="25.4118"/>
<text text-anchor="middle" x="114.427" y="-205.8" font-family="Times,serif" font-size="14.00" fill="#000000">Code (8588)</text>
<text text-anchor="middle" x="114.427" y="-191.8" font-family="Times,serif" font-size="14.00" fill="#000000">exec@example_computer</text>
</g>
<!-- N8588&#45;&gt;N8592 -->
<g id="edge6" class="edge">
<title>N8588&#45;&gt;N8592</title>
<path fill="none" stroke="#000000" d="M215.9232,-214.8304C226.3578,-215.7169 236.8112,-216.4706 246.854,-217 407.8911,-225.4887 450.2446,-207.4452 606.0884,-166 608.7267,-165.2984 611.4017,-164.5554 614.0957,-163.7801"/>
<polygon fill="#000000" stroke="#000000" points="615.3236,-167.0662 623.9018,-160.8481 613.3182,-160.3596 615.3236,-167.0662"/>
<text text-anchor="middle" x="431.523" y="-233.8" font-family="Times,serif" font-size="14.00" fill="#000000">INPUT_CALC</text>
<text text-anchor="middle" x="431.523" y="-219.8" font-family="Times,serif" font-size="14.00" fill="#000000">code</text>
</g>
<!-- N8588&#45;&gt;N8591 -->
<g id="edge11" class="edge">
<title>N8588&#45;&gt;N8591</title>
<path fill="none" stroke="#000000" stroke-dasharray="5,2" d="M214.1723,-190.5108C252.8736,-185.3118 297.5081,-178.8826 337.8472,-172 340.3878,-171.5665 342.9649,-171.1157 345.5647,-170.6513"/>
<polygon fill="#000000" stroke="#000000" points="346.4701,-174.0438 355.6762,-168.8001 345.2094,-167.1582 346.4701,-174.0438"/>
<text text-anchor="middle" x="292.3506" y="-201.8" font-family="Times,serif" font-size="14.00" fill="#000000">INPUT_WORK</text>
<text text-anchor="middle" x="292.3506" y="-187.8" font-family="Times,serif" font-size="14.00" fill="#000000">code</text>
</g>
<!-- N8595&#45;&gt;N8597 -->
<g id="edge13" class="edge">
<title>N8595&#45;&gt;N8597</title>
<path fill="none" stroke="#000000" d="M1349.856,-182.5458C1384.1851,-173.051 1423.4429,-162.193 1455.0152,-153.4606"/>
<polygon fill="#000000" stroke="#000000" points="1456.2749,-156.7437 1464.98,-150.7046 1454.4088,-149.997 1456.2749,-156.7437"/>
<text text-anchor="middle" x="1394.4077" y="-193.8" font-family="Times,serif" font-size="14.00" fill="#000000">CREATE</text>
<text text-anchor="middle" x="1394.4077" y="-179.8" font-family="Times,serif" font-size="14.00" fill="#000000">output2</text>
</g>
<!-- N8595&#45;&gt;N8596 -->
<g id="edge14" class="edge">
<title>N8595&#45;&gt;N8596</title>
<path fill="none" stroke="#000000" d="M1349.856,-226.7938C1387.5027,-236.8999 1431.0765,-248.5972 1463.9419,-257.4198"/>
<polygon fill="#000000" stroke="#000000" points="1463.2137,-260.8482 1473.7793,-260.0607 1465.0287,-254.0876 1463.2137,-260.8482"/>
<text text-anchor="middle" x="1394.4077" y="-261.8" font-family="Times,serif" font-size="14.00" fill="#000000">CREATE</text>
<text text-anchor="middle" x="1394.4077" y="-247.8" font-family="Times,serif" font-size="14.00" fill="#000000">output1</text>
</g>
<!-- N8594 -->
<g id="node10" class="node">
<title>N8594</title>
<ellipse fill="#8cd499" stroke="#000000" stroke-width="0" cx="969.5256" cy="-258" rx="51.9679" ry="25.4118"/>
<text text-anchor="middle" x="969.5256" y="-260.8" font-family="Times,serif" font-size="14.00" fill="#000000">Str (8594)</text>
<text text-anchor="middle" x="969.5256" y="-246.8" font-family="Times,serif" font-size="14.00" fill="#000000">abc</text>
</g>
<!-- N8594&#45;&gt;N8595 -->
<g id="edge15" class="edge">
<title>N8594&#45;&gt;N8595</title>
<path fill="none" stroke="#000000" d="M1018.2544,-249.3667C1061.2599,-241.7473 1125.0846,-230.4394 1177.5342,-221.1469"/>
<polygon fill="#000000" stroke="#000000" points="1178.2888,-224.5678 1187.5249,-219.3768 1177.0676,-217.6751 1178.2888,-224.5678"/>
<text text-anchor="middle" x="1126.6006" y="-252.8" font-family="Times,serif" font-size="14.00" fill="#000000">INPUT_CALC</text>
<text text-anchor="middle" x="1126.6006" y="-238.8" font-family="Times,serif" font-size="14.00" fill="#000000">input2</text>
</g>
</g>
</svg>
